<?xml version="1.0" encoding="UTF-8" standalone="no"?>
<!DOCTYPE svg PUBLIC "-//W3C//DTD SVG 1.1//EN"
 "http://www.w3.org/Graphics/SVG/1.1/DTD/svg11.dtd">
<!-- Generated by graphviz version 2.36.0 (20140111.2315)
 -->
<!-- Title: cgi.h Pages: 1 -->
<!--zoomable 140 -->
<svg id="main" version="1.1" xmlns="http://www.w3.org/2000/svg" xmlns:xlink="http://www.w3.org/1999/xlink" xml:space="preserve" onload="init(evt)">
<style type="text/css"><![CDATA[
.edge:hover path { stroke: red; }
.edge:hover polygon { stroke: red; fill: red; }
]]></style>
<script type="text/javascript"><![CDATA[
var edges = document.getElementsByTagName('g');
if (edges && edges.length) {
  for (var i=0;i<edges.length;i++) {
    if (edges[i].id.substr(0,4)=='edge') {
      edges[i].setAttribute('class','edge');
    }
  }
}
]]></script>
        <defs>
                <circle id="rim" cx="0" cy="0" r="7"/>
                <circle id="rim2" cx="0" cy="0" r="3.5"/>
                <g id="zoomPlus">
                        <use xlink:href="#rim" fill="#404040">
                                <set attributeName="fill" to="#808080" begin="zoomplus.mouseover" end="zoomplus.mouseout"/>
                        </use>
                        <path d="M-4,0h8M0,-4v8" fill="none" stroke="white" stroke-width="1.5" pointer-events="none"/>
                </g>
                <g id="zoomMin">
                        <use xlink:href="#rim" fill="#404040">
                                <set attributeName="fill" to="#808080" begin="zoomminus.mouseover" end="zoomminus.mouseout"/>
                        </use>
                        <path d="M-4,0h8" fill="none" stroke="white" stroke-width="1.5" pointer-events="none"/>
                </g>
                <g id="dirArrow">
                        <path fill="none" stroke="white" stroke-width="1.5" d="M0,-3.0v7 M-2.5,-0.5L0,-3.0L2.5,-0.5"/>
                </g>
               <g id="resetDef">
                       <use xlink:href="#rim2" fill="#404040">
                               <set attributeName="fill" to="#808080" begin="reset.mouseover" end="reset.mouseout"/>
                       </use>
               </g>
        </defs>

<script type="text/javascript">
var viewWidth = 543;
var viewHeight = 140;
var sectionId = 'dynsection-1';
</script>
<script xlink:href="svgpan.js"/>
<svg id="graph" class="graph">
<g id="viewport">
<title>cgi.h</title>
<polygon fill="white" stroke="none" points="-4,4 -4,-136 539,-136 539,4 -4,4"/>
<!-- Node1 -->
<g id="node1" class="node"><title>Node1</title>
<polygon fill="#bfbfbf" stroke="black" points="213,-112.5 213,-131.5 251,-131.5 251,-112.5 213,-112.5"/>
<text text-anchor="middle" x="232" y="-119.5" font-family="Helvetica,sans-Serif" font-size="10.00">cgi.h</text>
</g>
<!-- Node2 -->
<g id="node2" class="node"><title>Node2</title>
<g id="a_node2"><a xlink:href="estado_8c.html" target="_top" xlink:title="Ficheiro contendo o código relativo ao módulo ESTADO. ">
<polygon fill="white" stroke="black" points="0,-0.5 0,-19.5 54,-19.5 54,-0.5 0,-0.5"/>
<text text-anchor="middle" x="27" y="-7.5" font-family="Helvetica,sans-Serif" font-size="10.00">estado.c</text>
</a>
</g>
</g>
<!-- Node1&#45;&gt;Node2 -->
<g id="edge1" class="edge"><title>Node1&#45;&gt;Node2</title>
<path fill="none" stroke="midnightblue" d="M207.01,-107.591C164.332,-84.6906 78.5682,-38.6708 43.0113,-19.5914"/>
<polygon fill="midnightblue" stroke="midnightblue" points="205.447,-110.724 215.914,-112.368 208.757,-104.556 205.447,-110.724"/>
</g>
<!-- Node3 -->
<g id="node3" class="node"><title>Node3</title>
<g id="a_node3"><a xlink:href="filemanager_8h.html" target="_top" xlink:title="Módulo de leitura de ficheiros. ">
<polygon fill="white" stroke="black" points="194.5,-56.5 194.5,-75.5 269.5,-75.5 269.5,-56.5 194.5,-56.5"/>
<text text-anchor="middle" x="232" y="-63.5" font-family="Helvetica,sans-Serif" font-size="10.00">filemanager.h</text>
</a>
</g>
</g>
<!-- Node1&#45;&gt;Node3 -->
<g id="edge2" class="edge"><title>Node1&#45;&gt;Node3</title>
<path fill="none" stroke="midnightblue" d="M232,-101.805C232,-92.9102 232,-82.7798 232,-75.7511"/>
<polygon fill="midnightblue" stroke="midnightblue" points="228.5,-102.083 232,-112.083 235.5,-102.083 228.5,-102.083"/>
</g>
<!-- Node4 -->
<g id="node4" class="node"><title>Node4</title>
<g id="a_node4"><a xlink:href="filemanager_8c.html" target="_top" xlink:title="Módulo de leitura de ficheiros. ">
<polygon fill="white" stroke="black" points="72.5,-0.5 72.5,-19.5 147.5,-19.5 147.5,-0.5 72.5,-0.5"/>
<text text-anchor="middle" x="110" y="-7.5" font-family="Helvetica,sans-Serif" font-size="10.00">filemanager.c</text>
</a>
</g>
</g>
<!-- Node1&#45;&gt;Node4 -->
<g id="edge10" class="edge"><title>Node1&#45;&gt;Node4</title>
<path fill="none" stroke="midnightblue" d="M214.822,-105.512C188.753,-82.0068 140.067,-38.1096 119.529,-19.5914"/>
<polygon fill="midnightblue" stroke="midnightblue" points="212.656,-108.271 222.427,-112.368 217.344,-103.073 212.656,-108.271"/>
</g>
<!-- Node9 -->
<g id="node9" class="node"><title>Node9</title>
<g id="a_node9"><a xlink:href="exemplo_8c.html" target="_top" xlink:title="Esqueleto do programa. ">
<polygon fill="white" stroke="black" points="441,-56.5 441,-75.5 503,-75.5 503,-56.5 441,-56.5"/>
<text text-anchor="middle" x="472" y="-63.5" font-family="Helvetica,sans-Serif" font-size="10.00">exemplo.c</text>
</a>
</g>
</g>
<!-- Node1&#45;&gt;Node9 -->
<g id="edge9" class="edge"><title>Node1&#45;&gt;Node9</title>
<path fill="none" stroke="midnightblue" d="M261.05,-114.464C306.499,-104.238 394.045,-84.5398 440.79,-74.0223"/>
<polygon fill="midnightblue" stroke="midnightblue" points="260.222,-111.062 251.235,-116.672 261.759,-117.892 260.222,-111.062"/>
</g>
<!-- Node10 -->
<g id="node10" class="node"><title>Node10</title>
<g id="a_node10"><a xlink:href="userfiles_8h.html" target="_top" xlink:title="Módulo para conversão entre ficheiros e ESTADO. ">
<polygon fill="white" stroke="black" points="361,-56.5 361,-75.5 423,-75.5 423,-56.5 361,-56.5"/>
<text text-anchor="middle" x="392" y="-63.5" font-family="Helvetica,sans-Serif" font-size="10.00">userfiles.h</text>
</a>
</g>
</g>
<!-- Node1&#45;&gt;Node10 -->
<g id="edge11" class="edge"><title>Node1&#45;&gt;Node10</title>
<path fill="none" stroke="midnightblue" d="M260.827,-111.271C290.955,-101.103 337.771,-85.3023 366.567,-75.5837"/>
<polygon fill="midnightblue" stroke="midnightblue" points="259.655,-107.972 251.3,-114.486 261.894,-114.605 259.655,-107.972"/>
</g>
<!-- Node3&#45;&gt;Node2 -->
<g id="edge3" class="edge"><title>Node3&#45;&gt;Node2</title>
<path fill="none" stroke="midnightblue" d="M189.621,-53.8367C148.93,-43.1182 88.6882,-27.2496 54.0935,-18.1368"/>
<polygon fill="midnightblue" stroke="midnightblue" points="188.955,-57.2808 199.517,-56.4435 190.739,-50.5117 188.955,-57.2808"/>
</g>
<!-- Node3&#45;&gt;Node4 -->
<g id="edge4" class="edge"><title>Node3&#45;&gt;Node4</title>
<path fill="none" stroke="midnightblue" d="M203.461,-52.3678C180.614,-42.2553 149.195,-28.3486 129.241,-19.5164"/>
<polygon fill="midnightblue" stroke="midnightblue" points="202.108,-55.5965 212.669,-56.4435 204.941,-49.1955 202.108,-55.5965"/>
</g>
<!-- Node5 -->
<g id="node5" class="node"><title>Node5</title>
<g id="a_node5"><a xlink:href="frontend_8c.html" target="_top" xlink:title="Módulo de tratamento gráfico. ">
<polygon fill="white" stroke="black" points="165,-0.5 165,-19.5 225,-19.5 225,-0.5 165,-0.5"/>
<text text-anchor="middle" x="195" y="-7.5" font-family="Helvetica,sans-Serif" font-size="10.00">frontend.c</text>
</a>
</g>
</g>
<!-- Node3&#45;&gt;Node5 -->
<g id="edge5" class="edge"><title>Node3&#45;&gt;Node5</title>
<path fill="none" stroke="midnightblue" d="M220.054,-47.5656C213.688,-38.2747 206.133,-27.2484 200.996,-19.7511"/>
<polygon fill="midnightblue" stroke="midnightblue" points="217.351,-49.812 225.89,-56.083 223.125,-45.8553 217.351,-49.812"/>
</g>
<!-- Node6 -->
<g id="node6" class="node"><title>Node6</title>
<g id="a_node6"><a xlink:href="frontendTab_8c.html" target="_top" xlink:title="Módulo de tratamento gráfico, especializado ao tabuleiro. ">
<polygon fill="white" stroke="black" points="243.5,-0.5 243.5,-19.5 320.5,-19.5 320.5,-0.5 243.5,-0.5"/>
<text text-anchor="middle" x="282" y="-7.5" font-family="Helvetica,sans-Serif" font-size="10.00">frontendTab.c</text>
</a>
</g>
</g>
<!-- Node3&#45;&gt;Node6 -->
<g id="edge6" class="edge"><title>Node3&#45;&gt;Node6</title>
<path fill="none" stroke="midnightblue" d="M247.076,-48.7175C255.889,-39.1997 266.666,-27.5608 273.897,-19.7511"/>
<polygon fill="midnightblue" stroke="midnightblue" points="244.482,-46.3674 240.256,-56.083 249.619,-51.1233 244.482,-46.3674"/>
</g>
<!-- Node7 -->
<g id="node7" class="node"><title>Node7</title>
<g id="a_node7"><a xlink:href="parser_8c.html" target="_top" xlink:title="Módulo de User input / Interpertador de comandos. ">
<polygon fill="white" stroke="black" points="404,-0.5 404,-19.5 456,-19.5 456,-0.5 404,-0.5"/>
<text text-anchor="middle" x="430" y="-7.5" font-family="Helvetica,sans-Serif" font-size="10.00">parser.c</text>
</a>
</g>
</g>
<!-- Node3&#45;&gt;Node7 -->
<g id="edge7" class="edge"><title>Node3&#45;&gt;Node7</title>
<path fill="none" stroke="midnightblue" d="M273.182,-53.7685C312.48,-43.051 370.489,-27.2303 403.832,-18.1368"/>
<polygon fill="midnightblue" stroke="midnightblue" points="272.1,-50.4356 263.374,-56.4435 273.942,-57.189 272.1,-50.4356"/>
</g>
<!-- Node8 -->
<g id="node8" class="node"><title>Node8</title>
<g id="a_node8"><a xlink:href="state_8c.html" target="_top" xlink:title="Módulo para alterar estado. ">
<polygon fill="white" stroke="black" points="338.5,-0.5 338.5,-19.5 385.5,-19.5 385.5,-0.5 338.5,-0.5"/>
<text text-anchor="middle" x="362" y="-7.5" font-family="Helvetica,sans-Serif" font-size="10.00">state.c</text>
</a>
</g>
</g>
<!-- Node3&#45;&gt;Node8 -->
<g id="edge8" class="edge"><title>Node3&#45;&gt;Node8</title>
<path fill="none" stroke="midnightblue" d="M262.085,-52.503C286.457,-42.3795 320.14,-28.388 341.497,-19.5164"/>
<polygon fill="midnightblue" stroke="midnightblue" points="260.491,-49.3752 252.599,-56.4435 263.177,-55.8397 260.491,-49.3752"/>
</g>
<!-- Node10&#45;&gt;Node7 -->
<g id="edge12" class="edge"><title>Node10&#45;&gt;Node7</title>
<path fill="none" stroke="midnightblue" d="M404.065,-47.8554C410.645,-38.5048 418.511,-27.3265 423.842,-19.7511"/>
<polygon fill="midnightblue" stroke="midnightblue" points="401.168,-45.8907 398.275,-56.083 406.892,-49.9192 401.168,-45.8907"/>
</g>
<!-- Node11 -->
<g id="node11" class="node"><title>Node11</title>
<g id="a_node11"><a xlink:href="userfiles_8c.html" target="_top" xlink:title="Módulo para conversão entre ficheiros e ESTADO. ">
<polygon fill="white" stroke="black" points="474,-0.5 474,-19.5 536,-19.5 536,-0.5 474,-0.5"/>
<text text-anchor="middle" x="505" y="-7.5" font-family="Helvetica,sans-Serif" font-size="10.00">userfiles.c</text>
</a>
</g>
</g>
<!-- Node10&#45;&gt;Node11 -->
<g id="edge13" class="edge"><title>Node10&#45;&gt;Node11</title>
<path fill="none" stroke="midnightblue" d="M419.003,-52.096C440.114,-42.0073 468.862,-28.2697 487.179,-19.5164"/>
<polygon fill="midnightblue" stroke="midnightblue" points="417.419,-48.9738 409.905,-56.4435 420.437,-55.2897 417.419,-48.9738"/>
</g>
</g>
</svg>
        <g id="navigator" transform="translate(0 0)" fill="#404254">
                <rect fill="#f2f5e9" fill-opacity="0.5" stroke="#606060" stroke-width=".5" x="0" y="0" width="60" height="60"/>
                <use id="zoomplus" xlink:href="#zoomPlus" x="17" y="9" onmousedown="handleZoom(evt,'in')"/>
                <use id="zoomminus" xlink:href="#zoomMin" x="42" y="9" onmousedown="handleZoom(evt,'out')"/>
                <use id="reset" xlink:href="#resetDef" x="30" y="36" onmousedown="handleReset()"/>
                <g id="arrowUp" xlink:href="#dirArrow" transform="translate(30 24)" onmousedown="handlePan(0,-1)">
                  <use xlink:href="#rim" fill="#404040">
                        <set attributeName="fill" to="#808080" begin="arrowUp.mouseover" end="arrowUp.mouseout"/>
                  </use>
                  <path fill="none" stroke="white" stroke-width="1.5" d="M0,-3.0v7 M-2.5,-0.5L0,-3.0L2.5,-0.5"/>
                </g>
                <g id="arrowRight" xlink:href="#dirArrow" transform="rotate(90) translate(36 -43)" onmousedown="handlePan(1,0)">
                  <use xlink:href="#rim" fill="#404040">
                        <set attributeName="fill" to="#808080" begin="arrowRight.mouseover" end="arrowRight.mouseout"/>
                  </use>
                  <path fill="none" stroke="white" stroke-width="1.5" d="M0,-3.0v7 M-2.5,-0.5L0,-3.0L2.5,-0.5"/>
                </g>
                <g id="arrowDown" xlink:href="#dirArrow" transform="rotate(180) translate(-30 -48)" onmousedown="handlePan(0,1)">
                  <use xlink:href="#rim" fill="#404040">
                        <set attributeName="fill" to="#808080" begin="arrowDown.mouseover" end="arrowDown.mouseout"/>
                  </use>
                  <path fill="none" stroke="white" stroke-width="1.5" d="M0,-3.0v7 M-2.5,-0.5L0,-3.0L2.5,-0.5"/>
                </g>
                <g id="arrowLeft" xlink:href="#dirArrow" transform="rotate(270) translate(-36 17)" onmousedown="handlePan(-1,0)">
                  <use xlink:href="#rim" fill="#404040">
                        <set attributeName="fill" to="#808080" begin="arrowLeft.mouseover" end="arrowLeft.mouseout"/>
                  </use>
                  <path fill="none" stroke="white" stroke-width="1.5" d="M0,-3.0v7 M-2.5,-0.5L0,-3.0L2.5,-0.5"/>
                </g>
        </g>
        <svg viewBox="0 0 15 15" width="100%" height="30px" preserveAspectRatio="xMaxYMin meet">
         <g id="arrow_out" transform="scale(0.3 0.3)">
          <a xlink:href="cgi_8h__dep__incl_org.svg" target="_base">
           <rect id="button" ry="5" rx="5" y="6" x="6" height="38" width="38"
                fill="#f2f5e9" fill-opacity="0.5" stroke="#606060" stroke-width="1.0"/>
           <path id="arrow"
             d="M 11.500037,31.436501 C 11.940474,20.09759 22.043105,11.32322 32.158766,21.979434 L 37.068811,17.246167 C 37.068811,17.246167 37.088388,32 37.088388,32 L 22.160133,31.978069 C 22.160133,31.978069 26.997745,27.140456 26.997745,27.140456 C 18.528582,18.264221 13.291696,25.230495 11.500037,31.436501 z"
             style="fill:#404040;"/>
          </a>
         </g>
        </svg>
</svg>
