<?xml version="1.0" encoding="UTF-8" standalone="no"?>
<!DOCTYPE svg PUBLIC "-//W3C//DTD SVG 1.1//EN"
 "http://www.w3.org/Graphics/SVG/1.1/DTD/svg11.dtd">
<!-- Generated by graphviz version 2.36.0 (20140111.2315)
 -->
<!-- Title: decide.h Pages: 1 -->
<svg width="449pt" height="84pt"
 viewBox="0.00 0.00 449.00 84.00" xmlns="http://www.w3.org/2000/svg" xmlns:xlink="http://www.w3.org/1999/xlink">
<g id="graph0" class="graph" transform="scale(1 1) rotate(0) translate(4 80)">
<title>decide.h</title>
<polygon fill="white" stroke="none" points="-4,4 -4,-80 445,-80 445,4 -4,4"/>
<!-- Node1 -->
<g id="node1" class="node"><title>Node1</title>
<polygon fill="#bfbfbf" stroke="black" points="204.5,-56.5 204.5,-75.5 257.5,-75.5 257.5,-56.5 204.5,-56.5"/>
<text text-anchor="middle" x="231" y="-63.5" font-family="Helvetica,sans-Serif" font-size="10.00">decide.h</text>
</g>
<!-- Node2 -->
<g id="node2" class="node"><title>Node2</title>
<g id="a_node2"><a xlink:href="decide_8c.html" target="_top" xlink:title="Módulo encarregue da interatividade com peças. ">
<polygon fill="white" stroke="black" points="-0.5,-0.5 -0.5,-19.5 52.5,-19.5 52.5,-0.5 -0.5,-0.5"/>
<text text-anchor="middle" x="26" y="-7.5" font-family="Helvetica,sans-Serif" font-size="10.00">decide.c</text>
</a>
</g>
</g>
<!-- Node1&#45;&gt;Node2 -->
<g id="edge1" class="edge"><title>Node1&#45;&gt;Node2</title>
<path fill="none" stroke="midnightblue" d="M194.41,-55.3616C153.739,-44.6484 89.0289,-27.6027 52.8067,-18.0613"/>
<polygon fill="midnightblue" stroke="midnightblue" points="193.638,-58.7777 204.2,-57.9404 195.421,-52.0086 193.638,-58.7777"/>
</g>
<!-- Node3 -->
<g id="node3" class="node"><title>Node3</title>
<g id="a_node3"><a xlink:href="frontend_8c.html" target="_top" xlink:title="Módulo de tratamento gráfico. ">
<polygon fill="white" stroke="black" points="71,-0.5 71,-19.5 131,-19.5 131,-0.5 71,-0.5"/>
<text text-anchor="middle" x="101" y="-7.5" font-family="Helvetica,sans-Serif" font-size="10.00">frontend.c</text>
</a>
</g>
</g>
<!-- Node1&#45;&gt;Node3 -->
<g id="edge2" class="edge"><title>Node1&#45;&gt;Node3</title>
<path fill="none" stroke="midnightblue" d="M200.915,-52.503C176.543,-42.3795 142.86,-28.388 121.503,-19.5164"/>
<polygon fill="midnightblue" stroke="midnightblue" points="199.823,-55.8397 210.401,-56.4435 202.509,-49.3752 199.823,-55.8397"/>
</g>
<!-- Node4 -->
<g id="node4" class="node"><title>Node4</title>
<g id="a_node4"><a xlink:href="frontendTab_8c.html" target="_top" xlink:title="Módulo de tratamento gráfico, especializado ao tabuleiro. ">
<polygon fill="white" stroke="black" points="149.5,-0.5 149.5,-19.5 226.5,-19.5 226.5,-0.5 149.5,-0.5"/>
<text text-anchor="middle" x="188" y="-7.5" font-family="Helvetica,sans-Serif" font-size="10.00">frontendTab.c</text>
</a>
</g>
</g>
<!-- Node1&#45;&gt;Node4 -->
<g id="edge3" class="edge"><title>Node1&#45;&gt;Node4</title>
<path fill="none" stroke="midnightblue" d="M217.578,-48.144C210.086,-38.7357 201.063,-27.4046 194.968,-19.7511"/>
<polygon fill="midnightblue" stroke="midnightblue" points="214.932,-50.4404 223.899,-56.083 220.408,-46.0799 214.932,-50.4404"/>
</g>
<!-- Node5 -->
<g id="node5" class="node"><title>Node5</title>
<g id="a_node5"><a xlink:href="givehelp_8c.html" target="_top" xlink:title="Módulo para fornecimento de ajudas. ">
<polygon fill="white" stroke="black" points="244.5,-0.5 244.5,-19.5 305.5,-19.5 305.5,-0.5 244.5,-0.5"/>
<text text-anchor="middle" x="275" y="-7.5" font-family="Helvetica,sans-Serif" font-size="10.00">givehelp.c</text>
</a>
</g>
</g>
<!-- Node1&#45;&gt;Node5 -->
<g id="edge4" class="edge"><title>Node1&#45;&gt;Node5</title>
<path fill="none" stroke="midnightblue" d="M244.735,-48.144C252.401,-38.7357 261.633,-27.4046 267.869,-19.7511"/>
<polygon fill="midnightblue" stroke="midnightblue" points="241.869,-46.1198 238.266,-56.083 247.296,-50.5415 241.869,-46.1198"/>
</g>
<!-- Node6 -->
<g id="node6" class="node"><title>Node6</title>
<g id="a_node6"><a xlink:href="parser_8c.html" target="_top" xlink:title="Módulo de User input / Interpertador de comandos. ">
<polygon fill="white" stroke="black" points="324,-0.5 324,-19.5 376,-19.5 376,-0.5 324,-0.5"/>
<text text-anchor="middle" x="350" y="-7.5" font-family="Helvetica,sans-Serif" font-size="10.00">parser.c</text>
</a>
</g>
</g>
<!-- Node1&#45;&gt;Node6 -->
<g id="edge5" class="edge"><title>Node1&#45;&gt;Node6</title>
<path fill="none" stroke="midnightblue" d="M259.137,-52.2321C281.396,-42.1312 311.856,-28.3091 331.232,-19.5164"/>
<polygon fill="midnightblue" stroke="midnightblue" points="257.516,-49.124 249.856,-56.4435 260.409,-55.4984 257.516,-49.124"/>
</g>
<!-- Node7 -->
<g id="node7" class="node"><title>Node7</title>
<g id="a_node7"><a xlink:href="state_8c.html" target="_top" xlink:title="Módulo para alterar estado. ">
<polygon fill="white" stroke="black" points="394.5,-0.5 394.5,-19.5 441.5,-19.5 441.5,-0.5 394.5,-0.5"/>
<text text-anchor="middle" x="418" y="-7.5" font-family="Helvetica,sans-Serif" font-size="10.00">state.c</text>
</a>
</g>
</g>
<!-- Node1&#45;&gt;Node7 -->
<g id="edge6" class="edge"><title>Node1&#45;&gt;Node7</title>
<path fill="none" stroke="midnightblue" d="M267.81,-54.3705C305.292,-43.5466 362.301,-27.0842 394.218,-17.8674"/>
<polygon fill="midnightblue" stroke="midnightblue" points="266.429,-51.1261 257.793,-57.2631 268.371,-57.8513 266.429,-51.1261"/>
</g>
</g>
</svg>
