<?xml version="1.0" encoding="UTF-8" standalone="no"?>
<!DOCTYPE svg PUBLIC "-//W3C//DTD SVG 1.1//EN"
 "http://www.w3.org/Graphics/SVG/1.1/DTD/svg11.dtd">
<!-- Generated by graphviz version 2.36.0 (20140111.2315)
 -->
<!-- Title: decide.c Pages: 1 -->
<svg width="306pt" height="196pt"
 viewBox="0.00 0.00 306.00 196.00" xmlns="http://www.w3.org/2000/svg" xmlns:xlink="http://www.w3.org/1999/xlink">
<g id="graph0" class="graph" transform="scale(1 1) rotate(0) translate(4 192)">
<title>decide.c</title>
<polygon fill="white" stroke="none" points="-4,4 -4,-192 302,-192 302,4 -4,4"/>
<!-- Node1 -->
<g id="node1" class="node"><title>Node1</title>
<polygon fill="#bfbfbf" stroke="black" points="113.5,-168.5 113.5,-187.5 166.5,-187.5 166.5,-168.5 113.5,-168.5"/>
<text text-anchor="middle" x="140" y="-175.5" font-family="Helvetica,sans-Serif" font-size="10.00">decide.c</text>
</g>
<!-- Node2 -->
<g id="node2" class="node"><title>Node2</title>
<polygon fill="white" stroke="#bfbfbf" points="0,-112.5 0,-131.5 48,-131.5 48,-112.5 0,-112.5"/>
<text text-anchor="middle" x="24" y="-119.5" font-family="Helvetica,sans-Serif" font-size="10.00">stdlib.h</text>
</g>
<!-- Node1&#45;&gt;Node2 -->
<g id="edge1" class="edge"><title>Node1&#45;&gt;Node2</title>
<path fill="none" stroke="midnightblue" d="M121.619,-168.444C102.784,-159.675 73.2688,-145.935 51.6207,-135.858"/>
<polygon fill="midnightblue" stroke="midnightblue" points="52.8375,-132.564 42.2946,-131.516 49.8833,-138.91 52.8375,-132.564"/>
</g>
<!-- Node3 -->
<g id="node3" class="node"><title>Node3</title>
<polygon fill="white" stroke="#bfbfbf" points="66,-112.5 66,-131.5 112,-131.5 112,-112.5 66,-112.5"/>
<text text-anchor="middle" x="89" y="-119.5" font-family="Helvetica,sans-Serif" font-size="10.00">stdio.h</text>
</g>
<!-- Node1&#45;&gt;Node3 -->
<g id="edge2" class="edge"><title>Node1&#45;&gt;Node3</title>
<path fill="none" stroke="midnightblue" d="M131.578,-168.083C124.152,-160.22 113.148,-148.569 104.188,-139.081"/>
<polygon fill="midnightblue" stroke="midnightblue" points="106.676,-136.618 97.2649,-131.751 101.587,-141.424 106.676,-136.618"/>
</g>
<!-- Node4 -->
<g id="node4" class="node"><title>Node4</title>
<g id="a_node4"><a xlink:href="estado_8h.html" target="_top" xlink:title="Ficheiro header contendo os dados relativos ao módulo ESTADO. ">
<polygon fill="white" stroke="black" points="179,-56.5 179,-75.5 233,-75.5 233,-56.5 179,-56.5"/>
<text text-anchor="middle" x="206" y="-63.5" font-family="Helvetica,sans-Serif" font-size="10.00">estado.h</text>
</a>
</g>
</g>
<!-- Node1&#45;&gt;Node4 -->
<g id="edge3" class="edge"><title>Node1&#45;&gt;Node4</title>
<path fill="none" stroke="midnightblue" d="M141.244,-168.446C143.425,-155.461 148.815,-130.348 160,-112 166.856,-100.753 177.155,-90.32 186.27,-82.3375"/>
<polygon fill="midnightblue" stroke="midnightblue" points="188.739,-84.8357 194.176,-75.7424 184.255,-79.4604 188.739,-84.8357"/>
</g>
<!-- Node6 -->
<g id="node6" class="node"><title>Node6</title>
<g id="a_node6"><a xlink:href="validate_8h.html" target="_top" xlink:title="Módulo de funções utilizadas para verificação do tabuleiro. ">
<polygon fill="white" stroke="black" points="168.5,-112.5 168.5,-131.5 227.5,-131.5 227.5,-112.5 168.5,-112.5"/>
<text text-anchor="middle" x="198" y="-119.5" font-family="Helvetica,sans-Serif" font-size="10.00">validate.h</text>
</a>
</g>
</g>
<!-- Node1&#45;&gt;Node6 -->
<g id="edge5" class="edge"><title>Node1&#45;&gt;Node6</title>
<path fill="none" stroke="midnightblue" d="M149.319,-168.324C157.893,-160.341 170.812,-148.313 181.188,-138.653"/>
<polygon fill="midnightblue" stroke="midnightblue" points="183.578,-141.21 188.512,-131.834 178.808,-136.086 183.578,-141.21"/>
</g>
<!-- Node7 -->
<g id="node7" class="node"><title>Node7</title>
<g id="a_node7"><a xlink:href="decide_8h.html" target="_top" xlink:title="Módulo encarregue da interatividade com peças. ">
<polygon fill="white" stroke="black" points="245.5,-112.5 245.5,-131.5 298.5,-131.5 298.5,-112.5 245.5,-112.5"/>
<text text-anchor="middle" x="272" y="-119.5" font-family="Helvetica,sans-Serif" font-size="10.00">decide.h</text>
</a>
</g>
</g>
<!-- Node1&#45;&gt;Node7 -->
<g id="edge6" class="edge"><title>Node1&#45;&gt;Node7</title>
<path fill="none" stroke="midnightblue" d="M160.916,-168.444C182.736,-159.517 217.15,-145.439 241.892,-135.317"/>
<polygon fill="midnightblue" stroke="midnightblue" points="243.252,-138.542 251.182,-131.516 240.601,-132.063 243.252,-138.542"/>
</g>
<!-- Node5 -->
<g id="node5" class="node"><title>Node5</title>
<g id="a_node5"><a xlink:href="stack_8h.html" target="_top" xlink:title="Módulo para operar sobre STACK. ">
<polygon fill="white" stroke="black" points="181.5,-0.5 181.5,-19.5 230.5,-19.5 230.5,-0.5 181.5,-0.5"/>
<text text-anchor="middle" x="206" y="-7.5" font-family="Helvetica,sans-Serif" font-size="10.00">stack.h</text>
</a>
</g>
</g>
<!-- Node4&#45;&gt;Node5 -->
<g id="edge4" class="edge"><title>Node4&#45;&gt;Node5</title>
<path fill="none" stroke="midnightblue" d="M206,-56.083C206,-49.0059 206,-38.8611 206,-29.9865"/>
<polygon fill="midnightblue" stroke="midnightblue" points="209.5,-29.751 206,-19.7511 202.5,-29.7511 209.5,-29.751"/>
</g>
<!-- Node7&#45;&gt;Node4 -->
<g id="edge7" class="edge"><title>Node7&#45;&gt;Node4</title>
<path fill="none" stroke="midnightblue" d="M261.396,-112.324C251.544,-104.263 236.649,-92.0765 224.785,-82.3695"/>
<polygon fill="midnightblue" stroke="midnightblue" points="226.753,-79.4575 216.797,-75.8339 222.32,-84.8752 226.753,-79.4575"/>
</g>
</g>
</svg>
