<?xml version="1.0" encoding="UTF-8" standalone="no"?>
<!DOCTYPE svg PUBLIC "-//W3C//DTD SVG 1.1//EN"
 "http://www.w3.org/Graphics/SVG/1.1/DTD/svg11.dtd">
<!-- Generated by graphviz version 2.36.0 (20140111.2315)
 -->
<!-- Title: estado.h Pages: 1 -->
<!--zoomable 196 -->
<svg id="main" version="1.1" xmlns="http://www.w3.org/2000/svg" xmlns:xlink="http://www.w3.org/1999/xlink" xml:space="preserve" onload="init(evt)">
<style type="text/css"><![CDATA[
.edge:hover path { stroke: red; }
.edge:hover polygon { stroke: red; fill: red; }
]]></style>
<script type="text/javascript"><![CDATA[
var edges = document.getElementsByTagName('g');
if (edges && edges.length) {
  for (var i=0;i<edges.length;i++) {
    if (edges[i].id.substr(0,4)=='edge') {
      edges[i].setAttribute('class','edge');
    }
  }
}
]]></script>
        <defs>
                <circle id="rim" cx="0" cy="0" r="7"/>
                <circle id="rim2" cx="0" cy="0" r="3.5"/>
                <g id="zoomPlus">
                        <use xlink:href="#rim" fill="#404040">
                                <set attributeName="fill" to="#808080" begin="zoomplus.mouseover" end="zoomplus.mouseout"/>
                        </use>
                        <path d="M-4,0h8M0,-4v8" fill="none" stroke="white" stroke-width="1.5" pointer-events="none"/>
                </g>
                <g id="zoomMin">
                        <use xlink:href="#rim" fill="#404040">
                                <set attributeName="fill" to="#808080" begin="zoomminus.mouseover" end="zoomminus.mouseout"/>
                        </use>
                        <path d="M-4,0h8" fill="none" stroke="white" stroke-width="1.5" pointer-events="none"/>
                </g>
                <g id="dirArrow">
                        <path fill="none" stroke="white" stroke-width="1.5" d="M0,-3.0v7 M-2.5,-0.5L0,-3.0L2.5,-0.5"/>
                </g>
               <g id="resetDef">
                       <use xlink:href="#rim2" fill="#404040">
                               <set attributeName="fill" to="#808080" begin="reset.mouseover" end="reset.mouseout"/>
                       </use>
               </g>
        </defs>

<script type="text/javascript">
var viewWidth = 1247;
var viewHeight = 196;
var sectionId = 'dynsection-1';
</script>
<script xlink:href="svgpan.js"/>
<svg id="graph" class="graph">
<g id="viewport">
<title>estado.h</title>
<polygon fill="white" stroke="none" points="-4,4 -4,-192 1243,-192 1243,4 -4,4"/>
<!-- Node1 -->
<g id="node1" class="node"><title>Node1</title>
<polygon fill="#bfbfbf" stroke="black" points="548,-168.5 548,-187.5 602,-187.5 602,-168.5 548,-168.5"/>
<text text-anchor="middle" x="575" y="-175.5" font-family="Helvetica,sans-Serif" font-size="10.00">estado.h</text>
</g>
<!-- Node2 -->
<g id="node2" class="node"><title>Node2</title>
<g id="a_node2"><a xlink:href="decide_8c.html" target="_top" xlink:title="Módulo encarregue da interatividade com peças. ">
<polygon fill="white" stroke="black" points="-0.5,-0.5 -0.5,-19.5 52.5,-19.5 52.5,-0.5 -0.5,-0.5"/>
<text text-anchor="middle" x="26" y="-7.5" font-family="Helvetica,sans-Serif" font-size="10.00">decide.c</text>
</a>
</g>
</g>
<!-- Node1&#45;&gt;Node2 -->
<g id="edge1" class="edge"><title>Node1&#45;&gt;Node2</title>
<path fill="none" stroke="midnightblue" d="M537.594,-176.95C442.546,-176.248 194.247,-170.658 123,-132 74.0142,-105.421 40.8267,-42.7124 29.9168,-19.6807"/>
<polygon fill="midnightblue" stroke="midnightblue" points="537.861,-180.451 547.881,-177.011 537.902,-173.451 537.861,-180.451"/>
</g>
<!-- Node3 -->
<g id="node3" class="node"><title>Node3</title>
<g id="a_node3"><a xlink:href="decide_8h.html" target="_top" xlink:title="Módulo encarregue da interatividade com peças. ">
<polygon fill="white" stroke="black" points="121.5,-56.5 121.5,-75.5 174.5,-75.5 174.5,-56.5 121.5,-56.5"/>
<text text-anchor="middle" x="148" y="-63.5" font-family="Helvetica,sans-Serif" font-size="10.00">decide.h</text>
</a>
</g>
</g>
<!-- Node1&#45;&gt;Node3 -->
<g id="edge2" class="edge"><title>Node1&#45;&gt;Node3</title>
<path fill="none" stroke="midnightblue" d="M537.623,-174.781C481.304,-170.652 371.825,-159.556 283,-132 236.789,-117.664 186.463,-89.8469 162.396,-75.7064"/>
<polygon fill="midnightblue" stroke="midnightblue" points="537.61,-178.288 547.83,-175.495 538.099,-171.305 537.61,-178.288"/>
</g>
<!-- Node4 -->
<g id="node4" class="node"><title>Node4</title>
<g id="a_node4"><a xlink:href="frontend_8c.html" target="_top" xlink:title="Módulo de tratamento gráfico. ">
<polygon fill="white" stroke="black" points="232,-0.5 232,-19.5 292,-19.5 292,-0.5 232,-0.5"/>
<text text-anchor="middle" x="262" y="-7.5" font-family="Helvetica,sans-Serif" font-size="10.00">frontend.c</text>
</a>
</g>
</g>
<!-- Node1&#45;&gt;Node4 -->
<g id="edge44" class="edge"><title>Node1&#45;&gt;Node4</title>
<path fill="none" stroke="midnightblue" d="M537.716,-175.329C436.06,-169.845 158.597,-148.375 113,-76 84.4169,-30.6307 180.337,-16.8017 231.696,-12.6867"/>
<polygon fill="midnightblue" stroke="midnightblue" points="537.663,-178.83 547.83,-175.852 538.025,-171.84 537.663,-178.83"/>
</g>
<!-- Node5 -->
<g id="node5" class="node"><title>Node5</title>
<g id="a_node5"><a xlink:href="frontendTab_8c.html" target="_top" xlink:title="Módulo de tratamento gráfico, especializado ao tabuleiro. ">
<polygon fill="white" stroke="black" points="358.5,-0.5 358.5,-19.5 435.5,-19.5 435.5,-0.5 358.5,-0.5"/>
<text text-anchor="middle" x="397" y="-7.5" font-family="Helvetica,sans-Serif" font-size="10.00">frontendTab.c</text>
</a>
</g>
</g>
<!-- Node1&#45;&gt;Node5 -->
<g id="edge50" class="edge"><title>Node1&#45;&gt;Node5</title>
<path fill="none" stroke="midnightblue" d="M538.333,-167.485C516.607,-160.436 489.586,-149.054 470,-132 432.07,-98.9721 408.076,-41.2491 400.021,-19.5609"/>
<polygon fill="midnightblue" stroke="midnightblue" points="537.31,-170.832 547.896,-170.424 539.366,-164.141 537.31,-170.832"/>
</g>
<!-- Node6 -->
<g id="node6" class="node"><title>Node6</title>
<g id="a_node6"><a xlink:href="givehelp_8c.html" target="_top" xlink:title="Módulo para fornecimento de ajudas. ">
<polygon fill="white" stroke="black" points="89.5,-0.5 89.5,-19.5 150.5,-19.5 150.5,-0.5 89.5,-0.5"/>
<text text-anchor="middle" x="120" y="-7.5" font-family="Helvetica,sans-Serif" font-size="10.00">givehelp.c</text>
</a>
</g>
</g>
<!-- Node1&#45;&gt;Node6 -->
<g id="edge51" class="edge"><title>Node1&#45;&gt;Node6</title>
<path fill="none" stroke="midnightblue" d="M537.738,-176.154C448.58,-173.627 225.436,-164.181 159,-132 127.604,-116.792 117.205,-108.29 104,-76 96.0818,-56.6377 107.209,-32.3686 114.513,-19.6653"/>
<polygon fill="midnightblue" stroke="midnightblue" points="537.837,-179.658 547.927,-176.429 538.025,-172.661 537.837,-179.658"/>
</g>
<!-- Node7 -->
<g id="node7" class="node"><title>Node7</title>
<g id="a_node7"><a xlink:href="parser_8c.html" target="_top" xlink:title="Módulo de User input / Interpertador de comandos. ">
<polygon fill="white" stroke="black" points="458,-0.5 458,-19.5 510,-19.5 510,-0.5 458,-0.5"/>
<text text-anchor="middle" x="484" y="-7.5" font-family="Helvetica,sans-Serif" font-size="10.00">parser.c</text>
</a>
</g>
</g>
<!-- Node1&#45;&gt;Node7 -->
<g id="edge52" class="edge"><title>Node1&#45;&gt;Node7</title>
<path fill="none" stroke="midnightblue" d="M545.957,-164.023C514.688,-148.258 466.657,-118.409 446,-76 435.811,-55.082 458.163,-31.8282 472.729,-19.5999"/>
<polygon fill="midnightblue" stroke="midnightblue" points="544.551,-167.231 555.074,-168.461 547.615,-160.937 544.551,-167.231"/>
</g>
<!-- Node8 -->
<g id="node8" class="node"><title>Node8</title>
<g id="a_node8"><a xlink:href="state_8c.html" target="_top" xlink:title="Módulo para alterar estado. ">
<polygon fill="white" stroke="black" points="695.5,-0.5 695.5,-19.5 742.5,-19.5 742.5,-0.5 695.5,-0.5"/>
<text text-anchor="middle" x="719" y="-7.5" font-family="Helvetica,sans-Serif" font-size="10.00">state.c</text>
</a>
</g>
</g>
<!-- Node1&#45;&gt;Node8 -->
<g id="edge56" class="edge"><title>Node1&#45;&gt;Node8</title>
<path fill="none" stroke="midnightblue" d="M611.975,-169.043C656.565,-157.247 729.561,-130.389 762,-76 774.337,-55.3153 748.729,-31.9704 731.979,-19.6649"/>
<polygon fill="midnightblue" stroke="midnightblue" points="610.946,-165.693 602.105,-171.531 612.657,-172.48 610.946,-165.693"/>
</g>
<!-- Node9 -->
<g id="node9" class="node"><title>Node9</title>
<g id="a_node9"><a xlink:href="estado_8c.html" target="_top" xlink:title="Ficheiro contendo o código relativo ao módulo ESTADO. ">
<polygon fill="white" stroke="black" points="873,-0.5 873,-19.5 927,-19.5 927,-0.5 873,-0.5"/>
<text text-anchor="middle" x="900" y="-7.5" font-family="Helvetica,sans-Serif" font-size="10.00">estado.c</text>
</a>
</g>
</g>
<!-- Node1&#45;&gt;Node9 -->
<g id="edge9" class="edge"><title>Node1&#45;&gt;Node9</title>
<path fill="none" stroke="midnightblue" d="M612.473,-175.639C707.187,-171.829 954.089,-159.482 1031,-132 1073.25,-116.902 1093.83,-115.56 1115,-76 1166.8,20.7959 1161.55,-70.8447 936,-20 933.109,-19.3483 930.095,-18.6402 927.095,-17.917"/>
<polygon fill="midnightblue" stroke="midnightblue" points="612.074,-172.152 602.219,-176.042 612.349,-179.147 612.074,-172.152"/>
</g>
<!-- Node10 -->
<g id="node10" class="node"><title>Node10</title>
<g id="a_node10"><a xlink:href="frontend_8h.html" target="_top" xlink:title="Módulo de tratamento gráfico. ">
<polygon fill="white" stroke="black" points="870,-56.5 870,-75.5 930,-75.5 930,-56.5 870,-56.5"/>
<text text-anchor="middle" x="900" y="-63.5" font-family="Helvetica,sans-Serif" font-size="10.00">frontend.h</text>
</a>
</g>
</g>
<!-- Node1&#45;&gt;Node10 -->
<g id="edge10" class="edge"><title>Node1&#45;&gt;Node10</title>
<path fill="none" stroke="midnightblue" d="M612.579,-177.83C691.6,-178.685 870.839,-175.647 909,-132 922.797,-116.219 912.112,-89.5441 905.009,-75.7878"/>
<polygon fill="midnightblue" stroke="midnightblue" points="612.166,-174.324 602.12,-177.687 612.071,-181.323 612.166,-174.324"/>
</g>
<!-- Node12 -->
<g id="node12" class="node"><title>Node12</title>
<g id="a_node12"><a xlink:href="filemanager_8c.html" target="_top" xlink:title="Módulo de leitura de ficheiros. ">
<polygon fill="white" stroke="black" points="779.5,-0.5 779.5,-19.5 854.5,-19.5 854.5,-0.5 779.5,-0.5"/>
<text text-anchor="middle" x="817" y="-7.5" font-family="Helvetica,sans-Serif" font-size="10.00">filemanager.c</text>
</a>
</g>
</g>
<!-- Node1&#45;&gt;Node12 -->
<g id="edge43" class="edge"><title>Node1&#45;&gt;Node12</title>
<path fill="none" stroke="midnightblue" d="M612.566,-176.226C722.746,-173.024 1040.66,-156.814 1094,-76 1171.33,41.1543 1448.66,-121.703 864,-20 860.972,-19.4732 857.837,-18.9106 854.689,-18.3337"/>
<polygon fill="midnightblue" stroke="midnightblue" points="612.17,-172.735 602.268,-176.504 612.359,-179.733 612.17,-172.735"/>
</g>
<!-- Node13 -->
<g id="node13" class="node"><title>Node13</title>
<g id="a_node13"><a xlink:href="filemanager_8h.html" target="_top" xlink:title="Módulo de leitura de ficheiros. ">
<polygon fill="white" stroke="black" points="662.5,-56.5 662.5,-75.5 737.5,-75.5 737.5,-56.5 662.5,-56.5"/>
<text text-anchor="middle" x="700" y="-63.5" font-family="Helvetica,sans-Serif" font-size="10.00">filemanager.h</text>
</a>
</g>
</g>
<!-- Node1&#45;&gt;Node13 -->
<g id="edge18" class="edge"><title>Node1&#45;&gt;Node13</title>
<path fill="none" stroke="midnightblue" d="M592.6,-161.512C619.31,-138.007 669.194,-94.1096 690.237,-75.5914"/>
<polygon fill="midnightblue" stroke="midnightblue" points="590.003,-159.135 584.809,-168.368 594.628,-164.39 590.003,-159.135"/>
</g>
<!-- Node14 -->
<g id="node14" class="node"><title>Node14</title>
<g id="a_node14"><a xlink:href="solver_8h.html" target="_top" xlink:title="Algoritmo para resolver mapas e estruturas para obter mapas aleatórios. ">
<polygon fill="white" stroke="black" points="549.5,-112.5 549.5,-131.5 600.5,-131.5 600.5,-112.5 549.5,-112.5"/>
<text text-anchor="middle" x="575" y="-119.5" font-family="Helvetica,sans-Serif" font-size="10.00">solver.h</text>
</a>
</g>
</g>
<!-- Node1&#45;&gt;Node14 -->
<g id="edge25" class="edge"><title>Node1&#45;&gt;Node14</title>
<path fill="none" stroke="midnightblue" d="M575,-157.805C575,-148.91 575,-138.78 575,-131.751"/>
<polygon fill="midnightblue" stroke="midnightblue" points="571.5,-158.083 575,-168.083 578.5,-158.083 571.5,-158.083"/>
</g>
<!-- Node17 -->
<g id="node17" class="node"><title>Node17</title>
<g id="a_node17"><a xlink:href="state_8h.html" target="_top" xlink:title="Módulo para alterar estado. ">
<polygon fill="white" stroke="black" points="463.5,-56.5 463.5,-75.5 510.5,-75.5 510.5,-56.5 463.5,-56.5"/>
<text text-anchor="middle" x="487" y="-63.5" font-family="Helvetica,sans-Serif" font-size="10.00">state.h</text>
</a>
</g>
</g>
<!-- Node1&#45;&gt;Node17 -->
<g id="edge36" class="edge"><title>Node1&#45;&gt;Node17</title>
<path fill="none" stroke="midnightblue" d="M561.618,-160.272C542.595,-136.494 508.431,-93.7889 493.873,-75.5914"/>
<polygon fill="midnightblue" stroke="midnightblue" points="559.115,-162.746 568.095,-168.368 564.581,-158.373 559.115,-162.746"/>
</g>
<!-- Node18 -->
<g id="node18" class="node"><title>Node18</title>
<g id="a_node18"><a xlink:href="givehelp_8h.html" target="_top" xlink:title="Módulo para fornecimento de ajudas. ">
<polygon fill="white" stroke="black" points="231.5,-56.5 231.5,-75.5 292.5,-75.5 292.5,-56.5 231.5,-56.5"/>
<text text-anchor="middle" x="262" y="-63.5" font-family="Helvetica,sans-Serif" font-size="10.00">givehelp.h</text>
</a>
</g>
</g>
<!-- Node1&#45;&gt;Node18 -->
<g id="edge45" class="edge"><title>Node1&#45;&gt;Node18</title>
<path fill="none" stroke="midnightblue" d="M537.734,-174.315C473.391,-169.102 344.726,-155.959 307,-132 285.45,-118.314 271.459,-90.2025 265.42,-75.8522"/>
<polygon fill="midnightblue" stroke="midnightblue" points="537.611,-177.816 547.855,-175.113 538.161,-170.838 537.611,-177.816"/>
</g>
<!-- Node19 -->
<g id="node19" class="node"><title>Node19</title>
<g id="a_node19"><a xlink:href="userfiles_8h.html" target="_top" xlink:title="Módulo para conversão entre ficheiros e ESTADO. ">
<polygon fill="white" stroke="black" points="839,-112.5 839,-131.5 901,-131.5 901,-112.5 839,-112.5"/>
<text text-anchor="middle" x="870" y="-119.5" font-family="Helvetica,sans-Serif" font-size="10.00">userfiles.h</text>
</a>
</g>
</g>
<!-- Node1&#45;&gt;Node19 -->
<g id="edge53" class="edge"><title>Node1&#45;&gt;Node19</title>
<path fill="none" stroke="midnightblue" d="M612.132,-170.547C660.992,-162.003 749.52,-146.34 825,-132 829.383,-131.167 834.002,-130.268 838.544,-129.372"/>
<polygon fill="midnightblue" stroke="midnightblue" points="611.287,-167.141 602.038,-172.309 612.491,-174.037 611.287,-167.141"/>
</g>
<!-- Node20 -->
<g id="node20" class="node"><title>Node20</title>
<g id="a_node20"><a xlink:href="userfiles_8c.html" target="_top" xlink:title="Módulo para conversão entre ficheiros e ESTADO. ">
<polygon fill="white" stroke="black" points="1024,-56.5 1024,-75.5 1086,-75.5 1086,-56.5 1024,-56.5"/>
<text text-anchor="middle" x="1055" y="-63.5" font-family="Helvetica,sans-Serif" font-size="10.00">userfiles.c</text>
</a>
</g>
</g>
<!-- Node1&#45;&gt;Node20 -->
<g id="edge57" class="edge"><title>Node1&#45;&gt;Node20</title>
<path fill="none" stroke="midnightblue" d="M612.238,-176.336C677.292,-174.278 815.264,-165.906 926,-132 970.841,-118.27 1019,-89.9157 1041.71,-75.6284"/>
<polygon fill="midnightblue" stroke="midnightblue" points="611.965,-172.842 602.068,-176.624 612.163,-179.839 611.965,-172.842"/>
</g>
<!-- Node21 -->
<g id="node21" class="node"><title>Node21</title>
<g id="a_node21"><a xlink:href="validate_8c.html" target="_top" xlink:title="Módulo das funções utilizadas para verificação do tabuleiro. ">
<polygon fill="white" stroke="black" points="1180.5,-112.5 1180.5,-131.5 1239.5,-131.5 1239.5,-112.5 1180.5,-112.5"/>
<text text-anchor="middle" x="1210" y="-119.5" font-family="Helvetica,sans-Serif" font-size="10.00">validate.c</text>
</a>
</g>
</g>
<!-- Node1&#45;&gt;Node21 -->
<g id="edge58" class="edge"><title>Node1&#45;&gt;Node21</title>
<path fill="none" stroke="midnightblue" d="M612.331,-175.788C705.923,-172.396 957.967,-161.079 1166,-132 1170.63,-131.352 1175.51,-130.514 1180.27,-129.61"/>
<polygon fill="midnightblue" stroke="midnightblue" points="612.098,-172.294 602.228,-176.145 612.345,-179.289 612.098,-172.294"/>
</g>
<!-- Node3&#45;&gt;Node2 -->
<g id="edge3" class="edge"><title>Node3&#45;&gt;Node2</title>
<path fill="none" stroke="midnightblue" d="M119.461,-52.3678C96.6137,-42.2553 65.1949,-28.3486 45.2408,-19.5164"/>
<polygon fill="midnightblue" stroke="midnightblue" points="118.108,-55.5965 128.669,-56.4435 120.941,-49.1955 118.108,-55.5965"/>
</g>
<!-- Node3&#45;&gt;Node4 -->
<g id="edge4" class="edge"><title>Node3&#45;&gt;Node4</title>
<path fill="none" stroke="midnightblue" d="M175.242,-52.096C196.54,-42.0073 225.542,-28.2697 244.021,-19.5164"/>
<polygon fill="midnightblue" stroke="midnightblue" points="173.603,-48.9995 166.064,-56.4435 176.599,-55.3257 173.603,-48.9995"/>
</g>
<!-- Node3&#45;&gt;Node5 -->
<g id="edge5" class="edge"><title>Node3&#45;&gt;Node5</title>
<path fill="none" stroke="midnightblue" d="M184.592,-57.0643C231.074,-46.984 310.932,-29.6653 358.367,-19.3783"/>
<polygon fill="midnightblue" stroke="midnightblue" points="183.678,-53.6811 174.647,-59.2211 185.162,-60.5221 183.678,-53.6811"/>
</g>
<!-- Node3&#45;&gt;Node6 -->
<g id="edge6" class="edge"><title>Node3&#45;&gt;Node6</title>
<path fill="none" stroke="midnightblue" d="M138.658,-46.9827C133.905,-37.8168 128.344,-27.0922 124.538,-19.7511"/>
<polygon fill="midnightblue" stroke="midnightblue" points="135.666,-48.8166 143.376,-56.083 141.88,-45.5943 135.666,-48.8166"/>
</g>
<!-- Node3&#45;&gt;Node7 -->
<g id="edge7" class="edge"><title>Node3&#45;&gt;Node7</title>
<path fill="none" stroke="midnightblue" d="M184.795,-60.2548C240.906,-52.8272 351.141,-37.4827 444,-20 448.477,-19.1571 453.215,-18.1732 457.805,-17.1714"/>
<polygon fill="midnightblue" stroke="midnightblue" points="184.098,-56.8162 174.64,-61.5907 185.011,-63.7565 184.098,-56.8162"/>
</g>
<!-- Node3&#45;&gt;Node8 -->
<g id="edge8" class="edge"><title>Node3&#45;&gt;Node8</title>
<path fill="none" stroke="midnightblue" d="M184.726,-60.3072C196.611,-58.8492 209.856,-57.2879 222,-56 404.001,-36.6975 624.06,-18.609 695.433,-12.875"/>
<polygon fill="midnightblue" stroke="midnightblue" points="184.187,-56.8473 174.694,-61.5526 185.049,-63.7939 184.187,-56.8473"/>
</g>
<!-- Node10&#45;&gt;Node4 -->
<g id="edge14" class="edge"><title>Node10&#45;&gt;Node4</title>
<path fill="none" stroke="midnightblue" d="M859.654,-62.0049C768.556,-55.1766 539.984,-37.6752 349,-20 330.1,-18.2508 308.914,-16.0641 292.182,-14.2841"/>
<polygon fill="midnightblue" stroke="midnightblue" points="859.584,-65.5094 869.817,-62.7652 860.106,-58.5289 859.584,-65.5094"/>
</g>
<!-- Node10&#45;&gt;Node5 -->
<g id="edge15" class="edge"><title>Node10&#45;&gt;Node5</title>
<path fill="none" stroke="midnightblue" d="M859.824,-61.9672C780.889,-55.7932 600.099,-40.587 449,-20 444.643,-19.4063 440.091,-18.7188 435.571,-17.9936"/>
<polygon fill="midnightblue" stroke="midnightblue" points="859.587,-65.4593 869.828,-62.7439 860.129,-58.4803 859.587,-65.4593"/>
</g>
<!-- Node10&#45;&gt;Node7 -->
<g id="edge16" class="edge"><title>Node10&#45;&gt;Node7</title>
<path fill="none" stroke="midnightblue" d="M859.741,-59.7741C775.055,-48.7812 580.507,-23.5274 510.066,-14.3836"/>
<polygon fill="midnightblue" stroke="midnightblue" points="859.38,-63.2565 869.747,-61.073 860.281,-56.3147 859.38,-63.2565"/>
</g>
<!-- Node10&#45;&gt;Node8 -->
<g id="edge17" class="edge"><title>Node10&#45;&gt;Node8</title>
<path fill="none" stroke="midnightblue" d="M861.637,-53.5546C825.617,-42.8085 772.876,-27.0736 742.643,-18.0537"/>
<polygon fill="midnightblue" stroke="midnightblue" points="860.737,-56.9385 871.32,-56.4435 862.738,-50.2306 860.737,-56.9385"/>
</g>
<!-- Node10&#45;&gt;Node9 -->
<g id="edge11" class="edge"><title>Node10&#45;&gt;Node9</title>
<path fill="none" stroke="midnightblue" d="M900,-45.8045C900,-36.9102 900,-26.7798 900,-19.7511"/>
<polygon fill="midnightblue" stroke="midnightblue" points="896.5,-46.083 900,-56.083 903.5,-46.083 896.5,-46.083"/>
</g>
<!-- Node11 -->
<g id="node11" class="node"><title>Node11</title>
<g id="a_node11"><a xlink:href="exemplo_8c.html" target="_top" xlink:title="Esqueleto do programa. ">
<polygon fill="white" stroke="black" points="945,-0.5 945,-19.5 1007,-19.5 1007,-0.5 945,-0.5"/>
<text text-anchor="middle" x="976" y="-7.5" font-family="Helvetica,sans-Serif" font-size="10.00">exemplo.c</text>
</a>
</g>
</g>
<!-- Node10&#45;&gt;Node11 -->
<g id="edge12" class="edge"><title>Node10&#45;&gt;Node11</title>
<path fill="none" stroke="midnightblue" d="M920.576,-50.3804C934.312,-40.6204 951.925,-28.1057 963.567,-19.8339"/>
<polygon fill="midnightblue" stroke="midnightblue" points="918.335,-47.6787 912.211,-56.324 922.39,-53.385 918.335,-47.6787"/>
</g>
<!-- Node10&#45;&gt;Node12 -->
<g id="edge13" class="edge"><title>Node10&#45;&gt;Node12</title>
<path fill="none" stroke="midnightblue" d="M877.901,-50.6221C862.738,-40.7574 843.117,-27.9919 830.302,-19.6545"/>
<polygon fill="midnightblue" stroke="midnightblue" points="876.374,-53.8042 886.665,-56.324 880.191,-47.9367 876.374,-53.8042"/>
</g>
<!-- Node13&#45;&gt;Node4 -->
<g id="edge21" class="edge"><title>Node13&#45;&gt;Node4</title>
<path fill="none" stroke="midnightblue" d="M652.203,-56.014C566.408,-43.5114 367.943,-22.2016 292.093,-14.169"/>
<polygon fill="midnightblue" stroke="midnightblue" points="651.925,-59.5113 662.333,-57.5308 652.961,-52.5885 651.925,-59.5113"/>
</g>
<!-- Node13&#45;&gt;Node5 -->
<g id="edge22" class="edge"><title>Node13&#45;&gt;Node5</title>
<path fill="none" stroke="midnightblue" d="M652.125,-55.8685C597.732,-45.9807 492.732,-27.6558 435.678,-17.7245"/>
<polygon fill="midnightblue" stroke="midnightblue" points="651.833,-59.373 662.299,-57.7285 653.092,-52.4872 651.833,-59.373"/>
</g>
<!-- Node13&#45;&gt;Node7 -->
<g id="edge23" class="edge"><title>Node13&#45;&gt;Node7</title>
<path fill="none" stroke="midnightblue" d="M655.965,-53.9912C612.174,-43.0436 546.451,-26.6128 510.252,-17.5631"/>
<polygon fill="midnightblue" stroke="midnightblue" points="655.224,-57.4136 665.774,-56.4435 656.922,-50.6226 655.224,-57.4136"/>
</g>
<!-- Node13&#45;&gt;Node8 -->
<g id="edge24" class="edge"><title>Node13&#45;&gt;Node8</title>
<path fill="none" stroke="midnightblue" d="M706.546,-46.3956C709.724,-37.362 713.393,-26.936 715.921,-19.7511"/>
<polygon fill="midnightblue" stroke="midnightblue" points="703.155,-45.4882 703.137,-56.083 709.758,-47.8116 703.155,-45.4882"/>
</g>
<!-- Node13&#45;&gt;Node9 -->
<g id="edge19" class="edge"><title>Node13&#45;&gt;Node9</title>
<path fill="none" stroke="midnightblue" d="M741.54,-53.7842C780.993,-43.1319 839.156,-27.4278 872.948,-18.3042"/>
<polygon fill="midnightblue" stroke="midnightblue" points="740.433,-50.4578 731.691,-56.4435 742.257,-57.2158 740.433,-50.4578"/>
</g>
<!-- Node13&#45;&gt;Node12 -->
<g id="edge20" class="edge"><title>Node13&#45;&gt;Node12</title>
<path fill="none" stroke="midnightblue" d="M727.664,-52.2321C749.549,-42.1312 779.497,-28.3091 798.548,-19.5164"/>
<polygon fill="midnightblue" stroke="midnightblue" points="726.152,-49.075 718.539,-56.4435 729.085,-55.4308 726.152,-49.075"/>
</g>
<!-- Node14&#45;&gt;Node4 -->
<g id="edge29" class="edge"><title>Node14&#45;&gt;Node4</title>
<path fill="none" stroke="midnightblue" d="M539.489,-119.093C454.103,-114.146 242.798,-99.6176 222,-76 206.062,-57.9017 233.003,-32.6838 249.91,-19.617"/>
<polygon fill="midnightblue" stroke="midnightblue" points="539.31,-122.589 549.493,-119.662 539.708,-115.6 539.31,-122.589"/>
</g>
<!-- Node14&#45;&gt;Node5 -->
<g id="edge30" class="edge"><title>Node14&#45;&gt;Node5</title>
<path fill="none" stroke="midnightblue" d="M539.436,-114.502C511.931,-108.154 473.952,-96.3901 446,-76 424.993,-60.6755 408.87,-33.8009 401.463,-19.8961"/>
<polygon fill="midnightblue" stroke="midnightblue" points="538.906,-117.968 549.422,-116.676 540.396,-111.128 538.906,-117.968"/>
</g>
<!-- Node14&#45;&gt;Node6 -->
<g id="edge32" class="edge"><title>Node14&#45;&gt;Node6</title>
<path fill="none" stroke="midnightblue" d="M539.177,-120.219C435.634,-117.595 141.504,-107.415 113,-76 98.9669,-60.5336 108.723,-33.721 115.32,-19.8624"/>
<polygon fill="midnightblue" stroke="midnightblue" points="539.352,-123.724 549.434,-120.47 539.523,-116.726 539.352,-123.724"/>
</g>
<!-- Node14&#45;&gt;Node7 -->
<g id="edge33" class="edge"><title>Node14&#45;&gt;Node7</title>
<path fill="none" stroke="midnightblue" d="M539.346,-118.374C511.013,-114.193 473.082,-103.455 454,-76 441.232,-57.6296 461.251,-32.9575 474.262,-19.9276"/>
<polygon fill="midnightblue" stroke="midnightblue" points="538.937,-121.85 549.298,-119.637 539.818,-114.906 538.937,-121.85"/>
</g>
<!-- Node14&#45;&gt;Node8 -->
<g id="edge35" class="edge"><title>Node14&#45;&gt;Node8</title>
<path fill="none" stroke="midnightblue" d="M610.694,-116.712C655.817,-110.472 729.612,-97.2588 746,-76 759.578,-58.3865 740.203,-32.9641 727.867,-19.7385"/>
<polygon fill="midnightblue" stroke="midnightblue" points="610.161,-113.252 600.712,-118.044 611.087,-120.19 610.161,-113.252"/>
</g>
<!-- Node14&#45;&gt;Node9 -->
<g id="edge27" class="edge"><title>Node14&#45;&gt;Node9</title>
<path fill="none" stroke="midnightblue" d="M610.644,-119.416C700.615,-115.053 931.381,-101.464 954,-76 971.538,-56.2568 937.716,-32.1425 916.089,-19.5646"/>
<polygon fill="midnightblue" stroke="midnightblue" points="610.463,-115.92 600.641,-119.891 610.795,-122.912 610.463,-115.92"/>
</g>
<!-- Node14&#45;&gt;Node12 -->
<g id="edge28" class="edge"><title>Node14&#45;&gt;Node12</title>
<path fill="none" stroke="midnightblue" d="M610.895,-119.204C698.284,-114.467 916.53,-100.296 938,-76 943.886,-69.3392 943.073,-63.2991 938,-56 927.959,-41.5527 884.724,-27.9008 852.786,-19.5025"/>
<polygon fill="midnightblue" stroke="midnightblue" points="610.467,-115.722 600.667,-119.748 610.839,-122.712 610.467,-115.722"/>
</g>
<!-- Node14&#45;&gt;Node13 -->
<g id="edge26" class="edge"><title>Node14&#45;&gt;Node13</title>
<path fill="none" stroke="midnightblue" d="M604.241,-108.368C627.65,-98.2553 659.841,-84.3486 680.286,-75.5164"/>
<polygon fill="midnightblue" stroke="midnightblue" points="602.599,-105.265 594.807,-112.444 605.375,-111.691 602.599,-105.265"/>
</g>
<!-- Node15 -->
<g id="node15" class="node"><title>Node15</title>
<g id="a_node15"><a xlink:href="gerar_8c.html" target="_top" xlink:title="Ficheiro de geração de tabuleiro aleatório. ">
<polygon fill="white" stroke="black" points="528.5,-56.5 528.5,-75.5 575.5,-75.5 575.5,-56.5 528.5,-56.5"/>
<text text-anchor="middle" x="552" y="-63.5" font-family="Helvetica,sans-Serif" font-size="10.00">gerar.c</text>
</a>
</g>
</g>
<!-- Node14&#45;&gt;Node15 -->
<g id="edge31" class="edge"><title>Node14&#45;&gt;Node15</title>
<path fill="none" stroke="midnightblue" d="M567.201,-102.69C563.325,-93.589 558.821,-83.0141 555.727,-75.7511"/>
<polygon fill="midnightblue" stroke="midnightblue" points="564.063,-104.254 571.202,-112.083 570.503,-101.511 564.063,-104.254"/>
</g>
<!-- Node16 -->
<g id="node16" class="node"><title>Node16</title>
<g id="a_node16"><a xlink:href="solver_8c.html" target="_top" xlink:title="Ficheiro dedicado à análise do espaço de soluções. ">
<polygon fill="white" stroke="black" points="593.5,-56.5 593.5,-75.5 644.5,-75.5 644.5,-56.5 593.5,-56.5"/>
<text text-anchor="middle" x="619" y="-63.5" font-family="Helvetica,sans-Serif" font-size="10.00">solver.c</text>
</a>
</g>
</g>
<!-- Node14&#45;&gt;Node16 -->
<g id="edge34" class="edge"><title>Node14&#45;&gt;Node16</title>
<path fill="none" stroke="midnightblue" d="M588.735,-104.144C596.401,-94.7357 605.633,-83.4046 611.869,-75.7511"/>
<polygon fill="midnightblue" stroke="midnightblue" points="585.869,-102.12 582.266,-112.083 591.296,-106.541 585.869,-102.12"/>
</g>
<!-- Node17&#45;&gt;Node4 -->
<g id="edge39" class="edge"><title>Node17&#45;&gt;Node4</title>
<path fill="none" stroke="midnightblue" d="M453.49,-56.9576C409.795,-46.4709 334.01,-28.2824 292.077,-18.2186"/>
<polygon fill="midnightblue" stroke="midnightblue" points="452.806,-60.3927 463.346,-59.3231 454.439,-53.586 452.806,-60.3927"/>
</g>
<!-- Node17&#45;&gt;Node5 -->
<g id="edge40" class="edge"><title>Node17&#45;&gt;Node5</title>
<path fill="none" stroke="midnightblue" d="M463.962,-51.1774C447.401,-41.2407 425.582,-28.1492 411.424,-19.6545"/>
<polygon fill="midnightblue" stroke="midnightblue" points="462.164,-54.1802 472.54,-56.324 465.766,-48.1777 462.164,-54.1802"/>
</g>
<!-- Node17&#45;&gt;Node7 -->
<g id="edge41" class="edge"><title>Node17&#45;&gt;Node7</title>
<path fill="none" stroke="midnightblue" d="M485.934,-45.8045C485.439,-36.9102 484.877,-26.7798 484.486,-19.7511"/>
<polygon fill="midnightblue" stroke="midnightblue" points="482.455,-46.2926 486.505,-56.083 489.444,-45.9042 482.455,-46.2926"/>
</g>
<!-- Node17&#45;&gt;Node8 -->
<g id="edge42" class="edge"><title>Node17&#45;&gt;Node8</title>
<path fill="none" stroke="midnightblue" d="M520.815,-55.6317C589.291,-38.4871 659.383,-23.4391 695.197,-15.93"/>
<polygon fill="midnightblue" stroke="midnightblue" points="519.569,-52.3365 510.728,-58.1759 521.281,-59.1239 519.569,-52.3365"/>
</g>
<!-- Node17&#45;&gt;Node9 -->
<g id="edge37" class="edge"><title>Node17&#45;&gt;Node9</title>
<path fill="none" stroke="midnightblue" d="M520.767,-55.947C671.816,-27.8872 714.784,-45.6621 863,-20 866.127,-19.4586 869.382,-18.8039 872.607,-18.0973"/>
<polygon fill="midnightblue" stroke="midnightblue" points="519.832,-52.5617 510.659,-57.8625 521.135,-59.4393 519.832,-52.5617"/>
</g>
<!-- Node17&#45;&gt;Node12 -->
<g id="edge38" class="edge"><title>Node17&#45;&gt;Node12</title>
<path fill="none" stroke="midnightblue" d="M520.735,-55.9761C568.658,-47.0239 710.831,-26.3134 779.41,-16.4091"/>
<polygon fill="midnightblue" stroke="midnightblue" points="519.804,-52.5929 510.684,-57.9851 521.176,-59.4571 519.804,-52.5929"/>
</g>
<!-- Node18&#45;&gt;Node4 -->
<g id="edge46" class="edge"><title>Node18&#45;&gt;Node4</title>
<path fill="none" stroke="midnightblue" d="M262,-45.8045C262,-36.9102 262,-26.7798 262,-19.7511"/>
<polygon fill="midnightblue" stroke="midnightblue" points="258.5,-46.083 262,-56.083 265.5,-46.083 258.5,-46.083"/>
</g>
<!-- Node18&#45;&gt;Node5 -->
<g id="edge47" class="edge"><title>Node18&#45;&gt;Node5</title>
<path fill="none" stroke="midnightblue" d="M292.906,-52.6377C318.24,-42.504 353.431,-28.4274 375.709,-19.5164"/>
<polygon fill="midnightblue" stroke="midnightblue" points="291.376,-49.4799 283.391,-56.4435 293.976,-55.9792 291.376,-49.4799"/>
</g>
<!-- Node18&#45;&gt;Node6 -->
<g id="edge48" class="edge"><title>Node18&#45;&gt;Node6</title>
<path fill="none" stroke="midnightblue" d="M229.845,-52.772C203.172,-42.6287 165.931,-28.4669 142.395,-19.5164"/>
<polygon fill="midnightblue" stroke="midnightblue" points="228.909,-56.1604 239.5,-56.4435 231.397,-49.6176 228.909,-56.1604"/>
</g>
<!-- Node18&#45;&gt;Node7 -->
<g id="edge49" class="edge"><title>Node18&#45;&gt;Node7</title>
<path fill="none" stroke="midnightblue" d="M302.648,-55.1126C347.871,-44.1124 419.598,-26.6654 457.888,-17.3516"/>
<polygon fill="midnightblue" stroke="midnightblue" points="301.758,-51.7271 292.868,-57.4915 303.412,-58.5288 301.758,-51.7271"/>
</g>
<!-- Node19&#45;&gt;Node7 -->
<g id="edge54" class="edge"><title>Node19&#45;&gt;Node7</title>
<path fill="none" stroke="midnightblue" d="M848.185,-106.858C824.127,-91.9212 783.804,-68.7991 746,-56 662.724,-27.8052 558.305,-16.6537 510.323,-12.7929"/>
<polygon fill="midnightblue" stroke="midnightblue" points="846.536,-109.956 856.862,-112.33 850.27,-104.035 846.536,-109.956"/>
</g>
<!-- Node19&#45;&gt;Node20 -->
<g id="edge55" class="edge"><title>Node19&#45;&gt;Node20</title>
<path fill="none" stroke="midnightblue" d="M909.166,-109.568C944.065,-99.381 994.349,-84.7034 1025.82,-75.5164"/>
<polygon fill="midnightblue" stroke="midnightblue" points="907.933,-106.282 899.314,-112.444 909.894,-113.001 907.933,-106.282"/>
</g>
</g>
</svg>
        <g id="navigator" transform="translate(0 0)" fill="#404254">
                <rect fill="#f2f5e9" fill-opacity="0.5" stroke="#606060" stroke-width=".5" x="0" y="0" width="60" height="60"/>
                <use id="zoomplus" xlink:href="#zoomPlus" x="17" y="9" onmousedown="handleZoom(evt,'in')"/>
                <use id="zoomminus" xlink:href="#zoomMin" x="42" y="9" onmousedown="handleZoom(evt,'out')"/>
                <use id="reset" xlink:href="#resetDef" x="30" y="36" onmousedown="handleReset()"/>
                <g id="arrowUp" xlink:href="#dirArrow" transform="translate(30 24)" onmousedown="handlePan(0,-1)">
                  <use xlink:href="#rim" fill="#404040">
                        <set attributeName="fill" to="#808080" begin="arrowUp.mouseover" end="arrowUp.mouseout"/>
                  </use>
                  <path fill="none" stroke="white" stroke-width="1.5" d="M0,-3.0v7 M-2.5,-0.5L0,-3.0L2.5,-0.5"/>
                </g>
                <g id="arrowRight" xlink:href="#dirArrow" transform="rotate(90) translate(36 -43)" onmousedown="handlePan(1,0)">
                  <use xlink:href="#rim" fill="#404040">
                        <set attributeName="fill" to="#808080" begin="arrowRight.mouseover" end="arrowRight.mouseout"/>
                  </use>
                  <path fill="none" stroke="white" stroke-width="1.5" d="M0,-3.0v7 M-2.5,-0.5L0,-3.0L2.5,-0.5"/>
                </g>
                <g id="arrowDown" xlink:href="#dirArrow" transform="rotate(180) translate(-30 -48)" onmousedown="handlePan(0,1)">
                  <use xlink:href="#rim" fill="#404040">
                        <set attributeName="fill" to="#808080" begin="arrowDown.mouseover" end="arrowDown.mouseout"/>
                  </use>
                  <path fill="none" stroke="white" stroke-width="1.5" d="M0,-3.0v7 M-2.5,-0.5L0,-3.0L2.5,-0.5"/>
                </g>
                <g id="arrowLeft" xlink:href="#dirArrow" transform="rotate(270) translate(-36 17)" onmousedown="handlePan(-1,0)">
                  <use xlink:href="#rim" fill="#404040">
                        <set attributeName="fill" to="#808080" begin="arrowLeft.mouseover" end="arrowLeft.mouseout"/>
                  </use>
                  <path fill="none" stroke="white" stroke-width="1.5" d="M0,-3.0v7 M-2.5,-0.5L0,-3.0L2.5,-0.5"/>
                </g>
        </g>
        <svg viewBox="0 0 15 15" width="100%" height="30px" preserveAspectRatio="xMaxYMin meet">
         <g id="arrow_out" transform="scale(0.3 0.3)">
          <a xlink:href="estado_8h__dep__incl_org.svg" target="_base">
           <rect id="button" ry="5" rx="5" y="6" x="6" height="38" width="38"
                fill="#f2f5e9" fill-opacity="0.5" stroke="#606060" stroke-width="1.0"/>
           <path id="arrow"
             d="M 11.500037,31.436501 C 11.940474,20.09759 22.043105,11.32322 32.158766,21.979434 L 37.068811,17.246167 C 37.068811,17.246167 37.088388,32 37.088388,32 L 22.160133,31.978069 C 22.160133,31.978069 26.997745,27.140456 26.997745,27.140456 C 18.528582,18.264221 13.291696,25.230495 11.500037,31.436501 z"
             style="fill:#404040;"/>
          </a>
         </g>
        </svg>
</svg>
