<?xml version="1.0" encoding="UTF-8" standalone="no"?>
<!DOCTYPE svg PUBLIC "-//W3C//DTD SVG 1.1//EN"
 "http://www.w3.org/Graphics/SVG/1.1/DTD/svg11.dtd">
<!-- Generated by graphviz version 2.36.0 (20140111.2315)
 -->
<!-- Title: estado.c Pages: 1 -->
<svg width="545pt" height="252pt"
 viewBox="0.00 0.00 545.00 252.00" xmlns="http://www.w3.org/2000/svg" xmlns:xlink="http://www.w3.org/1999/xlink">
<g id="graph0" class="graph" transform="scale(1 1) rotate(0) translate(4 248)">
<title>estado.c</title>
<polygon fill="white" stroke="none" points="-4,4 -4,-248 541,-248 541,4 -4,4"/>
<!-- Node1 -->
<g id="node1" class="node"><title>Node1</title>
<polygon fill="#bfbfbf" stroke="black" points="254,-224.5 254,-243.5 308,-243.5 308,-224.5 254,-224.5"/>
<text text-anchor="middle" x="281" y="-231.5" font-family="Helvetica,sans-Serif" font-size="10.00">estado.c</text>
</g>
<!-- Node2 -->
<g id="node2" class="node"><title>Node2</title>
<polygon fill="white" stroke="#bfbfbf" points="0,-168.5 0,-187.5 48,-187.5 48,-168.5 0,-168.5"/>
<text text-anchor="middle" x="24" y="-175.5" font-family="Helvetica,sans-Serif" font-size="10.00">stdlib.h</text>
</g>
<!-- Node1&#45;&gt;Node2 -->
<g id="edge1" class="edge"><title>Node1&#45;&gt;Node2</title>
<path fill="none" stroke="midnightblue" d="M253.973,-227.717C212.567,-219.562 130.978,-203.252 62,-188 60.734,-187.72 59.445,-187.432 58.1436,-187.138"/>
<polygon fill="midnightblue" stroke="midnightblue" points="58.6285,-183.658 48.0979,-184.822 57.056,-190.479 58.6285,-183.658"/>
</g>
<!-- Node3 -->
<g id="node3" class="node"><title>Node3</title>
<polygon fill="white" stroke="#bfbfbf" points="103,-56.5 103,-75.5 149,-75.5 149,-56.5 103,-56.5"/>
<text text-anchor="middle" x="126" y="-63.5" font-family="Helvetica,sans-Serif" font-size="10.00">stdio.h</text>
</g>
<!-- Node1&#45;&gt;Node3 -->
<g id="edge2" class="edge"><title>Node1&#45;&gt;Node3</title>
<path fill="none" stroke="midnightblue" d="M253.953,-230.453C207.425,-225.451 115.353,-212.624 96,-188 71.8084,-157.219 96.7832,-109.524 113.521,-84.1864"/>
<polygon fill="midnightblue" stroke="midnightblue" points="116.611,-85.8701 119.413,-75.6523 110.851,-81.8931 116.611,-85.8701"/>
</g>
<!-- Node4 -->
<g id="node4" class="node"><title>Node4</title>
<polygon fill="white" stroke="#bfbfbf" points="104.5,-168.5 104.5,-187.5 153.5,-187.5 153.5,-168.5 104.5,-168.5"/>
<text text-anchor="middle" x="129" y="-175.5" font-family="Helvetica,sans-Serif" font-size="10.00">string.h</text>
</g>
<!-- Node1&#45;&gt;Node4 -->
<g id="edge3" class="edge"><title>Node1&#45;&gt;Node4</title>
<path fill="none" stroke="midnightblue" d="M256.915,-224.444C231.455,-215.399 191.106,-201.064 162.541,-190.916"/>
<polygon fill="midnightblue" stroke="midnightblue" points="163.567,-187.566 152.972,-187.516 161.223,-194.162 163.567,-187.566"/>
</g>
<!-- Node5 -->
<g id="node5" class="node"><title>Node5</title>
<g id="a_node5"><a xlink:href="estado_8h.html" target="_top" xlink:title="Ficheiro header contendo os dados relativos ao módulo ESTADO. ">
<polygon fill="white" stroke="black" points="317,-56.5 317,-75.5 371,-75.5 371,-56.5 317,-56.5"/>
<text text-anchor="middle" x="344" y="-63.5" font-family="Helvetica,sans-Serif" font-size="10.00">estado.h</text>
</a>
</g>
</g>
<!-- Node1&#45;&gt;Node5 -->
<g id="edge4" class="edge"><title>Node1&#45;&gt;Node5</title>
<path fill="none" stroke="midnightblue" d="M294.178,-224.374C316.309,-208.976 360.082,-174.365 376,-132 382.46,-114.808 371.14,-96.0811 360.221,-83.1638"/>
<polygon fill="midnightblue" stroke="midnightblue" points="362.626,-80.6069 353.295,-75.5886 357.46,-85.3305 362.626,-80.6069"/>
</g>
<!-- Node7 -->
<g id="node7" class="node"><title>Node7</title>
<g id="a_node7"><a xlink:href="cgi_8h.html" target="_top" xlink:title="Macros úteis para gerar CGIs. ">
<polygon fill="white" stroke="black" points="157,-112.5 157,-131.5 195,-131.5 195,-112.5 157,-112.5"/>
<text text-anchor="middle" x="176" y="-119.5" font-family="Helvetica,sans-Serif" font-size="10.00">cgi.h</text>
</a>
</g>
</g>
<!-- Node1&#45;&gt;Node7 -->
<g id="edge6" class="edge"><title>Node1&#45;&gt;Node7</title>
<path fill="none" stroke="midnightblue" d="M257.079,-224.384C239.741,-217.065 216.828,-205.018 202,-188 190.407,-174.696 183.601,-155.575 179.881,-141.515"/>
<polygon fill="midnightblue" stroke="midnightblue" points="183.229,-140.461 177.527,-131.532 176.416,-142.068 183.229,-140.461"/>
</g>
<!-- Node8 -->
<g id="node8" class="node"><title>Node8</title>
<g id="a_node8"><a xlink:href="frontend_8h.html" target="_top" xlink:title="Módulo de tratamento gráfico. ">
<polygon fill="white" stroke="black" points="424,-112.5 424,-131.5 484,-131.5 484,-112.5 424,-112.5"/>
<text text-anchor="middle" x="454" y="-119.5" font-family="Helvetica,sans-Serif" font-size="10.00">frontend.h</text>
</a>
</g>
</g>
<!-- Node1&#45;&gt;Node8 -->
<g id="edge8" class="edge"><title>Node1&#45;&gt;Node8</title>
<path fill="none" stroke="midnightblue" d="M308.086,-228.73C335.975,-223.225 379.543,-211.428 410,-188 426.148,-175.579 438.441,-155.498 445.875,-140.939"/>
<polygon fill="midnightblue" stroke="midnightblue" points="449.041,-142.432 450.233,-131.905 442.736,-139.391 449.041,-142.432"/>
</g>
<!-- Node9 -->
<g id="node9" class="node"><title>Node9</title>
<g id="a_node9"><a xlink:href="filemanager_8h.html" target="_top" xlink:title="Módulo de leitura de ficheiros. ">
<polygon fill="white" stroke="black" points="210.5,-168.5 210.5,-187.5 285.5,-187.5 285.5,-168.5 210.5,-168.5"/>
<text text-anchor="middle" x="248" y="-175.5" font-family="Helvetica,sans-Serif" font-size="10.00">filemanager.h</text>
</a>
</g>
</g>
<!-- Node1&#45;&gt;Node9 -->
<g id="edge10" class="edge"><title>Node1&#45;&gt;Node9</title>
<path fill="none" stroke="midnightblue" d="M275.551,-224.083C270.986,-216.613 264.332,-205.724 258.707,-196.52"/>
<polygon fill="midnightblue" stroke="midnightblue" points="261.549,-194.459 253.348,-187.751 255.576,-198.109 261.549,-194.459"/>
</g>
<!-- Node10 -->
<g id="node10" class="node"><title>Node10</title>
<g id="a_node10"><a xlink:href="solver_8h.html" target="_top" xlink:title="Algoritmo para resolver mapas e estruturas para obter mapas aleatórios. ">
<polygon fill="white" stroke="black" points="251.5,-112.5 251.5,-131.5 302.5,-131.5 302.5,-112.5 251.5,-112.5"/>
<text text-anchor="middle" x="277" y="-119.5" font-family="Helvetica,sans-Serif" font-size="10.00">solver.h</text>
</a>
</g>
</g>
<!-- Node1&#45;&gt;Node10 -->
<g id="edge17" class="edge"><title>Node1&#45;&gt;Node10</title>
<path fill="none" stroke="midnightblue" d="M284.91,-224.187C289.957,-211.705 297.679,-188.151 294,-168 292.312,-158.757 288.825,-148.948 285.446,-140.855"/>
<polygon fill="midnightblue" stroke="midnightblue" points="288.631,-139.405 281.366,-131.693 282.237,-142.252 288.631,-139.405"/>
</g>
<!-- Node11 -->
<g id="node11" class="node"><title>Node11</title>
<g id="a_node11"><a xlink:href="state_8h.html" target="_top" xlink:title="Módulo para alterar estado. ">
<polygon fill="white" stroke="black" points="320.5,-112.5 320.5,-131.5 367.5,-131.5 367.5,-112.5 320.5,-112.5"/>
<text text-anchor="middle" x="344" y="-119.5" font-family="Helvetica,sans-Serif" font-size="10.00">state.h</text>
</a>
</g>
</g>
<!-- Node1&#45;&gt;Node11 -->
<g id="edge15" class="edge"><title>Node1&#45;&gt;Node11</title>
<path fill="none" stroke="midnightblue" d="M286.265,-224.426C291.773,-215.41 300.627,-200.786 308,-188 317.141,-172.149 327.204,-153.908 334.362,-140.792"/>
<polygon fill="midnightblue" stroke="midnightblue" points="337.503,-142.343 339.205,-131.886 331.353,-138.999 337.503,-142.343"/>
</g>
<!-- Node12 -->
<g id="node12" class="node"><title>Node12</title>
<g id="a_node12"><a xlink:href="leaderboard_8h.html" target="_top" xlink:title="Módulo de obtenção da leaderboard. ">
<polygon fill="white" stroke="black" points="462.5,-168.5 462.5,-187.5 537.5,-187.5 537.5,-168.5 462.5,-168.5"/>
<text text-anchor="middle" x="500" y="-175.5" font-family="Helvetica,sans-Serif" font-size="10.00">leaderboard.h</text>
</a>
</g>
</g>
<!-- Node1&#45;&gt;Node12 -->
<g id="edge18" class="edge"><title>Node1&#45;&gt;Node12</title>
<path fill="none" stroke="midnightblue" d="M308.294,-226.27C345.206,-217.168 411.489,-200.825 455.616,-189.944"/>
<polygon fill="midnightblue" stroke="midnightblue" points="456.629,-193.299 465.5,-187.507 454.953,-186.503 456.629,-193.299"/>
</g>
<!-- Node6 -->
<g id="node6" class="node"><title>Node6</title>
<g id="a_node6"><a xlink:href="stack_8h.html" target="_top" xlink:title="Módulo para operar sobre STACK. ">
<polygon fill="white" stroke="black" points="319.5,-0.5 319.5,-19.5 368.5,-19.5 368.5,-0.5 319.5,-0.5"/>
<text text-anchor="middle" x="344" y="-7.5" font-family="Helvetica,sans-Serif" font-size="10.00">stack.h</text>
</a>
</g>
</g>
<!-- Node5&#45;&gt;Node6 -->
<g id="edge5" class="edge"><title>Node5&#45;&gt;Node6</title>
<path fill="none" stroke="midnightblue" d="M344,-56.083C344,-49.0059 344,-38.8611 344,-29.9865"/>
<polygon fill="midnightblue" stroke="midnightblue" points="347.5,-29.751 344,-19.7511 340.5,-29.7511 347.5,-29.751"/>
</g>
<!-- Node7&#45;&gt;Node3 -->
<g id="edge7" class="edge"><title>Node7&#45;&gt;Node3</title>
<path fill="none" stroke="midnightblue" d="M167.744,-112.083C160.535,-104.298 149.89,-92.8015 141.154,-83.3665"/>
<polygon fill="midnightblue" stroke="midnightblue" points="143.465,-80.7108 134.103,-75.7511 138.329,-85.4666 143.465,-80.7108"/>
</g>
<!-- Node8&#45;&gt;Node5 -->
<g id="edge9" class="edge"><title>Node8&#45;&gt;Node5</title>
<path fill="none" stroke="midnightblue" d="M436.327,-112.324C418.606,-103.625 391.097,-90.1202 370.712,-80.113"/>
<polygon fill="midnightblue" stroke="midnightblue" points="372.149,-76.9195 361.63,-75.6545 369.064,-83.2031 372.149,-76.9195"/>
</g>
<!-- Node9&#45;&gt;Node5 -->
<g id="edge11" class="edge"><title>Node9&#45;&gt;Node5</title>
<path fill="none" stroke="midnightblue" d="M244.176,-168.177C239.043,-154.841 231.783,-129.277 243,-112 257.05,-90.3582 284.19,-79.037 306.801,-73.1648"/>
<polygon fill="midnightblue" stroke="midnightblue" points="307.863,-76.5112 316.807,-70.8327 306.274,-69.6939 307.863,-76.5112"/>
</g>
<!-- Node9&#45;&gt;Node7 -->
<g id="edge14" class="edge"><title>Node9&#45;&gt;Node7</title>
<path fill="none" stroke="midnightblue" d="M236.432,-168.324C225.58,-160.185 209.119,-147.839 196.117,-138.087"/>
<polygon fill="midnightblue" stroke="midnightblue" points="197.879,-135.034 187.779,-131.834 193.679,-140.634 197.879,-135.034"/>
</g>
<!-- Node9&#45;&gt;Node10 -->
<g id="edge12" class="edge"><title>Node9&#45;&gt;Node10</title>
<path fill="none" stroke="midnightblue" d="M252.789,-168.083C256.758,-160.691 262.525,-149.953 267.435,-140.811"/>
<polygon fill="midnightblue" stroke="midnightblue" points="270.653,-142.217 272.3,-131.751 264.486,-138.905 270.653,-142.217"/>
</g>
<!-- Node10&#45;&gt;Node5 -->
<g id="edge13" class="edge"><title>Node10&#45;&gt;Node5</title>
<path fill="none" stroke="midnightblue" d="M287.765,-112.324C297.766,-104.263 312.887,-92.0765 324.93,-82.3695"/>
<polygon fill="midnightblue" stroke="midnightblue" points="327.45,-84.8343 333.039,-75.8339 323.057,-79.3841 327.45,-84.8343"/>
</g>
<!-- Node11&#45;&gt;Node5 -->
<g id="edge16" class="edge"><title>Node11&#45;&gt;Node5</title>
<path fill="none" stroke="midnightblue" d="M344,-112.083C344,-105.006 344,-94.8611 344,-85.9865"/>
<polygon fill="midnightblue" stroke="midnightblue" points="347.5,-85.751 344,-75.7511 340.5,-85.7511 347.5,-85.751"/>
</g>
</g>
</svg>
