<?xml version="1.0" encoding="UTF-8" standalone="no"?>
<!DOCTYPE svg PUBLIC "-//W3C//DTD SVG 1.1//EN"
 "http://www.w3.org/Graphics/SVG/1.1/DTD/svg11.dtd">
<!-- Generated by graphviz version 2.36.0 (20140111.2315)
 -->
<!-- Title: filemanager.h Pages: 1 -->
<svg width="151pt" height="196pt"
 viewBox="0.00 0.00 151.00 196.00" xmlns="http://www.w3.org/2000/svg" xmlns:xlink="http://www.w3.org/1999/xlink">
<g id="graph0" class="graph" transform="scale(1 1) rotate(0) translate(4 192)">
<title>filemanager.h</title>
<polygon fill="white" stroke="none" points="-4,4 -4,-192 147,-192 147,4 -4,4"/>
<!-- Node1 -->
<g id="node1" class="node"><title>Node1</title>
<polygon fill="#bfbfbf" stroke="black" points="19.5,-168.5 19.5,-187.5 94.5,-187.5 94.5,-168.5 19.5,-168.5"/>
<text text-anchor="middle" x="57" y="-175.5" font-family="Helvetica,sans-Serif" font-size="10.00">filemanager.h</text>
</g>
<!-- Node2 -->
<g id="node2" class="node"><title>Node2</title>
<g id="a_node2"><a xlink:href="estado_8h.html" target="_top" xlink:title="Ficheiro header contendo os dados relativos ao módulo ESTADO. ">
<polygon fill="white" stroke="black" points="0,-56.5 0,-75.5 54,-75.5 54,-56.5 0,-56.5"/>
<text text-anchor="middle" x="27" y="-63.5" font-family="Helvetica,sans-Serif" font-size="10.00">estado.h</text>
</a>
</g>
</g>
<!-- Node1&#45;&gt;Node2 -->
<g id="edge1" class="edge"><title>Node1&#45;&gt;Node2</title>
<path fill="none" stroke="midnightblue" d="M47.7121,-168.395C39.4193,-160.025 27.8561,-146.483 23,-132 17.9455,-116.926 19.651,-98.7988 22.215,-85.5217"/>
<polygon fill="midnightblue" stroke="midnightblue" points="25.6479,-86.209 24.4411,-75.6831 18.8205,-84.6642 25.6479,-86.209"/>
</g>
<!-- Node4 -->
<g id="node4" class="node"><title>Node4</title>
<g id="a_node4"><a xlink:href="solver_8h.html" target="_top" xlink:title="Algoritmo para resolver mapas e estruturas para obter mapas aleatórios. ">
<polygon fill="white" stroke="black" points="31.5,-112.5 31.5,-131.5 82.5,-131.5 82.5,-112.5 31.5,-112.5"/>
<text text-anchor="middle" x="57" y="-119.5" font-family="Helvetica,sans-Serif" font-size="10.00">solver.h</text>
</a>
</g>
</g>
<!-- Node1&#45;&gt;Node4 -->
<g id="edge3" class="edge"><title>Node1&#45;&gt;Node4</title>
<path fill="none" stroke="midnightblue" d="M57,-168.083C57,-161.006 57,-150.861 57,-141.986"/>
<polygon fill="midnightblue" stroke="midnightblue" points="60.5001,-141.751 57,-131.751 53.5001,-141.751 60.5001,-141.751"/>
</g>
<!-- Node5 -->
<g id="node5" class="node"><title>Node5</title>
<g id="a_node5"><a xlink:href="cgi_8h.html" target="_top" xlink:title="Macros úteis para gerar CGIs. ">
<polygon fill="white" stroke="black" points="101,-112.5 101,-131.5 139,-131.5 139,-112.5 101,-112.5"/>
<text text-anchor="middle" x="120" y="-119.5" font-family="Helvetica,sans-Serif" font-size="10.00">cgi.h</text>
</a>
</g>
</g>
<!-- Node1&#45;&gt;Node5 -->
<g id="edge5" class="edge"><title>Node1&#45;&gt;Node5</title>
<path fill="none" stroke="midnightblue" d="M67.122,-168.324C76.5264,-160.263 90.7441,-148.077 102.069,-138.369"/>
<polygon fill="midnightblue" stroke="midnightblue" points="104.379,-140.999 109.694,-131.834 99.8234,-135.684 104.379,-140.999"/>
</g>
<!-- Node3 -->
<g id="node3" class="node"><title>Node3</title>
<g id="a_node3"><a xlink:href="stack_8h.html" target="_top" xlink:title="Módulo para operar sobre STACK. ">
<polygon fill="white" stroke="black" points="2.5,-0.5 2.5,-19.5 51.5,-19.5 51.5,-0.5 2.5,-0.5"/>
<text text-anchor="middle" x="27" y="-7.5" font-family="Helvetica,sans-Serif" font-size="10.00">stack.h</text>
</a>
</g>
</g>
<!-- Node2&#45;&gt;Node3 -->
<g id="edge2" class="edge"><title>Node2&#45;&gt;Node3</title>
<path fill="none" stroke="midnightblue" d="M27,-56.083C27,-49.0059 27,-38.8611 27,-29.9865"/>
<polygon fill="midnightblue" stroke="midnightblue" points="30.5001,-29.751 27,-19.7511 23.5001,-29.7511 30.5001,-29.751"/>
</g>
<!-- Node4&#45;&gt;Node2 -->
<g id="edge4" class="edge"><title>Node4&#45;&gt;Node2</title>
<path fill="none" stroke="midnightblue" d="M52.0461,-112.083C47.8959,-104.613 41.8469,-93.7244 36.7333,-84.5199"/>
<polygon fill="midnightblue" stroke="midnightblue" points="39.7777,-82.7929 31.8617,-75.7511 33.6586,-86.1924 39.7777,-82.7929"/>
</g>
<!-- Node6 -->
<g id="node6" class="node"><title>Node6</title>
<polygon fill="white" stroke="#bfbfbf" points="97,-56.5 97,-75.5 143,-75.5 143,-56.5 97,-56.5"/>
<text text-anchor="middle" x="120" y="-63.5" font-family="Helvetica,sans-Serif" font-size="10.00">stdio.h</text>
</g>
<!-- Node5&#45;&gt;Node6 -->
<g id="edge6" class="edge"><title>Node5&#45;&gt;Node6</title>
<path fill="none" stroke="midnightblue" d="M120,-112.083C120,-105.006 120,-94.8611 120,-85.9865"/>
<polygon fill="midnightblue" stroke="midnightblue" points="123.5,-85.751 120,-75.7511 116.5,-85.7511 123.5,-85.751"/>
</g>
</g>
</svg>
