<?xml version="1.0" encoding="UTF-8" standalone="no"?>
<!DOCTYPE svg PUBLIC "-//W3C//DTD SVG 1.1//EN"
 "http://www.w3.org/Graphics/SVG/1.1/DTD/svg11.dtd">
<!-- Generated by graphviz version 2.36.0 (20140111.2315)
 -->
<!-- Title: filemanager.c Pages: 1 -->
<svg width="434pt" height="252pt"
 viewBox="0.00 0.00 434.00 252.00" xmlns="http://www.w3.org/2000/svg" xmlns:xlink="http://www.w3.org/1999/xlink">
<g id="graph0" class="graph" transform="scale(1 1) rotate(0) translate(4 248)">
<title>filemanager.c</title>
<polygon fill="white" stroke="none" points="-4,4 -4,-248 430,-248 430,4 -4,4"/>
<!-- Node1 -->
<g id="node1" class="node"><title>Node1</title>
<polygon fill="#bfbfbf" stroke="black" points="163.5,-224.5 163.5,-243.5 238.5,-243.5 238.5,-224.5 163.5,-224.5"/>
<text text-anchor="middle" x="201" y="-231.5" font-family="Helvetica,sans-Serif" font-size="10.00">filemanager.c</text>
</g>
<!-- Node2 -->
<g id="node2" class="node"><title>Node2</title>
<polygon fill="white" stroke="#bfbfbf" points="0,-168.5 0,-187.5 48,-187.5 48,-168.5 0,-168.5"/>
<text text-anchor="middle" x="24" y="-175.5" font-family="Helvetica,sans-Serif" font-size="10.00">stdlib.h</text>
</g>
<!-- Node1&#45;&gt;Node2 -->
<g id="edge1" class="edge"><title>Node1&#45;&gt;Node2</title>
<path fill="none" stroke="midnightblue" d="M172.954,-224.444C141.77,-214.93 91.4033,-199.564 57.9996,-189.373"/>
<polygon fill="midnightblue" stroke="midnightblue" points="58.8037,-185.959 48.2176,-186.388 56.761,-192.654 58.8037,-185.959"/>
</g>
<!-- Node3 -->
<g id="node3" class="node"><title>Node3</title>
<polygon fill="white" stroke="#bfbfbf" points="66.5,-168.5 66.5,-187.5 115.5,-187.5 115.5,-168.5 66.5,-168.5"/>
<text text-anchor="middle" x="91" y="-175.5" font-family="Helvetica,sans-Serif" font-size="10.00">string.h</text>
</g>
<!-- Node1&#45;&gt;Node3 -->
<g id="edge2" class="edge"><title>Node1&#45;&gt;Node3</title>
<path fill="none" stroke="midnightblue" d="M183.327,-224.324C165.606,-215.625 138.097,-202.12 117.712,-192.113"/>
<polygon fill="midnightblue" stroke="midnightblue" points="119.149,-188.919 108.63,-187.655 116.064,-195.203 119.149,-188.919"/>
</g>
<!-- Node4 -->
<g id="node4" class="node"><title>Node4</title>
<g id="a_node4"><a xlink:href="solver_8h.html" target="_top" xlink:title="Algoritmo para resolver mapas e estruturas para obter mapas aleatórios. ">
<polygon fill="white" stroke="black" points="210.5,-112.5 210.5,-131.5 261.5,-131.5 261.5,-112.5 210.5,-112.5"/>
<text text-anchor="middle" x="236" y="-119.5" font-family="Helvetica,sans-Serif" font-size="10.00">solver.h</text>
</a>
</g>
</g>
<!-- Node1&#45;&gt;Node4 -->
<g id="edge3" class="edge"><title>Node1&#45;&gt;Node4</title>
<path fill="none" stroke="midnightblue" d="M203.746,-224.368C209.42,-206.537 222.542,-165.295 230.186,-141.272"/>
<polygon fill="midnightblue" stroke="midnightblue" points="233.57,-142.182 233.266,-131.591 226.899,-140.059 233.57,-142.182"/>
</g>
<!-- Node5 -->
<g id="node5" class="node"><title>Node5</title>
<g id="a_node5"><a xlink:href="estado_8h.html" target="_top" xlink:title="Ficheiro header contendo os dados relativos ao módulo ESTADO. ">
<polygon fill="white" stroke="black" points="209,-56.5 209,-75.5 263,-75.5 263,-56.5 209,-56.5"/>
<text text-anchor="middle" x="236" y="-63.5" font-family="Helvetica,sans-Serif" font-size="10.00">estado.h</text>
</a>
</g>
</g>
<!-- Node1&#45;&gt;Node5 -->
<g id="edge11" class="edge"><title>Node1&#45;&gt;Node5</title>
<path fill="none" stroke="midnightblue" d="M199.292,-224.483C195.616,-204.287 188.343,-152.178 202,-112 205.649,-101.266 212.951,-91.0368 219.857,-83.0512"/>
<polygon fill="midnightblue" stroke="midnightblue" points="222.516,-85.3311 226.739,-75.6146 217.378,-80.5765 222.516,-85.3311"/>
</g>
<!-- Node7 -->
<g id="node7" class="node"><title>Node7</title>
<g id="a_node7"><a xlink:href="filemanager_8h.html" target="_top" xlink:title="Módulo de leitura de ficheiros. ">
<polygon fill="white" stroke="black" points="248.5,-168.5 248.5,-187.5 323.5,-187.5 323.5,-168.5 248.5,-168.5"/>
<text text-anchor="middle" x="286" y="-175.5" font-family="Helvetica,sans-Serif" font-size="10.00">filemanager.h</text>
</a>
</g>
</g>
<!-- Node1&#45;&gt;Node7 -->
<g id="edge6" class="edge"><title>Node1&#45;&gt;Node7</title>
<path fill="none" stroke="midnightblue" d="M214.657,-224.324C227.916,-215.9 248.268,-202.971 263.846,-193.074"/>
<polygon fill="midnightblue" stroke="midnightblue" points="265.813,-195.971 272.377,-187.655 262.06,-190.063 265.813,-195.971"/>
</g>
<!-- Node8 -->
<g id="node8" class="node"><title>Node8</title>
<g id="a_node8"><a xlink:href="cgi_8h.html" target="_top" xlink:title="Macros úteis para gerar CGIs. ">
<polygon fill="white" stroke="black" points="384,-112.5 384,-131.5 422,-131.5 422,-112.5 384,-112.5"/>
<text text-anchor="middle" x="403" y="-119.5" font-family="Helvetica,sans-Serif" font-size="10.00">cgi.h</text>
</a>
</g>
</g>
<!-- Node1&#45;&gt;Node8 -->
<g id="edge12" class="edge"><title>Node1&#45;&gt;Node8</title>
<path fill="none" stroke="midnightblue" d="M238.525,-227.957C270.348,-222.279 316.095,-210.702 350,-188 368.46,-175.639 383.742,-154.923 393.077,-140.202"/>
<polygon fill="midnightblue" stroke="midnightblue" points="396.136,-141.908 398.327,-131.542 390.15,-138.28 396.136,-141.908"/>
</g>
<!-- Node10 -->
<g id="node10" class="node"><title>Node10</title>
<g id="a_node10"><a xlink:href="frontend_8h.html" target="_top" xlink:title="Módulo de tratamento gráfico. ">
<polygon fill="white" stroke="black" points="94,-112.5 94,-131.5 154,-131.5 154,-112.5 94,-112.5"/>
<text text-anchor="middle" x="124" y="-119.5" font-family="Helvetica,sans-Serif" font-size="10.00">frontend.h</text>
</a>
</g>
</g>
<!-- Node1&#45;&gt;Node10 -->
<g id="edge13" class="edge"><title>Node1&#45;&gt;Node10</title>
<path fill="none" stroke="midnightblue" d="M194.577,-224.443C187.855,-215.442 177.041,-200.829 168,-188 156.756,-172.045 144.32,-153.596 135.546,-140.438"/>
<polygon fill="midnightblue" stroke="midnightblue" points="138.324,-138.295 129.873,-131.904 132.494,-142.169 138.324,-138.295"/>
</g>
<!-- Node11 -->
<g id="node11" class="node"><title>Node11</title>
<g id="a_node11"><a xlink:href="state_8h.html" target="_top" xlink:title="Módulo para alterar estado. ">
<polygon fill="white" stroke="black" points="318.5,-112.5 318.5,-131.5 365.5,-131.5 365.5,-112.5 318.5,-112.5"/>
<text text-anchor="middle" x="342" y="-119.5" font-family="Helvetica,sans-Serif" font-size="10.00">state.h</text>
</a>
</g>
</g>
<!-- Node1&#45;&gt;Node11 -->
<g id="edge15" class="edge"><title>Node1&#45;&gt;Node11</title>
<path fill="none" stroke="midnightblue" d="M238.783,-230.353C268.684,-226.152 309.096,-215.398 332,-188 342.632,-175.282 344.421,-156.083 343.977,-141.844"/>
<polygon fill="midnightblue" stroke="midnightblue" points="347.458,-141.44 343.269,-131.708 340.475,-141.927 347.458,-141.44"/>
</g>
<!-- Node4&#45;&gt;Node5 -->
<g id="edge4" class="edge"><title>Node4&#45;&gt;Node5</title>
<path fill="none" stroke="midnightblue" d="M236,-112.083C236,-105.006 236,-94.8611 236,-85.9865"/>
<polygon fill="midnightblue" stroke="midnightblue" points="239.5,-85.751 236,-75.7511 232.5,-85.7511 239.5,-85.751"/>
</g>
<!-- Node6 -->
<g id="node6" class="node"><title>Node6</title>
<g id="a_node6"><a xlink:href="stack_8h.html" target="_top" xlink:title="Módulo para operar sobre STACK. ">
<polygon fill="white" stroke="black" points="211.5,-0.5 211.5,-19.5 260.5,-19.5 260.5,-0.5 211.5,-0.5"/>
<text text-anchor="middle" x="236" y="-7.5" font-family="Helvetica,sans-Serif" font-size="10.00">stack.h</text>
</a>
</g>
</g>
<!-- Node5&#45;&gt;Node6 -->
<g id="edge5" class="edge"><title>Node5&#45;&gt;Node6</title>
<path fill="none" stroke="midnightblue" d="M236,-56.083C236,-49.0059 236,-38.8611 236,-29.9865"/>
<polygon fill="midnightblue" stroke="midnightblue" points="239.5,-29.751 236,-19.7511 232.5,-29.7511 239.5,-29.751"/>
</g>
<!-- Node7&#45;&gt;Node4 -->
<g id="edge8" class="edge"><title>Node7&#45;&gt;Node4</title>
<path fill="none" stroke="midnightblue" d="M277.744,-168.083C270.535,-160.298 259.89,-148.801 251.154,-139.367"/>
<polygon fill="midnightblue" stroke="midnightblue" points="253.465,-136.711 244.103,-131.751 248.329,-141.467 253.465,-136.711"/>
</g>
<!-- Node7&#45;&gt;Node5 -->
<g id="edge7" class="edge"><title>Node7&#45;&gt;Node5</title>
<path fill="none" stroke="midnightblue" d="M284.984,-168.209C283.248,-155.35 278.99,-130.889 270,-112 265.066,-101.632 257.518,-91.3203 250.786,-83.1888"/>
<polygon fill="midnightblue" stroke="midnightblue" points="253.402,-80.8626 244.21,-75.5932 248.109,-85.4444 253.402,-80.8626"/>
</g>
<!-- Node7&#45;&gt;Node8 -->
<g id="edge9" class="edge"><title>Node7&#45;&gt;Node8</title>
<path fill="none" stroke="midnightblue" d="M304.539,-168.444C323.623,-159.636 353.575,-145.812 375.436,-135.722"/>
<polygon fill="midnightblue" stroke="midnightblue" points="376.935,-138.885 384.548,-131.516 374.001,-132.529 376.935,-138.885"/>
</g>
<!-- Node9 -->
<g id="node9" class="node"><title>Node9</title>
<polygon fill="white" stroke="#bfbfbf" points="380,-56.5 380,-75.5 426,-75.5 426,-56.5 380,-56.5"/>
<text text-anchor="middle" x="403" y="-63.5" font-family="Helvetica,sans-Serif" font-size="10.00">stdio.h</text>
</g>
<!-- Node8&#45;&gt;Node9 -->
<g id="edge10" class="edge"><title>Node8&#45;&gt;Node9</title>
<path fill="none" stroke="midnightblue" d="M403,-112.083C403,-105.006 403,-94.8611 403,-85.9865"/>
<polygon fill="midnightblue" stroke="midnightblue" points="406.5,-85.751 403,-75.7511 399.5,-85.7511 406.5,-85.751"/>
</g>
<!-- Node10&#45;&gt;Node5 -->
<g id="edge14" class="edge"><title>Node10&#45;&gt;Node5</title>
<path fill="none" stroke="midnightblue" d="M141.995,-112.324C160.038,-103.625 188.047,-90.1202 208.803,-80.113"/>
<polygon fill="midnightblue" stroke="midnightblue" points="210.562,-83.1502 218.05,-75.6545 207.522,-76.8449 210.562,-83.1502"/>
</g>
<!-- Node11&#45;&gt;Node5 -->
<g id="edge16" class="edge"><title>Node11&#45;&gt;Node5</title>
<path fill="none" stroke="midnightblue" d="M324.969,-112.324C307.97,-103.664 281.624,-90.2424 262.007,-80.249"/>
<polygon fill="midnightblue" stroke="midnightblue" points="263.488,-77.0752 252.988,-75.6545 260.31,-83.3125 263.488,-77.0752"/>
</g>
</g>
</svg>
