<?xml version="1.0" encoding="UTF-8" standalone="no"?>
<!DOCTYPE svg PUBLIC "-//W3C//DTD SVG 1.1//EN"
 "http://www.w3.org/Graphics/SVG/1.1/DTD/svg11.dtd">
<!-- Generated by graphviz version 2.36.0 (20140111.2315)
 -->
<!-- Title: frontend.c Pages: 1 -->
<svg width="743pt" height="252pt"
 viewBox="0.00 0.00 743.00 252.00" xmlns="http://www.w3.org/2000/svg" xmlns:xlink="http://www.w3.org/1999/xlink">
<g id="graph0" class="graph" transform="scale(1 1) rotate(0) translate(4 248)">
<title>frontend.c</title>
<polygon fill="white" stroke="none" points="-4,4 -4,-248 739,-248 739,4 -4,4"/>
<!-- Node1 -->
<g id="node1" class="node"><title>Node1</title>
<polygon fill="#bfbfbf" stroke="black" points="336,-224.5 336,-243.5 396,-243.5 396,-224.5 336,-224.5"/>
<text text-anchor="middle" x="366" y="-231.5" font-family="Helvetica,sans-Serif" font-size="10.00">frontend.c</text>
</g>
<!-- Node2 -->
<g id="node2" class="node"><title>Node2</title>
<g id="a_node2"><a xlink:href="estado_8h.html" target="_top" xlink:title="Ficheiro header contendo os dados relativos ao módulo ESTADO. ">
<polygon fill="white" stroke="black" points="242,-56.5 242,-75.5 296,-75.5 296,-56.5 242,-56.5"/>
<text text-anchor="middle" x="269" y="-63.5" font-family="Helvetica,sans-Serif" font-size="10.00">estado.h</text>
</a>
</g>
</g>
<!-- Node1&#45;&gt;Node2 -->
<g id="edge1" class="edge"><title>Node1&#45;&gt;Node2</title>
<path fill="none" stroke="midnightblue" d="M362.792,-224.372C355,-203.937 333.81,-151.348 308,-112 301.281,-101.756 292.426,-91.3539 284.852,-83.1347"/>
<polygon fill="midnightblue" stroke="midnightblue" points="287.252,-80.5789 277.831,-75.73 282.172,-85.395 287.252,-80.5789"/>
</g>
<!-- Node4 -->
<g id="node4" class="node"><title>Node4</title>
<polygon fill="white" stroke="#bfbfbf" points="432,-168.5 432,-187.5 480,-187.5 480,-168.5 432,-168.5"/>
<text text-anchor="middle" x="456" y="-175.5" font-family="Helvetica,sans-Serif" font-size="10.00">stdlib.h</text>
</g>
<!-- Node1&#45;&gt;Node4 -->
<g id="edge3" class="edge"><title>Node1&#45;&gt;Node4</title>
<path fill="none" stroke="midnightblue" d="M380.46,-224.324C394.5,-215.9 416.048,-202.971 432.543,-193.074"/>
<polygon fill="midnightblue" stroke="midnightblue" points="434.802,-195.801 441.576,-187.655 431.2,-189.798 434.802,-195.801"/>
</g>
<!-- Node5 -->
<g id="node5" class="node"><title>Node5</title>
<polygon fill="white" stroke="#bfbfbf" points="498.5,-168.5 498.5,-187.5 547.5,-187.5 547.5,-168.5 498.5,-168.5"/>
<text text-anchor="middle" x="523" y="-175.5" font-family="Helvetica,sans-Serif" font-size="10.00">string.h</text>
</g>
<!-- Node1&#45;&gt;Node5 -->
<g id="edge4" class="edge"><title>Node1&#45;&gt;Node5</title>
<path fill="none" stroke="midnightblue" d="M390.877,-224.444C417.367,-215.332 459.462,-200.854 489.002,-190.694"/>
<polygon fill="midnightblue" stroke="midnightblue" points="490.18,-193.99 498.498,-187.428 487.903,-187.37 490.18,-193.99"/>
</g>
<!-- Node6 -->
<g id="node6" class="node"><title>Node6</title>
<g id="a_node6"><a xlink:href="state_8h.html" target="_top" xlink:title="Módulo para alterar estado. ">
<polygon fill="white" stroke="black" points="356.5,-112.5 356.5,-131.5 403.5,-131.5 403.5,-112.5 356.5,-112.5"/>
<text text-anchor="middle" x="380" y="-119.5" font-family="Helvetica,sans-Serif" font-size="10.00">state.h</text>
</a>
</g>
</g>
<!-- Node1&#45;&gt;Node6 -->
<g id="edge5" class="edge"><title>Node1&#45;&gt;Node6</title>
<path fill="none" stroke="midnightblue" d="M367.099,-224.368C369.358,-206.617 374.57,-165.666 377.633,-141.597"/>
<polygon fill="midnightblue" stroke="midnightblue" points="381.116,-141.953 378.907,-131.591 374.172,-141.069 381.116,-141.953"/>
</g>
<!-- Node7 -->
<g id="node7" class="node"><title>Node7</title>
<g id="a_node7"><a xlink:href="frontend_8h.html" target="_top" xlink:title="Módulo de tratamento gráfico. ">
<polygon fill="white" stroke="black" points="422,-112.5 422,-131.5 482,-131.5 482,-112.5 422,-112.5"/>
<text text-anchor="middle" x="452" y="-119.5" font-family="Helvetica,sans-Serif" font-size="10.00">frontend.h</text>
</a>
</g>
</g>
<!-- Node1&#45;&gt;Node7 -->
<g id="edge7" class="edge"><title>Node1&#45;&gt;Node7</title>
<path fill="none" stroke="midnightblue" d="M372.748,-224.368C387.004,-206.135 420.394,-163.426 438.963,-139.675"/>
<polygon fill="midnightblue" stroke="midnightblue" points="441.881,-141.625 445.283,-131.591 436.366,-137.314 441.881,-141.625"/>
</g>
<!-- Node8 -->
<g id="node8" class="node"><title>Node8</title>
<g id="a_node8"><a xlink:href="filemanager_8h.html" target="_top" xlink:title="Módulo de leitura de ficheiros. ">
<polygon fill="white" stroke="black" points="37.5,-168.5 37.5,-187.5 112.5,-187.5 112.5,-168.5 37.5,-168.5"/>
<text text-anchor="middle" x="75" y="-175.5" font-family="Helvetica,sans-Serif" font-size="10.00">filemanager.h</text>
</a>
</g>
</g>
<!-- Node1&#45;&gt;Node8 -->
<g id="edge9" class="edge"><title>Node1&#45;&gt;Node8</title>
<path fill="none" stroke="midnightblue" d="M335.954,-227.424C285.437,-218.05 183.099,-199.06 122.68,-187.848"/>
<polygon fill="midnightblue" stroke="midnightblue" points="123.104,-184.367 112.633,-185.983 121.827,-191.249 123.104,-184.367"/>
</g>
<!-- Node9 -->
<g id="node9" class="node"><title>Node9</title>
<g id="a_node9"><a xlink:href="solver_8h.html" target="_top" xlink:title="Algoritmo para resolver mapas e estruturas para obter mapas aleatórios. ">
<polygon fill="white" stroke="black" points="98.5,-112.5 98.5,-131.5 149.5,-131.5 149.5,-112.5 98.5,-112.5"/>
<text text-anchor="middle" x="124" y="-119.5" font-family="Helvetica,sans-Serif" font-size="10.00">solver.h</text>
</a>
</g>
</g>
<!-- Node1&#45;&gt;Node9 -->
<g id="edge19" class="edge"><title>Node1&#45;&gt;Node9</title>
<path fill="none" stroke="midnightblue" d="M345.377,-224.435C324.131,-215.547 290.104,-201.135 261,-188 222.364,-170.563 178.132,-149.346 150.628,-136.003"/>
<polygon fill="midnightblue" stroke="midnightblue" points="152.158,-132.855 141.634,-131.631 149.098,-139.151 152.158,-132.855"/>
</g>
<!-- Node12 -->
<g id="node12" class="node"><title>Node12</title>
<g id="a_node12"><a xlink:href="decide_8h.html" target="_top" xlink:title="Módulo encarregue da interatividade com peças. ">
<polygon fill="white" stroke="black" points="167.5,-112.5 167.5,-131.5 220.5,-131.5 220.5,-112.5 167.5,-112.5"/>
<text text-anchor="middle" x="194" y="-119.5" font-family="Helvetica,sans-Serif" font-size="10.00">decide.h</text>
</a>
</g>
</g>
<!-- Node1&#45;&gt;Node12 -->
<g id="edge15" class="edge"><title>Node1&#45;&gt;Node12</title>
<path fill="none" stroke="midnightblue" d="M352.371,-224.401C338.064,-215.366 314.925,-200.725 295,-188 267.721,-170.578 236.389,-150.385 215.949,-137.188"/>
<polygon fill="midnightblue" stroke="midnightblue" points="217.677,-134.137 207.378,-131.651 213.879,-140.017 217.677,-134.137"/>
</g>
<!-- Node13 -->
<g id="node13" class="node"><title>Node13</title>
<g id="a_node13"><a xlink:href="givehelp_8h.html" target="_top" xlink:title="Módulo para fornecimento de ajudas. ">
<polygon fill="white" stroke="black" points="238.5,-112.5 238.5,-131.5 299.5,-131.5 299.5,-112.5 238.5,-112.5"/>
<text text-anchor="middle" x="269" y="-119.5" font-family="Helvetica,sans-Serif" font-size="10.00">givehelp.h</text>
</a>
</g>
</g>
<!-- Node1&#45;&gt;Node13 -->
<g id="edge17" class="edge"><title>Node1&#45;&gt;Node13</title>
<path fill="none" stroke="midnightblue" d="M354.513,-224.437C343.455,-215.889 326.6,-202.038 314,-188 300.721,-173.206 288.062,-154.344 279.574,-140.754"/>
<polygon fill="midnightblue" stroke="midnightblue" points="282.379,-138.633 274.18,-131.924 276.406,-142.282 282.379,-138.633"/>
</g>
<!-- Node14 -->
<g id="node14" class="node"><title>Node14</title>
<g id="a_node14"><a xlink:href="frontendTab_8h.html" target="_top" xlink:title="Módulo de tratamento gráfico, especializado ao tabuleiro. ">
<polygon fill="white" stroke="black" points="565.5,-168.5 565.5,-187.5 642.5,-187.5 642.5,-168.5 565.5,-168.5"/>
<text text-anchor="middle" x="604" y="-175.5" font-family="Helvetica,sans-Serif" font-size="10.00">frontendTab.h</text>
</a>
</g>
</g>
<!-- Node1&#45;&gt;Node14 -->
<g id="edge20" class="edge"><title>Node1&#45;&gt;Node14</title>
<path fill="none" stroke="midnightblue" d="M396.143,-226.161C436.548,-216.993 508.705,-200.622 556.466,-189.785"/>
<polygon fill="midnightblue" stroke="midnightblue" points="557.29,-193.187 566.268,-187.561 555.741,-186.361 557.29,-193.187"/>
</g>
<!-- Node15 -->
<g id="node15" class="node"><title>Node15</title>
<g id="a_node15"><a xlink:href="leaderboard_8h.html" target="_top" xlink:title="Módulo de obtenção da leaderboard. ">
<polygon fill="white" stroke="black" points="660.5,-168.5 660.5,-187.5 735.5,-187.5 735.5,-168.5 660.5,-168.5"/>
<text text-anchor="middle" x="698" y="-175.5" font-family="Helvetica,sans-Serif" font-size="10.00">leaderboard.h</text>
</a>
</g>
</g>
<!-- Node1&#45;&gt;Node15 -->
<g id="edge21" class="edge"><title>Node1&#45;&gt;Node15</title>
<path fill="none" stroke="midnightblue" d="M396.007,-228.591C446.338,-221.125 551.188,-205.267 650.418,-188.053"/>
<polygon fill="midnightblue" stroke="midnightblue" points="651.059,-191.494 660.31,-186.329 649.857,-184.598 651.059,-191.494"/>
</g>
<!-- Node3 -->
<g id="node3" class="node"><title>Node3</title>
<g id="a_node3"><a xlink:href="stack_8h.html" target="_top" xlink:title="Módulo para operar sobre STACK. ">
<polygon fill="white" stroke="black" points="244.5,-0.5 244.5,-19.5 293.5,-19.5 293.5,-0.5 244.5,-0.5"/>
<text text-anchor="middle" x="269" y="-7.5" font-family="Helvetica,sans-Serif" font-size="10.00">stack.h</text>
</a>
</g>
</g>
<!-- Node2&#45;&gt;Node3 -->
<g id="edge2" class="edge"><title>Node2&#45;&gt;Node3</title>
<path fill="none" stroke="midnightblue" d="M269,-56.083C269,-49.0059 269,-38.8611 269,-29.9865"/>
<polygon fill="midnightblue" stroke="midnightblue" points="272.5,-29.751 269,-19.7511 265.5,-29.7511 272.5,-29.751"/>
</g>
<!-- Node6&#45;&gt;Node2 -->
<g id="edge6" class="edge"><title>Node6&#45;&gt;Node2</title>
<path fill="none" stroke="midnightblue" d="M362.166,-112.324C344.284,-103.625 316.525,-90.1202 295.954,-80.113"/>
<polygon fill="midnightblue" stroke="midnightblue" points="297.313,-76.8819 286.79,-75.6545 294.251,-83.1765 297.313,-76.8819"/>
</g>
<!-- Node7&#45;&gt;Node2 -->
<g id="edge8" class="edge"><title>Node7&#45;&gt;Node2</title>
<path fill="none" stroke="midnightblue" d="M423.003,-112.444C391.265,-103.078 340.309,-88.0419 305.782,-77.8536"/>
<polygon fill="midnightblue" stroke="midnightblue" points="306.653,-74.4617 296.071,-74.9883 304.672,-81.1755 306.653,-74.4617"/>
</g>
<!-- Node8&#45;&gt;Node2 -->
<g id="edge10" class="edge"><title>Node8&#45;&gt;Node2</title>
<path fill="none" stroke="midnightblue" d="M74.3514,-168.078C73.8581,-154.137 75.0794,-127.214 90,-112 109.555,-92.0601 185.474,-78.4107 231.93,-71.7304"/>
<polygon fill="midnightblue" stroke="midnightblue" points="232.508,-75.1838 241.928,-70.3346 231.54,-68.251 232.508,-75.1838"/>
</g>
<!-- Node8&#45;&gt;Node9 -->
<g id="edge11" class="edge"><title>Node8&#45;&gt;Node9</title>
<path fill="none" stroke="midnightblue" d="M83.0914,-168.083C90.1554,-160.298 100.588,-148.801 109.149,-139.367"/>
<polygon fill="midnightblue" stroke="midnightblue" points="111.931,-141.509 116.059,-131.751 106.747,-136.805 111.931,-141.509"/>
</g>
<!-- Node10 -->
<g id="node10" class="node"><title>Node10</title>
<g id="a_node10"><a xlink:href="cgi_8h.html" target="_top" xlink:title="Macros úteis para gerar CGIs. ">
<polygon fill="white" stroke="black" points="4,-112.5 4,-131.5 42,-131.5 42,-112.5 4,-112.5"/>
<text text-anchor="middle" x="23" y="-119.5" font-family="Helvetica,sans-Serif" font-size="10.00">cgi.h</text>
</a>
</g>
</g>
<!-- Node8&#45;&gt;Node10 -->
<g id="edge13" class="edge"><title>Node8&#45;&gt;Node10</title>
<path fill="none" stroke="midnightblue" d="M66.4133,-168.083C58.841,-160.22 47.6218,-148.569 38.4856,-139.081"/>
<polygon fill="midnightblue" stroke="midnightblue" points="40.8845,-136.527 31.427,-131.751 35.8423,-141.382 40.8845,-136.527"/>
</g>
<!-- Node9&#45;&gt;Node2 -->
<g id="edge12" class="edge"><title>Node9&#45;&gt;Node2</title>
<path fill="none" stroke="midnightblue" d="M146.976,-112.444C171.157,-103.438 209.418,-89.1891 236.646,-79.049"/>
<polygon fill="midnightblue" stroke="midnightblue" points="237.982,-82.2864 246.132,-75.5164 235.539,-75.7265 237.982,-82.2864"/>
</g>
<!-- Node11 -->
<g id="node11" class="node"><title>Node11</title>
<polygon fill="white" stroke="#bfbfbf" points="0,-56.5 0,-75.5 46,-75.5 46,-56.5 0,-56.5"/>
<text text-anchor="middle" x="23" y="-63.5" font-family="Helvetica,sans-Serif" font-size="10.00">stdio.h</text>
</g>
<!-- Node10&#45;&gt;Node11 -->
<g id="edge14" class="edge"><title>Node10&#45;&gt;Node11</title>
<path fill="none" stroke="midnightblue" d="M23,-112.083C23,-105.006 23,-94.8611 23,-85.9865"/>
<polygon fill="midnightblue" stroke="midnightblue" points="26.5001,-85.751 23,-75.7511 19.5001,-85.7511 26.5001,-85.751"/>
</g>
<!-- Node12&#45;&gt;Node2 -->
<g id="edge16" class="edge"><title>Node12&#45;&gt;Node2</title>
<path fill="none" stroke="midnightblue" d="M206.05,-112.324C217.463,-104.107 234.831,-91.6017 248.435,-81.8069"/>
<polygon fill="midnightblue" stroke="midnightblue" points="250.66,-84.5174 256.731,-75.8339 246.57,-78.8366 250.66,-84.5174"/>
</g>
<!-- Node13&#45;&gt;Node2 -->
<g id="edge18" class="edge"><title>Node13&#45;&gt;Node2</title>
<path fill="none" stroke="midnightblue" d="M269,-112.083C269,-105.006 269,-94.8611 269,-85.9865"/>
<polygon fill="midnightblue" stroke="midnightblue" points="272.5,-85.751 269,-75.7511 265.5,-85.7511 272.5,-85.751"/>
</g>
</g>
</svg>
