<?xml version="1.0" encoding="UTF-8" standalone="no"?>
<!DOCTYPE svg PUBLIC "-//W3C//DTD SVG 1.1//EN"
 "http://www.w3.org/Graphics/SVG/1.1/DTD/svg11.dtd">
<!-- Generated by graphviz version 2.36.0 (20140111.2315)
 -->
<!-- Title: frontend.h Pages: 1 -->
<svg width="543pt" height="84pt"
 viewBox="0.00 0.00 543.00 84.00" xmlns="http://www.w3.org/2000/svg" xmlns:xlink="http://www.w3.org/1999/xlink">
<g id="graph0" class="graph" transform="scale(1 1) rotate(0) translate(4 80)">
<title>frontend.h</title>
<polygon fill="white" stroke="none" points="-4,4 -4,-80 539,-80 539,4 -4,4"/>
<!-- Node1 -->
<g id="node1" class="node"><title>Node1</title>
<polygon fill="#bfbfbf" stroke="black" points="244,-56.5 244,-75.5 304,-75.5 304,-56.5 244,-56.5"/>
<text text-anchor="middle" x="274" y="-63.5" font-family="Helvetica,sans-Serif" font-size="10.00">frontend.h</text>
</g>
<!-- Node2 -->
<g id="node2" class="node"><title>Node2</title>
<g id="a_node2"><a xlink:href="estado_8c.html" target="_top" xlink:title="Ficheiro contendo o código relativo ao módulo ESTADO. ">
<polygon fill="white" stroke="black" points="0,-0.5 0,-19.5 54,-19.5 54,-0.5 0,-0.5"/>
<text text-anchor="middle" x="27" y="-7.5" font-family="Helvetica,sans-Serif" font-size="10.00">estado.c</text>
</a>
</g>
</g>
<!-- Node1&#45;&gt;Node2 -->
<g id="edge1" class="edge"><title>Node1&#45;&gt;Node2</title>
<path fill="none" stroke="midnightblue" d="M233.924,-56.8864C191.412,-48.1783 122.331,-33.7387 63,-20 60.1129,-19.3315 57.101,-18.6126 54.1024,-17.8831"/>
<polygon fill="midnightblue" stroke="midnightblue" points="233.379,-60.3473 243.877,-58.9199 234.78,-53.489 233.379,-60.3473"/>
</g>
<!-- Node3 -->
<g id="node3" class="node"><title>Node3</title>
<g id="a_node3"><a xlink:href="exemplo_8c.html" target="_top" xlink:title="Esqueleto do programa. ">
<polygon fill="white" stroke="black" points="72,-0.5 72,-19.5 134,-19.5 134,-0.5 72,-0.5"/>
<text text-anchor="middle" x="103" y="-7.5" font-family="Helvetica,sans-Serif" font-size="10.00">exemplo.c</text>
</a>
</g>
</g>
<!-- Node1&#45;&gt;Node3 -->
<g id="edge2" class="edge"><title>Node1&#45;&gt;Node3</title>
<path fill="none" stroke="midnightblue" d="M236.964,-53.3044C204.743,-43.1294 158.811,-28.6246 129.969,-19.5164"/>
<polygon fill="midnightblue" stroke="midnightblue" points="236.315,-56.7697 246.905,-56.4435 238.423,-50.0946 236.315,-56.7697"/>
</g>
<!-- Node4 -->
<g id="node4" class="node"><title>Node4</title>
<g id="a_node4"><a xlink:href="filemanager_8c.html" target="_top" xlink:title="Módulo de leitura de ficheiros. ">
<polygon fill="white" stroke="black" points="151.5,-0.5 151.5,-19.5 226.5,-19.5 226.5,-0.5 151.5,-0.5"/>
<text text-anchor="middle" x="189" y="-7.5" font-family="Helvetica,sans-Serif" font-size="10.00">filemanager.c</text>
</a>
</g>
</g>
<!-- Node1&#45;&gt;Node4 -->
<g id="edge3" class="edge"><title>Node1&#45;&gt;Node4</title>
<path fill="none" stroke="midnightblue" d="M251.806,-50.9005C236.22,-40.9986 215.87,-28.0705 202.623,-19.6545"/>
<polygon fill="midnightblue" stroke="midnightblue" points="250.026,-53.9158 260.343,-56.324 253.779,-48.0073 250.026,-53.9158"/>
</g>
<!-- Node5 -->
<g id="node5" class="node"><title>Node5</title>
<g id="a_node5"><a xlink:href="frontend_8c.html" target="_top" xlink:title="Módulo de tratamento gráfico. ">
<polygon fill="white" stroke="black" points="244,-0.5 244,-19.5 304,-19.5 304,-0.5 244,-0.5"/>
<text text-anchor="middle" x="274" y="-7.5" font-family="Helvetica,sans-Serif" font-size="10.00">frontend.c</text>
</a>
</g>
</g>
<!-- Node1&#45;&gt;Node5 -->
<g id="edge4" class="edge"><title>Node1&#45;&gt;Node5</title>
<path fill="none" stroke="midnightblue" d="M274,-45.8045C274,-36.9102 274,-26.7798 274,-19.7511"/>
<polygon fill="midnightblue" stroke="midnightblue" points="270.5,-46.083 274,-56.083 277.5,-46.083 270.5,-46.083"/>
</g>
<!-- Node6 -->
<g id="node6" class="node"><title>Node6</title>
<g id="a_node6"><a xlink:href="frontendTab_8c.html" target="_top" xlink:title="Módulo de tratamento gráfico, especializado ao tabuleiro. ">
<polygon fill="white" stroke="black" points="322.5,-0.5 322.5,-19.5 399.5,-19.5 399.5,-0.5 322.5,-0.5"/>
<text text-anchor="middle" x="361" y="-7.5" font-family="Helvetica,sans-Serif" font-size="10.00">frontendTab.c</text>
</a>
</g>
</g>
<!-- Node1&#45;&gt;Node6 -->
<g id="edge5" class="edge"><title>Node1&#45;&gt;Node6</title>
<path fill="none" stroke="midnightblue" d="M296.716,-50.9005C312.669,-40.9986 333.497,-28.0705 347.057,-19.6545"/>
<polygon fill="midnightblue" stroke="midnightblue" points="294.629,-48.0765 287.978,-56.324 298.32,-54.024 294.629,-48.0765"/>
</g>
<!-- Node7 -->
<g id="node7" class="node"><title>Node7</title>
<g id="a_node7"><a xlink:href="parser_8c.html" target="_top" xlink:title="Módulo de User input / Interpertador de comandos. ">
<polygon fill="white" stroke="black" points="418,-0.5 418,-19.5 470,-19.5 470,-0.5 418,-0.5"/>
<text text-anchor="middle" x="444" y="-7.5" font-family="Helvetica,sans-Serif" font-size="10.00">parser.c</text>
</a>
</g>
</g>
<!-- Node1&#45;&gt;Node7 -->
<g id="edge6" class="edge"><title>Node1&#45;&gt;Node7</title>
<path fill="none" stroke="midnightblue" d="M310.881,-53.285C343.119,-43.0446 389.129,-28.4295 417.748,-19.339"/>
<polygon fill="midnightblue" stroke="midnightblue" points="309.408,-50.0803 300.937,-56.4435 311.527,-56.7518 309.408,-50.0803"/>
</g>
<!-- Node8 -->
<g id="node8" class="node"><title>Node8</title>
<g id="a_node8"><a xlink:href="state_8c.html" target="_top" xlink:title="Módulo para alterar estado. ">
<polygon fill="white" stroke="black" points="488.5,-0.5 488.5,-19.5 535.5,-19.5 535.5,-0.5 488.5,-0.5"/>
<text text-anchor="middle" x="512" y="-7.5" font-family="Helvetica,sans-Serif" font-size="10.00">state.c</text>
</a>
</g>
</g>
<!-- Node1&#45;&gt;Node8 -->
<g id="edge7" class="edge"><title>Node1&#45;&gt;Node8</title>
<path fill="none" stroke="midnightblue" d="M314.307,-56.7756C355.747,-48.1742 422.08,-33.9998 479,-20 481.999,-19.2625 485.141,-18.4532 488.244,-17.6318"/>
<polygon fill="midnightblue" stroke="midnightblue" points="313.413,-53.3864 304.329,-58.8389 314.831,-60.2414 313.413,-53.3864"/>
</g>
</g>
</svg>
