<?xml version="1.0" encoding="UTF-8" standalone="no"?>
<!DOCTYPE svg PUBLIC "-//W3C//DTD SVG 1.1//EN"
 "http://www.w3.org/Graphics/SVG/1.1/DTD/svg11.dtd">
<!-- Generated by graphviz version 2.36.0 (20140111.2315)
 -->
<!-- Title: frontendTab.c Pages: 1 -->
<svg width="516pt" height="252pt"
 viewBox="0.00 0.00 516.00 252.00" xmlns="http://www.w3.org/2000/svg" xmlns:xlink="http://www.w3.org/1999/xlink">
<g id="graph0" class="graph" transform="scale(1 1) rotate(0) translate(4 248)">
<title>frontendTab.c</title>
<polygon fill="white" stroke="none" points="-4,4 -4,-248 512,-248 512,4 -4,4"/>
<!-- Node1 -->
<g id="node1" class="node"><title>Node1</title>
<polygon fill="#bfbfbf" stroke="black" points="250.5,-224.5 250.5,-243.5 327.5,-243.5 327.5,-224.5 250.5,-224.5"/>
<text text-anchor="middle" x="289" y="-231.5" font-family="Helvetica,sans-Serif" font-size="10.00">frontendTab.c</text>
</g>
<!-- Node2 -->
<g id="node2" class="node"><title>Node2</title>
<g id="a_node2"><a xlink:href="estado_8h.html" target="_top" xlink:title="Ficheiro header contendo os dados relativos ao módulo ESTADO. ">
<polygon fill="white" stroke="black" points="222,-56.5 222,-75.5 276,-75.5 276,-56.5 222,-56.5"/>
<text text-anchor="middle" x="249" y="-63.5" font-family="Helvetica,sans-Serif" font-size="10.00">estado.h</text>
</a>
</g>
</g>
<!-- Node1&#45;&gt;Node2 -->
<g id="edge1" class="edge"><title>Node1&#45;&gt;Node2</title>
<path fill="none" stroke="midnightblue" d="M286.849,-224.075C280.553,-197.945 262.063,-121.211 253.476,-85.577"/>
<polygon fill="midnightblue" stroke="midnightblue" points="256.81,-84.4699 251.065,-75.5681 250.005,-86.1098 256.81,-84.4699"/>
</g>
<!-- Node4 -->
<g id="node4" class="node"><title>Node4</title>
<polygon fill="white" stroke="#bfbfbf" points="393,-168.5 393,-187.5 441,-187.5 441,-168.5 393,-168.5"/>
<text text-anchor="middle" x="417" y="-175.5" font-family="Helvetica,sans-Serif" font-size="10.00">stdlib.h</text>
</g>
<!-- Node1&#45;&gt;Node4 -->
<g id="edge3" class="edge"><title>Node1&#45;&gt;Node4</title>
<path fill="none" stroke="midnightblue" d="M309.282,-224.444C330.347,-215.557 363.517,-201.563 387.486,-191.451"/>
<polygon fill="midnightblue" stroke="midnightblue" points="388.96,-194.628 396.813,-187.516 386.239,-188.179 388.96,-194.628"/>
</g>
<!-- Node5 -->
<g id="node5" class="node"><title>Node5</title>
<polygon fill="white" stroke="#bfbfbf" points="459.5,-168.5 459.5,-187.5 508.5,-187.5 508.5,-168.5 459.5,-168.5"/>
<text text-anchor="middle" x="484" y="-175.5" font-family="Helvetica,sans-Serif" font-size="10.00">string.h</text>
</g>
<!-- Node1&#45;&gt;Node5 -->
<g id="edge4" class="edge"><title>Node1&#45;&gt;Node5</title>
<path fill="none" stroke="midnightblue" d="M319.898,-224.444C355.237,-214.657 412.936,-198.679 449.656,-188.511"/>
<polygon fill="midnightblue" stroke="midnightblue" points="450.717,-191.849 459.42,-185.807 448.849,-185.102 450.717,-191.849"/>
</g>
<!-- Node6 -->
<g id="node6" class="node"><title>Node6</title>
<g id="a_node6"><a xlink:href="state_8h.html" target="_top" xlink:title="Módulo para alterar estado. ">
<polygon fill="white" stroke="black" points="315.5,-112.5 315.5,-131.5 362.5,-131.5 362.5,-112.5 315.5,-112.5"/>
<text text-anchor="middle" x="339" y="-119.5" font-family="Helvetica,sans-Serif" font-size="10.00">state.h</text>
</a>
</g>
</g>
<!-- Node1&#45;&gt;Node6 -->
<g id="edge5" class="edge"><title>Node1&#45;&gt;Node6</title>
<path fill="none" stroke="midnightblue" d="M292.923,-224.368C301.065,-206.456 319.944,-164.923 330.842,-140.948"/>
<polygon fill="midnightblue" stroke="midnightblue" points="334.143,-142.143 335.095,-131.591 327.77,-139.247 334.143,-142.143"/>
</g>
<!-- Node7 -->
<g id="node7" class="node"><title>Node7</title>
<g id="a_node7"><a xlink:href="frontend_8h.html" target="_top" xlink:title="Módulo de tratamento gráfico. ">
<polygon fill="white" stroke="black" points="381,-112.5 381,-131.5 441,-131.5 441,-112.5 381,-112.5"/>
<text text-anchor="middle" x="411" y="-119.5" font-family="Helvetica,sans-Serif" font-size="10.00">frontend.h</text>
</a>
</g>
</g>
<!-- Node1&#45;&gt;Node7 -->
<g id="edge7" class="edge"><title>Node1&#45;&gt;Node7</title>
<path fill="none" stroke="midnightblue" d="M298.573,-224.368C319.152,-205.814 367.842,-161.913 393.878,-138.438"/>
<polygon fill="midnightblue" stroke="midnightblue" points="396.388,-140.887 401.471,-131.591 391.701,-135.688 396.388,-140.887"/>
</g>
<!-- Node8 -->
<g id="node8" class="node"><title>Node8</title>
<g id="a_node8"><a xlink:href="filemanager_8h.html" target="_top" xlink:title="Módulo de leitura de ficheiros. ">
<polygon fill="white" stroke="black" points="29.5,-168.5 29.5,-187.5 104.5,-187.5 104.5,-168.5 29.5,-168.5"/>
<text text-anchor="middle" x="67" y="-175.5" font-family="Helvetica,sans-Serif" font-size="10.00">filemanager.h</text>
</a>
</g>
</g>
<!-- Node1&#45;&gt;Node8 -->
<g id="edge9" class="edge"><title>Node1&#45;&gt;Node8</title>
<path fill="none" stroke="midnightblue" d="M253.823,-224.444C215.421,-215.102 153.824,-200.119 111.945,-189.933"/>
<polygon fill="midnightblue" stroke="midnightblue" points="112.556,-186.479 102.012,-187.516 110.901,-193.281 112.556,-186.479"/>
</g>
<!-- Node9 -->
<g id="node9" class="node"><title>Node9</title>
<g id="a_node9"><a xlink:href="solver_8h.html" target="_top" xlink:title="Algoritmo para resolver mapas e estruturas para obter mapas aleatórios. ">
<polygon fill="white" stroke="black" points="98.5,-112.5 98.5,-131.5 149.5,-131.5 149.5,-112.5 98.5,-112.5"/>
<text text-anchor="middle" x="124" y="-119.5" font-family="Helvetica,sans-Serif" font-size="10.00">solver.h</text>
</a>
</g>
</g>
<!-- Node1&#45;&gt;Node9 -->
<g id="edge19" class="edge"><title>Node1&#45;&gt;Node9</title>
<path fill="none" stroke="midnightblue" d="M258.714,-224.494C235.96,-217.168 204.758,-205.063 181,-188 162.6,-174.785 146.082,-154.557 135.624,-140.18"/>
<polygon fill="midnightblue" stroke="midnightblue" points="138.282,-137.876 129.667,-131.71 132.557,-141.903 138.282,-137.876"/>
</g>
<!-- Node12 -->
<g id="node12" class="node"><title>Node12</title>
<g id="a_node12"><a xlink:href="decide_8h.html" target="_top" xlink:title="Módulo encarregue da interatividade com peças. ">
<polygon fill="white" stroke="black" points="167.5,-112.5 167.5,-131.5 220.5,-131.5 220.5,-112.5 167.5,-112.5"/>
<text text-anchor="middle" x="194" y="-119.5" font-family="Helvetica,sans-Serif" font-size="10.00">decide.h</text>
</a>
</g>
</g>
<!-- Node1&#45;&gt;Node12 -->
<g id="edge15" class="edge"><title>Node1&#45;&gt;Node12</title>
<path fill="none" stroke="midnightblue" d="M250.317,-226.024C228.609,-219.918 203.288,-208.636 190,-188 181.21,-174.349 183.54,-155.558 187.281,-141.691"/>
<polygon fill="midnightblue" stroke="midnightblue" points="190.725,-142.407 190.398,-131.817 184.05,-140.3 190.725,-142.407"/>
</g>
<!-- Node13 -->
<g id="node13" class="node"><title>Node13</title>
<g id="a_node13"><a xlink:href="givehelp_8h.html" target="_top" xlink:title="Módulo para fornecimento de ajudas. ">
<polygon fill="white" stroke="black" points="199.5,-168.5 199.5,-187.5 260.5,-187.5 260.5,-168.5 199.5,-168.5"/>
<text text-anchor="middle" x="230" y="-175.5" font-family="Helvetica,sans-Serif" font-size="10.00">givehelp.h</text>
</a>
</g>
</g>
<!-- Node1&#45;&gt;Node13 -->
<g id="edge17" class="edge"><title>Node1&#45;&gt;Node13</title>
<path fill="none" stroke="midnightblue" d="M279.521,-224.324C270.799,-216.341 257.657,-204.313 247.102,-194.653"/>
<polygon fill="midnightblue" stroke="midnightblue" points="249.392,-192.004 239.652,-187.834 244.666,-197.167 249.392,-192.004"/>
</g>
<!-- Node3 -->
<g id="node3" class="node"><title>Node3</title>
<g id="a_node3"><a xlink:href="stack_8h.html" target="_top" xlink:title="Módulo para operar sobre STACK. ">
<polygon fill="white" stroke="black" points="224.5,-0.5 224.5,-19.5 273.5,-19.5 273.5,-0.5 224.5,-0.5"/>
<text text-anchor="middle" x="249" y="-7.5" font-family="Helvetica,sans-Serif" font-size="10.00">stack.h</text>
</a>
</g>
</g>
<!-- Node2&#45;&gt;Node3 -->
<g id="edge2" class="edge"><title>Node2&#45;&gt;Node3</title>
<path fill="none" stroke="midnightblue" d="M249,-56.083C249,-49.0059 249,-38.8611 249,-29.9865"/>
<polygon fill="midnightblue" stroke="midnightblue" points="252.5,-29.751 249,-19.7511 245.5,-29.7511 252.5,-29.751"/>
</g>
<!-- Node6&#45;&gt;Node2 -->
<g id="edge6" class="edge"><title>Node6&#45;&gt;Node2</title>
<path fill="none" stroke="midnightblue" d="M324.54,-112.324C310.5,-103.9 288.952,-90.9709 272.457,-81.0741"/>
<polygon fill="midnightblue" stroke="midnightblue" points="273.8,-77.7983 263.424,-75.6545 270.198,-83.8007 273.8,-77.7983"/>
</g>
<!-- Node7&#45;&gt;Node2 -->
<g id="edge8" class="edge"><title>Node7&#45;&gt;Node2</title>
<path fill="none" stroke="midnightblue" d="M385.331,-112.444C358.077,-103.359 314.816,-88.9388 284.349,-78.7831"/>
<polygon fill="midnightblue" stroke="midnightblue" points="285.143,-75.3584 274.549,-75.5164 282.929,-81.9992 285.143,-75.3584"/>
</g>
<!-- Node8&#45;&gt;Node2 -->
<g id="edge10" class="edge"><title>Node8&#45;&gt;Node2</title>
<path fill="none" stroke="midnightblue" d="M67.5755,-168.494C68.9764,-154.642 73.7585,-127.23 90,-112 123.142,-80.9231 176.127,-71.0747 211.722,-68.0829"/>
<polygon fill="midnightblue" stroke="midnightblue" points="211.987,-71.573 221.719,-67.3835 211.499,-64.5901 211.987,-71.573"/>
</g>
<!-- Node8&#45;&gt;Node9 -->
<g id="edge11" class="edge"><title>Node8&#45;&gt;Node9</title>
<path fill="none" stroke="midnightblue" d="M76.158,-168.324C84.5015,-160.42 97.0324,-148.548 107.177,-138.938"/>
<polygon fill="midnightblue" stroke="midnightblue" points="109.823,-141.252 114.675,-131.834 105.009,-136.171 109.823,-141.252"/>
</g>
<!-- Node10 -->
<g id="node10" class="node"><title>Node10</title>
<g id="a_node10"><a xlink:href="cgi_8h.html" target="_top" xlink:title="Macros úteis para gerar CGIs. ">
<polygon fill="white" stroke="black" points="4,-112.5 4,-131.5 42,-131.5 42,-112.5 4,-112.5"/>
<text text-anchor="middle" x="23" y="-119.5" font-family="Helvetica,sans-Serif" font-size="10.00">cgi.h</text>
</a>
</g>
</g>
<!-- Node8&#45;&gt;Node10 -->
<g id="edge13" class="edge"><title>Node8&#45;&gt;Node10</title>
<path fill="none" stroke="midnightblue" d="M59.7343,-168.083C53.4552,-160.377 44.2124,-149.033 36.5692,-139.653"/>
<polygon fill="midnightblue" stroke="midnightblue" points="39.1606,-137.293 30.1305,-131.751 33.7339,-141.714 39.1606,-137.293"/>
</g>
<!-- Node9&#45;&gt;Node2 -->
<g id="edge12" class="edge"><title>Node9&#45;&gt;Node2</title>
<path fill="none" stroke="midnightblue" d="M143.807,-112.444C164.287,-103.596 196.483,-89.6875 219.865,-79.5865"/>
<polygon fill="midnightblue" stroke="midnightblue" points="221.494,-82.6953 229.286,-75.5164 218.718,-76.2692 221.494,-82.6953"/>
</g>
<!-- Node11 -->
<g id="node11" class="node"><title>Node11</title>
<polygon fill="white" stroke="#bfbfbf" points="0,-56.5 0,-75.5 46,-75.5 46,-56.5 0,-56.5"/>
<text text-anchor="middle" x="23" y="-63.5" font-family="Helvetica,sans-Serif" font-size="10.00">stdio.h</text>
</g>
<!-- Node10&#45;&gt;Node11 -->
<g id="edge14" class="edge"><title>Node10&#45;&gt;Node11</title>
<path fill="none" stroke="midnightblue" d="M23,-112.083C23,-105.006 23,-94.8611 23,-85.9865"/>
<polygon fill="midnightblue" stroke="midnightblue" points="26.5001,-85.751 23,-75.7511 19.5001,-85.7511 26.5001,-85.751"/>
</g>
<!-- Node12&#45;&gt;Node2 -->
<g id="edge16" class="edge"><title>Node12&#45;&gt;Node2</title>
<path fill="none" stroke="midnightblue" d="M203.082,-112.083C211.171,-104.141 223.195,-92.3354 232.91,-82.7973"/>
<polygon fill="midnightblue" stroke="midnightblue" points="235.403,-85.2545 240.087,-75.7511 230.499,-80.2595 235.403,-85.2545"/>
</g>
<!-- Node13&#45;&gt;Node2 -->
<g id="edge18" class="edge"><title>Node13&#45;&gt;Node2</title>
<path fill="none" stroke="midnightblue" d="M231.491,-168.368C234.557,-150.617 241.63,-109.666 245.788,-85.5974"/>
<polygon fill="midnightblue" stroke="midnightblue" points="249.263,-86.0413 247.516,-75.5914 242.365,-84.8498 249.263,-86.0413"/>
</g>
</g>
</svg>
