<?xml version="1.0" encoding="UTF-8" standalone="no"?>
<!DOCTYPE svg PUBLIC "-//W3C//DTD SVG 1.1//EN"
 "http://www.w3.org/Graphics/SVG/1.1/DTD/svg11.dtd">
<!-- Generated by graphviz version 2.36.0 (20140111.2315)
 -->
<!-- Title: gerar.c Pages: 1 -->
<svg width="251pt" height="196pt"
 viewBox="0.00 0.00 251.00 196.00" xmlns="http://www.w3.org/2000/svg" xmlns:xlink="http://www.w3.org/1999/xlink">
<g id="graph0" class="graph" transform="scale(1 1) rotate(0) translate(4 192)">
<title>gerar.c</title>
<polygon fill="white" stroke="none" points="-4,4 -4,-192 247,-192 247,4 -4,4"/>
<!-- Node1 -->
<g id="node1" class="node"><title>Node1</title>
<polygon fill="#bfbfbf" stroke="black" points="96.5,-168.5 96.5,-187.5 143.5,-187.5 143.5,-168.5 96.5,-168.5"/>
<text text-anchor="middle" x="120" y="-175.5" font-family="Helvetica,sans-Serif" font-size="10.00">gerar.c</text>
</g>
<!-- Node2 -->
<g id="node2" class="node"><title>Node2</title>
<polygon fill="white" stroke="#bfbfbf" points="-1,-112.5 -1,-131.5 43,-131.5 43,-112.5 -1,-112.5"/>
<text text-anchor="middle" x="21" y="-119.5" font-family="Helvetica,sans-Serif" font-size="10.00">time.h</text>
</g>
<!-- Node1&#45;&gt;Node2 -->
<g id="edge1" class="edge"><title>Node1&#45;&gt;Node2</title>
<path fill="none" stroke="midnightblue" d="M104.094,-168.324C88.3618,-159.743 64.0577,-146.486 45.7911,-136.522"/>
<polygon fill="midnightblue" stroke="midnightblue" points="47.3216,-133.37 36.8666,-131.655 43.9696,-139.516 47.3216,-133.37"/>
</g>
<!-- Node3 -->
<g id="node3" class="node"><title>Node3</title>
<g id="a_node3"><a xlink:href="solver_8h.html" target="_top" xlink:title="Algoritmo para resolver mapas e estruturas para obter mapas aleatórios. ">
<polygon fill="white" stroke="black" points="61.5,-112.5 61.5,-131.5 112.5,-131.5 112.5,-112.5 61.5,-112.5"/>
<text text-anchor="middle" x="87" y="-119.5" font-family="Helvetica,sans-Serif" font-size="10.00">solver.h</text>
</a>
</g>
</g>
<!-- Node1&#45;&gt;Node3 -->
<g id="edge2" class="edge"><title>Node1&#45;&gt;Node3</title>
<path fill="none" stroke="midnightblue" d="M114.551,-168.083C109.986,-160.613 103.332,-149.724 97.7066,-140.52"/>
<polygon fill="midnightblue" stroke="midnightblue" points="100.549,-138.459 92.3479,-131.751 94.5759,-142.109 100.549,-138.459"/>
</g>
<!-- Node6 -->
<g id="node6" class="node"><title>Node6</title>
<polygon fill="white" stroke="#bfbfbf" points="131,-112.5 131,-131.5 177,-131.5 177,-112.5 131,-112.5"/>
<text text-anchor="middle" x="154" y="-119.5" font-family="Helvetica,sans-Serif" font-size="10.00">stdio.h</text>
</g>
<!-- Node1&#45;&gt;Node6 -->
<g id="edge5" class="edge"><title>Node1&#45;&gt;Node6</title>
<path fill="none" stroke="midnightblue" d="M125.614,-168.083C130.367,-160.534 137.318,-149.495 143.152,-140.23"/>
<polygon fill="midnightblue" stroke="midnightblue" points="146.124,-142.078 148.49,-131.751 140.2,-138.349 146.124,-142.078"/>
</g>
<!-- Node7 -->
<g id="node7" class="node"><title>Node7</title>
<polygon fill="white" stroke="#bfbfbf" points="195,-112.5 195,-131.5 243,-131.5 243,-112.5 195,-112.5"/>
<text text-anchor="middle" x="219" y="-119.5" font-family="Helvetica,sans-Serif" font-size="10.00">stdlib.h</text>
</g>
<!-- Node1&#45;&gt;Node7 -->
<g id="edge6" class="edge"><title>Node1&#45;&gt;Node7</title>
<path fill="none" stroke="midnightblue" d="M135.906,-168.324C151.638,-159.743 175.942,-146.486 194.209,-136.522"/>
<polygon fill="midnightblue" stroke="midnightblue" points="196.03,-139.516 203.133,-131.655 192.678,-133.37 196.03,-139.516"/>
</g>
<!-- Node4 -->
<g id="node4" class="node"><title>Node4</title>
<g id="a_node4"><a xlink:href="estado_8h.html" target="_top" xlink:title="Ficheiro header contendo os dados relativos ao módulo ESTADO. ">
<polygon fill="white" stroke="black" points="60,-56.5 60,-75.5 114,-75.5 114,-56.5 60,-56.5"/>
<text text-anchor="middle" x="87" y="-63.5" font-family="Helvetica,sans-Serif" font-size="10.00">estado.h</text>
</a>
</g>
</g>
<!-- Node3&#45;&gt;Node4 -->
<g id="edge3" class="edge"><title>Node3&#45;&gt;Node4</title>
<path fill="none" stroke="midnightblue" d="M87,-112.083C87,-105.006 87,-94.8611 87,-85.9865"/>
<polygon fill="midnightblue" stroke="midnightblue" points="90.5001,-85.751 87,-75.7511 83.5001,-85.7511 90.5001,-85.751"/>
</g>
<!-- Node5 -->
<g id="node5" class="node"><title>Node5</title>
<g id="a_node5"><a xlink:href="stack_8h.html" target="_top" xlink:title="Módulo para operar sobre STACK. ">
<polygon fill="white" stroke="black" points="62.5,-0.5 62.5,-19.5 111.5,-19.5 111.5,-0.5 62.5,-0.5"/>
<text text-anchor="middle" x="87" y="-7.5" font-family="Helvetica,sans-Serif" font-size="10.00">stack.h</text>
</a>
</g>
</g>
<!-- Node4&#45;&gt;Node5 -->
<g id="edge4" class="edge"><title>Node4&#45;&gt;Node5</title>
<path fill="none" stroke="midnightblue" d="M87,-56.083C87,-49.0059 87,-38.8611 87,-29.9865"/>
<polygon fill="midnightblue" stroke="midnightblue" points="90.5001,-29.751 87,-19.7511 83.5001,-29.7511 90.5001,-29.751"/>
</g>
</g>
</svg>
