<?xml version="1.0" encoding="UTF-8" standalone="no"?>
<!DOCTYPE svg PUBLIC "-//W3C//DTD SVG 1.1//EN"
 "http://www.w3.org/Graphics/SVG/1.1/DTD/svg11.dtd">
<!-- Generated by graphviz version 2.36.0 (20140111.2315)
 -->
<!-- Title: givehelp.c Pages: 1 -->
<svg width="431pt" height="196pt"
 viewBox="0.00 0.00 430.75 196.00" xmlns="http://www.w3.org/2000/svg" xmlns:xlink="http://www.w3.org/1999/xlink">
<g id="graph0" class="graph" transform="scale(1 1) rotate(0) translate(4 192)">
<title>givehelp.c</title>
<polygon fill="white" stroke="none" points="-4,4 -4,-192 426.746,-192 426.746,4 -4,4"/>
<!-- Node1 -->
<g id="node1" class="node"><title>Node1</title>
<polygon fill="#bfbfbf" stroke="black" points="162.246,-168.5 162.246,-187.5 223.246,-187.5 223.246,-168.5 162.246,-168.5"/>
<text text-anchor="middle" x="192.746" y="-175.5" font-family="Helvetica,sans-Serif" font-size="10.00">givehelp.c</text>
</g>
<!-- Node2 -->
<g id="node2" class="node"><title>Node2</title>
<g id="a_node2"><a xlink:href="estado_8h.html" target="_top" xlink:title="Ficheiro header contendo os dados relativos ao módulo ESTADO. ">
<polygon fill="white" stroke="black" points="49.7465,-56.5 49.7465,-75.5 103.746,-75.5 103.746,-56.5 49.7465,-56.5"/>
<text text-anchor="middle" x="76.7465" y="-63.5" font-family="Helvetica,sans-Serif" font-size="10.00">estado.h</text>
</a>
</g>
</g>
<!-- Node1&#45;&gt;Node2 -->
<g id="edge1" class="edge"><title>Node1&#45;&gt;Node2</title>
<path fill="none" stroke="midnightblue" d="M162.212,-174.202C114.076,-169.088 24.0257,-156.439 4.74645,-132 -11.4171,-111.511 18.3725,-92.0089 44.4031,-79.8071"/>
<polygon fill="midnightblue" stroke="midnightblue" points="46.0195,-82.9187 53.7311,-75.6537 43.1721,-76.524 46.0195,-82.9187"/>
</g>
<!-- Node4 -->
<g id="node4" class="node"><title>Node4</title>
<g id="a_node4"><a xlink:href="decide_8h.html" target="_top" xlink:title="Módulo encarregue da interatividade com peças. ">
<polygon fill="white" stroke="black" points="13.2465,-112.5 13.2465,-131.5 66.2465,-131.5 66.2465,-112.5 13.2465,-112.5"/>
<text text-anchor="middle" x="39.7465" y="-119.5" font-family="Helvetica,sans-Serif" font-size="10.00">decide.h</text>
</a>
</g>
</g>
<!-- Node1&#45;&gt;Node4 -->
<g id="edge3" class="edge"><title>Node1&#45;&gt;Node4</title>
<path fill="none" stroke="midnightblue" d="M168.503,-168.444C142.876,-159.399 102.261,-145.064 73.508,-134.916"/>
<polygon fill="midnightblue" stroke="midnightblue" points="74.4711,-131.544 63.8763,-131.516 72.1414,-138.145 74.4711,-131.544"/>
</g>
<!-- Node5 -->
<g id="node5" class="node"><title>Node5</title>
<g id="a_node5"><a xlink:href="givehelp_8h.html" target="_top" xlink:title="Módulo para fornecimento de ajudas. ">
<polygon fill="white" stroke="black" points="84.2465,-112.5 84.2465,-131.5 145.246,-131.5 145.246,-112.5 84.2465,-112.5"/>
<text text-anchor="middle" x="114.746" y="-119.5" font-family="Helvetica,sans-Serif" font-size="10.00">givehelp.h</text>
</a>
</g>
</g>
<!-- Node1&#45;&gt;Node5 -->
<g id="edge5" class="edge"><title>Node1&#45;&gt;Node5</title>
<path fill="none" stroke="midnightblue" d="M180.214,-168.324C168.161,-159.979 149.72,-147.212 135.478,-137.352"/>
<polygon fill="midnightblue" stroke="midnightblue" points="137.462,-134.469 127.247,-131.655 133.477,-140.224 137.462,-134.469"/>
</g>
<!-- Node6 -->
<g id="node6" class="node"><title>Node6</title>
<g id="a_node6"><a xlink:href="validate_8h.html" target="_top" xlink:title="Módulo de funções utilizadas para verificação do tabuleiro. ">
<polygon fill="white" stroke="black" points="163.246,-112.5 163.246,-131.5 222.246,-131.5 222.246,-112.5 163.246,-112.5"/>
<text text-anchor="middle" x="192.746" y="-119.5" font-family="Helvetica,sans-Serif" font-size="10.00">validate.h</text>
</a>
</g>
</g>
<!-- Node1&#45;&gt;Node6 -->
<g id="edge7" class="edge"><title>Node1&#45;&gt;Node6</title>
<path fill="none" stroke="midnightblue" d="M192.746,-168.083C192.746,-161.006 192.746,-150.861 192.746,-141.986"/>
<polygon fill="midnightblue" stroke="midnightblue" points="196.247,-141.751 192.746,-131.751 189.247,-141.751 196.247,-141.751"/>
</g>
<!-- Node7 -->
<g id="node7" class="node"><title>Node7</title>
<g id="a_node7"><a xlink:href="solver_8h.html" target="_top" xlink:title="Algoritmo para resolver mapas e estruturas para obter mapas aleatórios. ">
<polygon fill="white" stroke="black" points="240.246,-112.5 240.246,-131.5 291.246,-131.5 291.246,-112.5 240.246,-112.5"/>
<text text-anchor="middle" x="265.746" y="-119.5" font-family="Helvetica,sans-Serif" font-size="10.00">solver.h</text>
</a>
</g>
</g>
<!-- Node1&#45;&gt;Node7 -->
<g id="edge8" class="edge"><title>Node1&#45;&gt;Node7</title>
<path fill="none" stroke="midnightblue" d="M204.475,-168.324C215.584,-160.107 232.489,-147.602 245.73,-137.807"/>
<polygon fill="midnightblue" stroke="midnightblue" points="247.846,-140.595 253.804,-131.834 243.683,-134.967 247.846,-140.595"/>
</g>
<!-- Node8 -->
<g id="node8" class="node"><title>Node8</title>
<polygon fill="white" stroke="#bfbfbf" points="309.746,-112.5 309.746,-131.5 355.746,-131.5 355.746,-112.5 309.746,-112.5"/>
<text text-anchor="middle" x="332.746" y="-119.5" font-family="Helvetica,sans-Serif" font-size="10.00">stdio.h</text>
</g>
<!-- Node1&#45;&gt;Node8 -->
<g id="edge10" class="edge"><title>Node1&#45;&gt;Node8</title>
<path fill="none" stroke="midnightblue" d="M214.93,-168.444C238.175,-159.478 274.895,-145.314 301.162,-135.183"/>
<polygon fill="midnightblue" stroke="midnightblue" points="302.596,-138.381 310.667,-131.516 300.077,-131.85 302.596,-138.381"/>
</g>
<!-- Node9 -->
<g id="node9" class="node"><title>Node9</title>
<polygon fill="white" stroke="#bfbfbf" points="374.246,-112.5 374.246,-131.5 423.246,-131.5 423.246,-112.5 374.246,-112.5"/>
<text text-anchor="middle" x="398.746" y="-119.5" font-family="Helvetica,sans-Serif" font-size="10.00">string.h</text>
</g>
<!-- Node1&#45;&gt;Node9 -->
<g id="edge11" class="edge"><title>Node1&#45;&gt;Node9</title>
<path fill="none" stroke="midnightblue" d="M223.513,-168.979C255.983,-160.508 308.915,-146.681 364.246,-132.126"/>
<polygon fill="midnightblue" stroke="midnightblue" points="365.455,-135.427 374.235,-129.497 363.673,-128.658 365.455,-135.427"/>
</g>
<!-- Node3 -->
<g id="node3" class="node"><title>Node3</title>
<g id="a_node3"><a xlink:href="stack_8h.html" target="_top" xlink:title="Módulo para operar sobre STACK. ">
<polygon fill="white" stroke="black" points="52.2465,-0.5 52.2465,-19.5 101.246,-19.5 101.246,-0.5 52.2465,-0.5"/>
<text text-anchor="middle" x="76.7465" y="-7.5" font-family="Helvetica,sans-Serif" font-size="10.00">stack.h</text>
</a>
</g>
</g>
<!-- Node2&#45;&gt;Node3 -->
<g id="edge2" class="edge"><title>Node2&#45;&gt;Node3</title>
<path fill="none" stroke="midnightblue" d="M76.7465,-56.083C76.7465,-49.0059 76.7465,-38.8611 76.7465,-29.9865"/>
<polygon fill="midnightblue" stroke="midnightblue" points="80.2466,-29.751 76.7465,-19.7511 73.2466,-29.7511 80.2466,-29.751"/>
</g>
<!-- Node4&#45;&gt;Node2 -->
<g id="edge4" class="edge"><title>Node4&#45;&gt;Node2</title>
<path fill="none" stroke="midnightblue" d="M45.8563,-112.083C51.0287,-104.534 58.5926,-93.4948 64.9409,-84.2298"/>
<polygon fill="midnightblue" stroke="midnightblue" points="67.9853,-85.9787 70.7503,-75.7511 62.2107,-82.0221 67.9853,-85.9787"/>
</g>
<!-- Node5&#45;&gt;Node2 -->
<g id="edge6" class="edge"><title>Node5&#45;&gt;Node2</title>
<path fill="none" stroke="midnightblue" d="M108.472,-112.083C103.104,-104.455 95.2289,-93.2645 88.6678,-83.9408"/>
<polygon fill="midnightblue" stroke="midnightblue" points="91.5219,-81.9149 82.9046,-75.7511 85.7973,-85.9434 91.5219,-81.9149"/>
</g>
<!-- Node7&#45;&gt;Node2 -->
<g id="edge9" class="edge"><title>Node7&#45;&gt;Node2</title>
<path fill="none" stroke="midnightblue" d="M239.863,-113.605C207.242,-104.285 150.954,-88.2022 113.785,-77.5824"/>
<polygon fill="midnightblue" stroke="midnightblue" points="114.42,-74.124 103.844,-74.742 112.497,-80.8547 114.42,-74.124"/>
</g>
</g>
</svg>
