<?xml version="1.0" encoding="UTF-8" standalone="no"?>
<!DOCTYPE svg PUBLIC "-//W3C//DTD SVG 1.1//EN"
 "http://www.w3.org/Graphics/SVG/1.1/DTD/svg11.dtd">
<!-- Generated by graphviz version 2.36.0 (20140111.2315)
 -->
<!-- Title: parser.c Pages: 1 -->
<svg width="626pt" height="252pt"
 viewBox="0.00 0.00 626.02 252.00" xmlns="http://www.w3.org/2000/svg" xmlns:xlink="http://www.w3.org/1999/xlink">
<g id="graph0" class="graph" transform="scale(1 1) rotate(0) translate(4 248)">
<title>parser.c</title>
<polygon fill="white" stroke="none" points="-4,4 -4,-248 622.016,-248 622.016,4 -4,4"/>
<!-- Node1 -->
<g id="node1" class="node"><title>Node1</title>
<polygon fill="#bfbfbf" stroke="black" points="283.016,-224.5 283.016,-243.5 335.016,-243.5 335.016,-224.5 283.016,-224.5"/>
<text text-anchor="middle" x="309.016" y="-231.5" font-family="Helvetica,sans-Serif" font-size="10.00">parser.c</text>
</g>
<!-- Node2 -->
<g id="node2" class="node"><title>Node2</title>
<g id="a_node2"><a xlink:href="estado_8h.html" target="_top" xlink:title="Ficheiro header contendo os dados relativos ao módulo ESTADO. ">
<polygon fill="white" stroke="black" points="359.016,-56.5 359.016,-75.5 413.016,-75.5 413.016,-56.5 359.016,-56.5"/>
<text text-anchor="middle" x="386.016" y="-63.5" font-family="Helvetica,sans-Serif" font-size="10.00">estado.h</text>
</a>
</g>
</g>
<!-- Node1&#45;&gt;Node2 -->
<g id="edge1" class="edge"><title>Node1&#45;&gt;Node2</title>
<path fill="none" stroke="midnightblue" d="M335.369,-231.113C384.991,-226.952 489.272,-215.121 511.016,-188 546.013,-144.349 464.916,-100.516 417.409,-79.6185"/>
<polygon fill="midnightblue" stroke="midnightblue" points="418.688,-76.3586 408.118,-75.6336 415.929,-82.7919 418.688,-76.3586"/>
</g>
<!-- Node4 -->
<g id="node4" class="node"><title>Node4</title>
<g id="a_node4"><a xlink:href="frontend_8h.html" target="_top" xlink:title="Módulo de tratamento gráfico. ">
<polygon fill="white" stroke="black" points="559.016,-112.5 559.016,-131.5 619.016,-131.5 619.016,-112.5 559.016,-112.5"/>
<text text-anchor="middle" x="589.016" y="-119.5" font-family="Helvetica,sans-Serif" font-size="10.00">frontend.h</text>
</a>
</g>
</g>
<!-- Node1&#45;&gt;Node4 -->
<g id="edge3" class="edge"><title>Node1&#45;&gt;Node4</title>
<path fill="none" stroke="midnightblue" d="M335.375,-230.53C389.443,-225.059 510.697,-210.587 545.016,-188 562.218,-176.678 574.444,-156.072 581.574,-141.088"/>
<polygon fill="midnightblue" stroke="midnightblue" points="584.84,-142.357 585.695,-131.796 578.441,-139.519 584.84,-142.357"/>
</g>
<!-- Node5 -->
<g id="node5" class="node"><title>Node5</title>
<polygon fill="white" stroke="#bfbfbf" points="100.016,-168.5 100.016,-187.5 148.016,-187.5 148.016,-168.5 100.016,-168.5"/>
<text text-anchor="middle" x="124.016" y="-175.5" font-family="Helvetica,sans-Serif" font-size="10.00">stdlib.h</text>
</g>
<!-- Node1&#45;&gt;Node5 -->
<g id="edge5" class="edge"><title>Node1&#45;&gt;Node5</title>
<path fill="none" stroke="midnightblue" d="M282.902,-225.378C250.267,-215.852 194.332,-199.525 158.283,-189.002"/>
<polygon fill="midnightblue" stroke="midnightblue" points="158.811,-185.51 148.231,-186.068 156.85,-192.23 158.811,-185.51"/>
</g>
<!-- Node6 -->
<g id="node6" class="node"><title>Node6</title>
<polygon fill="white" stroke="#bfbfbf" points="22.0157,-56.5 22.0157,-75.5 68.0157,-75.5 68.0157,-56.5 22.0157,-56.5"/>
<text text-anchor="middle" x="45.0157" y="-63.5" font-family="Helvetica,sans-Serif" font-size="10.00">stdio.h</text>
</g>
<!-- Node1&#45;&gt;Node6 -->
<g id="edge6" class="edge"><title>Node1&#45;&gt;Node6</title>
<path fill="none" stroke="midnightblue" d="M282.895,-233.195C216.875,-233.076 46.0781,-228.755 11.0157,-188 -14.8402,-157.947 13.1304,-109.605 31.5479,-84.0712"/>
<polygon fill="midnightblue" stroke="midnightblue" points="34.5746,-85.8695 37.7837,-75.7723 28.9784,-81.6644 34.5746,-85.8695"/>
</g>
<!-- Node7 -->
<g id="node7" class="node"><title>Node7</title>
<polygon fill="white" stroke="#bfbfbf" points="204.516,-168.5 204.516,-187.5 253.516,-187.5 253.516,-168.5 204.516,-168.5"/>
<text text-anchor="middle" x="229.016" y="-175.5" font-family="Helvetica,sans-Serif" font-size="10.00">string.h</text>
</g>
<!-- Node1&#45;&gt;Node7 -->
<g id="edge7" class="edge"><title>Node1&#45;&gt;Node7</title>
<path fill="none" stroke="midnightblue" d="M296.162,-224.324C283.799,-215.979 264.886,-203.212 250.279,-193.352"/>
<polygon fill="midnightblue" stroke="midnightblue" points="252.084,-190.348 241.837,-187.655 248.168,-196.15 252.084,-190.348"/>
</g>
<!-- Node8 -->
<g id="node8" class="node"><title>Node8</title>
<g id="a_node8"><a xlink:href="userfiles_8h.html" target="_top" xlink:title="Módulo para conversão entre ficheiros e ESTADO. ">
<polygon fill="white" stroke="black" points="20.0157,-168.5 20.0157,-187.5 82.0157,-187.5 82.0157,-168.5 20.0157,-168.5"/>
<text text-anchor="middle" x="51.0157" y="-175.5" font-family="Helvetica,sans-Serif" font-size="10.00">userfiles.h</text>
</a>
</g>
</g>
<!-- Node1&#45;&gt;Node8 -->
<g id="edge8" class="edge"><title>Node1&#45;&gt;Node8</title>
<path fill="none" stroke="midnightblue" d="M282.81,-227.747C243.601,-219.853 167.092,-204.321 92.4815,-188.289"/>
<polygon fill="midnightblue" stroke="midnightblue" points="92.9599,-184.812 82.447,-186.127 91.4856,-191.655 92.9599,-184.812"/>
</g>
<!-- Node10 -->
<g id="node10" class="node"><title>Node10</title>
<g id="a_node10"><a xlink:href="decide_8h.html" target="_top" xlink:title="Módulo encarregue da interatividade com peças. ">
<polygon fill="white" stroke="black" points="183.516,-112.5 183.516,-131.5 236.516,-131.5 236.516,-112.5 183.516,-112.5"/>
<text text-anchor="middle" x="210.016" y="-119.5" font-family="Helvetica,sans-Serif" font-size="10.00">decide.h</text>
</a>
</g>
</g>
<!-- Node1&#45;&gt;Node10 -->
<g id="edge12" class="edge"><title>Node1&#45;&gt;Node10</title>
<path fill="none" stroke="midnightblue" d="M282.761,-230.777C255.863,-226.941 215.334,-216.487 196.016,-188 186.527,-174.008 192.477,-154.752 199.307,-140.834"/>
<polygon fill="midnightblue" stroke="midnightblue" points="202.52,-142.252 204.227,-131.795 196.372,-138.905 202.52,-142.252"/>
</g>
<!-- Node11 -->
<g id="node11" class="node"><title>Node11</title>
<g id="a_node11"><a xlink:href="filemanager_8h.html" target="_top" xlink:title="Módulo de leitura de ficheiros. ">
<polygon fill="white" stroke="black" points="271.516,-168.5 271.516,-187.5 346.516,-187.5 346.516,-168.5 271.516,-168.5"/>
<text text-anchor="middle" x="309.016" y="-175.5" font-family="Helvetica,sans-Serif" font-size="10.00">filemanager.h</text>
</a>
</g>
</g>
<!-- Node1&#45;&gt;Node11 -->
<g id="edge14" class="edge"><title>Node1&#45;&gt;Node11</title>
<path fill="none" stroke="midnightblue" d="M309.016,-224.083C309.016,-217.006 309.016,-206.861 309.016,-197.986"/>
<polygon fill="midnightblue" stroke="midnightblue" points="312.516,-197.751 309.016,-187.751 305.516,-197.751 312.516,-197.751"/>
</g>
<!-- Node12 -->
<g id="node12" class="node"><title>Node12</title>
<g id="a_node12"><a xlink:href="solver_8h.html" target="_top" xlink:title="Algoritmo para resolver mapas e estruturas para obter mapas aleatórios. ">
<polygon fill="white" stroke="black" points="327.516,-112.5 327.516,-131.5 378.516,-131.5 378.516,-112.5 327.516,-112.5"/>
<text text-anchor="middle" x="353.016" y="-119.5" font-family="Helvetica,sans-Serif" font-size="10.00">solver.h</text>
</a>
</g>
</g>
<!-- Node1&#45;&gt;Node12 -->
<g id="edge21" class="edge"><title>Node1&#45;&gt;Node12</title>
<path fill="none" stroke="midnightblue" d="M322.802,-224.189C333.842,-216.241 348.518,-203.447 355.016,-188 361.172,-173.365 359.961,-155.195 357.62,-141.79"/>
<polygon fill="midnightblue" stroke="midnightblue" points="361.008,-140.897 355.523,-131.832 354.158,-142.338 361.008,-140.897"/>
</g>
<!-- Node13 -->
<g id="node13" class="node"><title>Node13</title>
<g id="a_node13"><a xlink:href="state_8h.html" target="_top" xlink:title="Módulo para alterar estado. ">
<polygon fill="white" stroke="black" points="396.516,-112.5 396.516,-131.5 443.516,-131.5 443.516,-112.5 396.516,-112.5"/>
<text text-anchor="middle" x="420.016" y="-119.5" font-family="Helvetica,sans-Serif" font-size="10.00">state.h</text>
</a>
</g>
</g>
<!-- Node1&#45;&gt;Node13 -->
<g id="edge19" class="edge"><title>Node1&#45;&gt;Node13</title>
<path fill="none" stroke="midnightblue" d="M323.504,-224.498C336.947,-216.202 357.072,-202.709 372.016,-188 386.8,-173.448 400.52,-154.02 409.473,-140.204"/>
<polygon fill="midnightblue" stroke="midnightblue" points="412.485,-141.989 414.863,-131.664 406.566,-138.252 412.485,-141.989"/>
</g>
<!-- Node14 -->
<g id="node14" class="node"><title>Node14</title>
<g id="a_node14"><a xlink:href="givehelp_8h.html" target="_top" xlink:title="Módulo para fornecimento de ajudas. ">
<polygon fill="white" stroke="black" points="441.516,-168.5 441.516,-187.5 502.516,-187.5 502.516,-168.5 441.516,-168.5"/>
<text text-anchor="middle" x="472.016" y="-175.5" font-family="Helvetica,sans-Serif" font-size="10.00">givehelp.h</text>
</a>
</g>
</g>
<!-- Node1&#45;&gt;Node14 -->
<g id="edge22" class="edge"><title>Node1&#45;&gt;Node14</title>
<path fill="none" stroke="midnightblue" d="M334.844,-224.444C362.265,-215.359 405.793,-200.939 436.448,-190.783"/>
<polygon fill="midnightblue" stroke="midnightblue" points="437.917,-193.984 446.309,-187.516 435.715,-187.339 437.917,-193.984"/>
</g>
<!-- Node3 -->
<g id="node3" class="node"><title>Node3</title>
<g id="a_node3"><a xlink:href="stack_8h.html" target="_top" xlink:title="Módulo para operar sobre STACK. ">
<polygon fill="white" stroke="black" points="361.516,-0.5 361.516,-19.5 410.516,-19.5 410.516,-0.5 361.516,-0.5"/>
<text text-anchor="middle" x="386.016" y="-7.5" font-family="Helvetica,sans-Serif" font-size="10.00">stack.h</text>
</a>
</g>
</g>
<!-- Node2&#45;&gt;Node3 -->
<g id="edge2" class="edge"><title>Node2&#45;&gt;Node3</title>
<path fill="none" stroke="midnightblue" d="M386.016,-56.083C386.016,-49.0059 386.016,-38.8611 386.016,-29.9865"/>
<polygon fill="midnightblue" stroke="midnightblue" points="389.516,-29.751 386.016,-19.7511 382.516,-29.7511 389.516,-29.751"/>
</g>
<!-- Node4&#45;&gt;Node2 -->
<g id="edge4" class="edge"><title>Node4&#45;&gt;Node2</title>
<path fill="none" stroke="midnightblue" d="M558.625,-112.916C522.377,-103.274 461.816,-87.1636 422.916,-76.8158"/>
<polygon fill="midnightblue" stroke="midnightblue" points="423.603,-73.3768 413.039,-74.1884 421.803,-80.1416 423.603,-73.3768"/>
</g>
<!-- Node8&#45;&gt;Node2 -->
<g id="edge11" class="edge"><title>Node8&#45;&gt;Node2</title>
<path fill="none" stroke="midnightblue" d="M50.7934,-168.29C50.9472,-154.144 53.4881,-126.319 70.0157,-112 111.032,-76.4637 274.267,-68.9631 348.69,-67.4001"/>
<polygon fill="midnightblue" stroke="midnightblue" points="349.067,-70.8938 359.001,-67.2099 348.938,-63.895 349.067,-70.8938"/>
</g>
<!-- Node9 -->
<g id="node9" class="node"><title>Node9</title>
<g id="a_node9"><a xlink:href="cgi_8h.html" target="_top" xlink:title="Macros úteis para gerar CGIs. ">
<polygon fill="white" stroke="black" points="79.0157,-112.5 79.0157,-131.5 117.016,-131.5 117.016,-112.5 79.0157,-112.5"/>
<text text-anchor="middle" x="98.0157" y="-119.5" font-family="Helvetica,sans-Serif" font-size="10.00">cgi.h</text>
</a>
</g>
</g>
<!-- Node8&#45;&gt;Node9 -->
<g id="edge9" class="edge"><title>Node8&#45;&gt;Node9</title>
<path fill="none" stroke="midnightblue" d="M58.7768,-168.083C65.5525,-160.298 75.5589,-148.801 83.7708,-139.367"/>
<polygon fill="midnightblue" stroke="midnightblue" points="86.4739,-141.592 90.3991,-131.751 81.1937,-136.996 86.4739,-141.592"/>
</g>
<!-- Node9&#45;&gt;Node6 -->
<g id="edge10" class="edge"><title>Node9&#45;&gt;Node6</title>
<path fill="none" stroke="midnightblue" d="M89.2639,-112.083C81.546,-104.22 70.1111,-92.5688 60.7992,-83.0813"/>
<polygon fill="midnightblue" stroke="midnightblue" points="63.1074,-80.4363 53.6048,-75.7511 58.1116,-85.3396 63.1074,-80.4363"/>
</g>
<!-- Node10&#45;&gt;Node2 -->
<g id="edge13" class="edge"><title>Node10&#45;&gt;Node2</title>
<path fill="none" stroke="midnightblue" d="M236.746,-112.799C266.638,-103.627 315.254,-88.7111 348.84,-78.4062"/>
<polygon fill="midnightblue" stroke="midnightblue" points="350.21,-81.647 358.743,-75.3676 348.157,-74.9549 350.21,-81.647"/>
</g>
<!-- Node11&#45;&gt;Node2 -->
<g id="edge15" class="edge"><title>Node11&#45;&gt;Node2</title>
<path fill="none" stroke="midnightblue" d="M308.246,-168.243C307.519,-154.993 307.872,-129.539 319.016,-112 327.807,-98.1626 342.558,-87.5739 355.984,-80.1548"/>
<polygon fill="midnightblue" stroke="midnightblue" points="357.689,-83.2134 364.978,-75.5239 354.485,-76.99 357.689,-83.2134"/>
</g>
<!-- Node11&#45;&gt;Node9 -->
<g id="edge18" class="edge"><title>Node11&#45;&gt;Node9</title>
<path fill="none" stroke="midnightblue" d="M275.582,-168.444C234.688,-157.978 166.123,-140.43 127.244,-130.48"/>
<polygon fill="midnightblue" stroke="midnightblue" points="127.669,-126.976 117.113,-127.888 125.933,-133.758 127.669,-126.976"/>
</g>
<!-- Node11&#45;&gt;Node12 -->
<g id="edge16" class="edge"><title>Node11&#45;&gt;Node12</title>
<path fill="none" stroke="midnightblue" d="M316.281,-168.083C322.561,-160.377 331.803,-149.033 339.447,-139.653"/>
<polygon fill="midnightblue" stroke="midnightblue" points="342.282,-141.714 345.885,-131.751 336.855,-137.293 342.282,-141.714"/>
</g>
<!-- Node12&#45;&gt;Node2 -->
<g id="edge17" class="edge"><title>Node12&#45;&gt;Node2</title>
<path fill="none" stroke="midnightblue" d="M358.465,-112.083C363.03,-104.613 369.684,-93.7244 375.309,-84.5199"/>
<polygon fill="midnightblue" stroke="midnightblue" points="378.44,-86.109 380.668,-75.7511 372.467,-82.4588 378.44,-86.109"/>
</g>
<!-- Node13&#45;&gt;Node2 -->
<g id="edge20" class="edge"><title>Node13&#45;&gt;Node2</title>
<path fill="none" stroke="midnightblue" d="M414.401,-112.083C409.648,-104.534 402.698,-93.4948 396.864,-84.2298"/>
<polygon fill="midnightblue" stroke="midnightblue" points="399.816,-82.3486 391.526,-75.7511 393.892,-86.0783 399.816,-82.3486"/>
</g>
<!-- Node14&#45;&gt;Node2 -->
<g id="edge23" class="edge"><title>Node14&#45;&gt;Node2</title>
<path fill="none" stroke="midnightblue" d="M471.166,-168.181C469.498,-154.851 464.77,-129.294 452.016,-112 442.279,-98.7974 427.449,-88.188 414.311,-80.5942"/>
<polygon fill="midnightblue" stroke="midnightblue" points="415.598,-77.3096 405.141,-75.6037 412.252,-83.4581 415.598,-77.3096"/>
</g>
</g>
</svg>
