<?xml version="1.0" encoding="UTF-8" standalone="no"?>
<!DOCTYPE svg PUBLIC "-//W3C//DTD SVG 1.1//EN"
 "http://www.w3.org/Graphics/SVG/1.1/DTD/svg11.dtd">
<!-- Generated by graphviz version 2.36.0 (20140111.2315)
 -->
<!-- Title: solver.c Pages: 1 -->
<svg width="318pt" height="196pt"
 viewBox="0.00 0.00 318.00 196.00" xmlns="http://www.w3.org/2000/svg" xmlns:xlink="http://www.w3.org/1999/xlink">
<g id="graph0" class="graph" transform="scale(1 1) rotate(0) translate(4 192)">
<title>solver.c</title>
<polygon fill="white" stroke="none" points="-4,4 -4,-192 314,-192 314,4 -4,4"/>
<!-- Node1 -->
<g id="node1" class="node"><title>Node1</title>
<polygon fill="#bfbfbf" stroke="black" points="126.5,-168.5 126.5,-187.5 177.5,-187.5 177.5,-168.5 126.5,-168.5"/>
<text text-anchor="middle" x="152" y="-175.5" font-family="Helvetica,sans-Serif" font-size="10.00">solver.c</text>
</g>
<!-- Node2 -->
<g id="node2" class="node"><title>Node2</title>
<polygon fill="white" stroke="#bfbfbf" points="0,-112.5 0,-131.5 48,-131.5 48,-112.5 0,-112.5"/>
<text text-anchor="middle" x="24" y="-119.5" font-family="Helvetica,sans-Serif" font-size="10.00">stdlib.h</text>
</g>
<!-- Node1&#45;&gt;Node2 -->
<g id="edge1" class="edge"><title>Node1&#45;&gt;Node2</title>
<path fill="none" stroke="midnightblue" d="M131.718,-168.444C110.653,-159.557 77.4832,-145.563 53.5145,-135.451"/>
<polygon fill="midnightblue" stroke="midnightblue" points="54.7612,-132.179 44.1871,-131.516 52.0403,-138.628 54.7612,-132.179"/>
</g>
<!-- Node3 -->
<g id="node3" class="node"><title>Node3</title>
<polygon fill="white" stroke="#bfbfbf" points="66,-112.5 66,-131.5 112,-131.5 112,-112.5 66,-112.5"/>
<text text-anchor="middle" x="89" y="-119.5" font-family="Helvetica,sans-Serif" font-size="10.00">stdio.h</text>
</g>
<!-- Node1&#45;&gt;Node3 -->
<g id="edge2" class="edge"><title>Node1&#45;&gt;Node3</title>
<path fill="none" stroke="midnightblue" d="M141.878,-168.324C132.474,-160.263 118.256,-148.077 106.931,-138.369"/>
<polygon fill="midnightblue" stroke="midnightblue" points="109.177,-135.684 99.3062,-131.834 104.621,-140.999 109.177,-135.684"/>
</g>
<!-- Node4 -->
<g id="node4" class="node"><title>Node4</title>
<polygon fill="white" stroke="#bfbfbf" points="130,-112.5 130,-131.5 174,-131.5 174,-112.5 130,-112.5"/>
<text text-anchor="middle" x="152" y="-119.5" font-family="Helvetica,sans-Serif" font-size="10.00">time.h</text>
</g>
<!-- Node1&#45;&gt;Node4 -->
<g id="edge3" class="edge"><title>Node1&#45;&gt;Node4</title>
<path fill="none" stroke="midnightblue" d="M152,-168.083C152,-161.006 152,-150.861 152,-141.986"/>
<polygon fill="midnightblue" stroke="midnightblue" points="155.5,-141.751 152,-131.751 148.5,-141.751 155.5,-141.751"/>
</g>
<!-- Node5 -->
<g id="node5" class="node"><title>Node5</title>
<g id="a_node5"><a xlink:href="solver_8h.html" target="_top" xlink:title="Algoritmo para resolver mapas e estruturas para obter mapas aleatórios. ">
<polygon fill="white" stroke="black" points="192.5,-112.5 192.5,-131.5 243.5,-131.5 243.5,-112.5 192.5,-112.5"/>
<text text-anchor="middle" x="218" y="-119.5" font-family="Helvetica,sans-Serif" font-size="10.00">solver.h</text>
</a>
</g>
</g>
<!-- Node1&#45;&gt;Node5 -->
<g id="edge4" class="edge"><title>Node1&#45;&gt;Node5</title>
<path fill="none" stroke="midnightblue" d="M162.604,-168.324C172.456,-160.263 187.351,-148.077 199.215,-138.369"/>
<polygon fill="midnightblue" stroke="midnightblue" points="201.68,-140.875 207.203,-131.834 197.247,-135.457 201.68,-140.875"/>
</g>
<!-- Node8 -->
<g id="node8" class="node"><title>Node8</title>
<polygon fill="white" stroke="#bfbfbf" points="261.5,-112.5 261.5,-131.5 310.5,-131.5 310.5,-112.5 261.5,-112.5"/>
<text text-anchor="middle" x="286" y="-119.5" font-family="Helvetica,sans-Serif" font-size="10.00">string.h</text>
</g>
<!-- Node1&#45;&gt;Node8 -->
<g id="edge7" class="edge"><title>Node1&#45;&gt;Node8</title>
<path fill="none" stroke="midnightblue" d="M173.233,-168.444C195.384,-159.517 230.319,-145.439 255.436,-135.317"/>
<polygon fill="midnightblue" stroke="midnightblue" points="256.9,-138.501 264.867,-131.516 254.283,-132.008 256.9,-138.501"/>
</g>
<!-- Node6 -->
<g id="node6" class="node"><title>Node6</title>
<g id="a_node6"><a xlink:href="estado_8h.html" target="_top" xlink:title="Ficheiro header contendo os dados relativos ao módulo ESTADO. ">
<polygon fill="white" stroke="black" points="191,-56.5 191,-75.5 245,-75.5 245,-56.5 191,-56.5"/>
<text text-anchor="middle" x="218" y="-63.5" font-family="Helvetica,sans-Serif" font-size="10.00">estado.h</text>
</a>
</g>
</g>
<!-- Node5&#45;&gt;Node6 -->
<g id="edge5" class="edge"><title>Node5&#45;&gt;Node6</title>
<path fill="none" stroke="midnightblue" d="M218,-112.083C218,-105.006 218,-94.8611 218,-85.9865"/>
<polygon fill="midnightblue" stroke="midnightblue" points="221.5,-85.751 218,-75.7511 214.5,-85.7511 221.5,-85.751"/>
</g>
<!-- Node7 -->
<g id="node7" class="node"><title>Node7</title>
<g id="a_node7"><a xlink:href="stack_8h.html" target="_top" xlink:title="Módulo para operar sobre STACK. ">
<polygon fill="white" stroke="black" points="193.5,-0.5 193.5,-19.5 242.5,-19.5 242.5,-0.5 193.5,-0.5"/>
<text text-anchor="middle" x="218" y="-7.5" font-family="Helvetica,sans-Serif" font-size="10.00">stack.h</text>
</a>
</g>
</g>
<!-- Node6&#45;&gt;Node7 -->
<g id="edge6" class="edge"><title>Node6&#45;&gt;Node7</title>
<path fill="none" stroke="midnightblue" d="M218,-56.083C218,-49.0059 218,-38.8611 218,-29.9865"/>
<polygon fill="midnightblue" stroke="midnightblue" points="221.5,-29.751 218,-19.7511 214.5,-29.7511 221.5,-29.751"/>
</g>
</g>
</svg>
