<?xml version="1.0" encoding="UTF-8" standalone="no"?>
<!DOCTYPE svg PUBLIC "-//W3C//DTD SVG 1.1//EN"
 "http://www.w3.org/Graphics/SVG/1.1/DTD/svg11.dtd">
<!-- Generated by graphviz version 2.36.0 (20140111.2315)
 -->
<!-- Title: solver.h Pages: 1 -->
<svg width="611pt" height="140pt"
 viewBox="0.00 0.00 611.00 140.00" xmlns="http://www.w3.org/2000/svg" xmlns:xlink="http://www.w3.org/1999/xlink">
<g id="graph0" class="graph" transform="scale(1 1) rotate(0) translate(4 136)">
<title>solver.h</title>
<polygon fill="white" stroke="none" points="-4,4 -4,-136 607,-136 607,4 -4,4"/>
<!-- Node1 -->
<g id="node1" class="node"><title>Node1</title>
<polygon fill="#bfbfbf" stroke="black" points="297.5,-112.5 297.5,-131.5 348.5,-131.5 348.5,-112.5 297.5,-112.5"/>
<text text-anchor="middle" x="323" y="-119.5" font-family="Helvetica,sans-Serif" font-size="10.00">solver.h</text>
</g>
<!-- Node2 -->
<g id="node2" class="node"><title>Node2</title>
<g id="a_node2"><a xlink:href="filemanager_8h.html" target="_top" xlink:title="Módulo de leitura de ficheiros. ">
<polygon fill="white" stroke="black" points="200.5,-56.5 200.5,-75.5 275.5,-75.5 275.5,-56.5 200.5,-56.5"/>
<text text-anchor="middle" x="238" y="-63.5" font-family="Helvetica,sans-Serif" font-size="10.00">filemanager.h</text>
</a>
</g>
</g>
<!-- Node1&#45;&gt;Node2 -->
<g id="edge1" class="edge"><title>Node1&#45;&gt;Node2</title>
<path fill="none" stroke="midnightblue" d="M300.806,-106.901C285.22,-96.9986 264.87,-84.0705 251.623,-75.6545"/>
<polygon fill="midnightblue" stroke="midnightblue" points="299.026,-109.916 309.343,-112.324 302.779,-104.007 299.026,-109.916"/>
</g>
<!-- Node3 -->
<g id="node3" class="node"><title>Node3</title>
<g id="a_node3"><a xlink:href="estado_8c.html" target="_top" xlink:title="Ficheiro contendo o código relativo ao módulo ESTADO. ">
<polygon fill="white" stroke="black" points="0,-0.5 0,-19.5 54,-19.5 54,-0.5 0,-0.5"/>
<text text-anchor="middle" x="27" y="-7.5" font-family="Helvetica,sans-Serif" font-size="10.00">estado.c</text>
</a>
</g>
</g>
<!-- Node1&#45;&gt;Node3 -->
<g id="edge8" class="edge"><title>Node1&#45;&gt;Node3</title>
<path fill="none" stroke="midnightblue" d="M287.22,-113.905C252.319,-106.434 198.057,-93.3474 153,-76 110.734,-59.7272 64.1337,-33.2675 41.2642,-19.671"/>
<polygon fill="midnightblue" stroke="midnightblue" points="286.892,-117.412 297.398,-116.042 288.33,-110.562 286.892,-117.412"/>
</g>
<!-- Node4 -->
<g id="node4" class="node"><title>Node4</title>
<g id="a_node4"><a xlink:href="filemanager_8c.html" target="_top" xlink:title="Módulo de leitura de ficheiros. ">
<polygon fill="white" stroke="black" points="72.5,-0.5 72.5,-19.5 147.5,-19.5 147.5,-0.5 72.5,-0.5"/>
<text text-anchor="middle" x="110" y="-7.5" font-family="Helvetica,sans-Serif" font-size="10.00">filemanager.c</text>
</a>
</g>
</g>
<!-- Node1&#45;&gt;Node4 -->
<g id="edge9" class="edge"><title>Node1&#45;&gt;Node4</title>
<path fill="none" stroke="midnightblue" d="M287.586,-114.1C257.988,-107.328 215.38,-95.185 182,-76 155.135,-60.5596 129.693,-33.7357 117.507,-19.8686"/>
<polygon fill="midnightblue" stroke="midnightblue" points="286.959,-117.545 297.477,-116.274 288.461,-110.708 286.959,-117.545"/>
</g>
<!-- Node5 -->
<g id="node5" class="node"><title>Node5</title>
<g id="a_node5"><a xlink:href="frontend_8c.html" target="_top" xlink:title="Módulo de tratamento gráfico. ">
<polygon fill="white" stroke="black" points="165,-0.5 165,-19.5 225,-19.5 225,-0.5 165,-0.5"/>
<text text-anchor="middle" x="195" y="-7.5" font-family="Helvetica,sans-Serif" font-size="10.00">frontend.c</text>
</a>
</g>
</g>
<!-- Node1&#45;&gt;Node5 -->
<g id="edge10" class="edge"><title>Node1&#45;&gt;Node5</title>
<path fill="none" stroke="midnightblue" d="M287.076,-119.578C256.223,-116.226 213.434,-106.026 192,-76 179.923,-59.0822 186.757,-32.9046 191.556,-19.518"/>
<polygon fill="midnightblue" stroke="midnightblue" points="287.165,-123.1 297.436,-120.5 287.786,-116.127 287.165,-123.1"/>
</g>
<!-- Node6 -->
<g id="node6" class="node"><title>Node6</title>
<g id="a_node6"><a xlink:href="frontendTab_8c.html" target="_top" xlink:title="Módulo de tratamento gráfico, especializado ao tabuleiro. ">
<polygon fill="white" stroke="black" points="243.5,-0.5 243.5,-19.5 320.5,-19.5 320.5,-0.5 243.5,-0.5"/>
<text text-anchor="middle" x="282" y="-7.5" font-family="Helvetica,sans-Serif" font-size="10.00">frontendTab.c</text>
</a>
</g>
</g>
<!-- Node1&#45;&gt;Node6 -->
<g id="edge11" class="edge"><title>Node1&#45;&gt;Node6</title>
<path fill="none" stroke="midnightblue" d="M316.29,-102.998C307.344,-78.9968 291.865,-37.4683 285.202,-19.5914"/>
<polygon fill="midnightblue" stroke="midnightblue" points="313.011,-104.221 319.783,-112.368 319.57,-101.776 313.011,-104.221"/>
</g>
<!-- Node7 -->
<g id="node7" class="node"><title>Node7</title>
<g id="a_node7"><a xlink:href="parser_8c.html" target="_top" xlink:title="Módulo de User input / Interpertador de comandos. ">
<polygon fill="white" stroke="black" points="339,-0.5 339,-19.5 391,-19.5 391,-0.5 339,-0.5"/>
<text text-anchor="middle" x="365" y="-7.5" font-family="Helvetica,sans-Serif" font-size="10.00">parser.c</text>
</a>
</g>
</g>
<!-- Node1&#45;&gt;Node7 -->
<g id="edge14" class="edge"><title>Node1&#45;&gt;Node7</title>
<path fill="none" stroke="midnightblue" d="M329.873,-102.998C339.038,-78.9968 354.894,-37.4683 361.72,-19.5914"/>
<polygon fill="midnightblue" stroke="midnightblue" points="326.593,-101.778 326.296,-112.368 333.133,-104.275 326.593,-101.778"/>
</g>
<!-- Node8 -->
<g id="node8" class="node"><title>Node8</title>
<g id="a_node8"><a xlink:href="state_8c.html" target="_top" xlink:title="Módulo para alterar estado. ">
<polygon fill="white" stroke="black" points="409.5,-0.5 409.5,-19.5 456.5,-19.5 456.5,-0.5 409.5,-0.5"/>
<text text-anchor="middle" x="433" y="-7.5" font-family="Helvetica,sans-Serif" font-size="10.00">state.c</text>
</a>
</g>
</g>
<!-- Node1&#45;&gt;Node8 -->
<g id="edge16" class="edge"><title>Node1&#45;&gt;Node8</title>
<path fill="none" stroke="midnightblue" d="M338.795,-105.205C362.373,-81.6272 405.971,-38.0294 424.409,-19.5914"/>
<polygon fill="midnightblue" stroke="midnightblue" points="336.228,-102.823 331.632,-112.368 341.177,-107.772 336.228,-102.823"/>
</g>
<!-- Node9 -->
<g id="node9" class="node"><title>Node9</title>
<g id="a_node9"><a xlink:href="gerar_8c.html" target="_top" xlink:title="Ficheiro de geração de tabuleiro aleatório. ">
<polygon fill="white" stroke="black" points="408.5,-56.5 408.5,-75.5 455.5,-75.5 455.5,-56.5 408.5,-56.5"/>
<text text-anchor="middle" x="432" y="-63.5" font-family="Helvetica,sans-Serif" font-size="10.00">gerar.c</text>
</a>
</g>
</g>
<!-- Node1&#45;&gt;Node9 -->
<g id="edge12" class="edge"><title>Node1&#45;&gt;Node9</title>
<path fill="none" stroke="midnightblue" d="M349.519,-107.862C369.73,-97.8492 396.987,-84.3458 414.531,-75.6545"/>
<polygon fill="midnightblue" stroke="midnightblue" points="347.92,-104.748 340.513,-112.324 351.027,-111.021 347.92,-104.748"/>
</g>
<!-- Node10 -->
<g id="node10" class="node"><title>Node10</title>
<g id="a_node10"><a xlink:href="givehelp_8c.html" target="_top" xlink:title="Módulo para fornecimento de ajudas. ">
<polygon fill="white" stroke="black" points="473.5,-56.5 473.5,-75.5 534.5,-75.5 534.5,-56.5 473.5,-56.5"/>
<text text-anchor="middle" x="504" y="-63.5" font-family="Helvetica,sans-Serif" font-size="10.00">givehelp.c</text>
</a>
</g>
</g>
<!-- Node1&#45;&gt;Node10 -->
<g id="edge13" class="edge"><title>Node1&#45;&gt;Node10</title>
<path fill="none" stroke="midnightblue" d="M358.568,-110.388C392.718,-100.2 443.653,-85.004 475.296,-75.5637"/>
<polygon fill="midnightblue" stroke="midnightblue" points="357.131,-107.165 348.549,-113.378 359.132,-113.873 357.131,-107.165"/>
</g>
<!-- Node11 -->
<g id="node11" class="node"><title>Node11</title>
<g id="a_node11"><a xlink:href="solver_8c.html" target="_top" xlink:title="Ficheiro dedicado à análise do espaço de soluções. ">
<polygon fill="white" stroke="black" points="552.5,-56.5 552.5,-75.5 603.5,-75.5 603.5,-56.5 552.5,-56.5"/>
<text text-anchor="middle" x="578" y="-63.5" font-family="Helvetica,sans-Serif" font-size="10.00">solver.c</text>
</a>
</g>
</g>
<!-- Node1&#45;&gt;Node11 -->
<g id="edge15" class="edge"><title>Node1&#45;&gt;Node11</title>
<path fill="none" stroke="midnightblue" d="M358.674,-114.271C402.289,-105.914 478.291,-90.928 543,-76 546.057,-75.2948 549.255,-74.5218 552.422,-73.7343"/>
<polygon fill="midnightblue" stroke="midnightblue" points="357.998,-110.837 348.831,-116.15 359.31,-117.713 357.998,-110.837"/>
</g>
<!-- Node2&#45;&gt;Node3 -->
<g id="edge2" class="edge"><title>Node2&#45;&gt;Node3</title>
<path fill="none" stroke="midnightblue" d="M194.855,-53.9582C152.714,-43.1734 89.8708,-27.0902 54.2384,-17.971"/>
<polygon fill="midnightblue" stroke="midnightblue" points="194.011,-57.3549 204.566,-56.4435 195.746,-50.5734 194.011,-57.3549"/>
</g>
<!-- Node2&#45;&gt;Node4 -->
<g id="edge3" class="edge"><title>Node2&#45;&gt;Node4</title>
<path fill="none" stroke="midnightblue" d="M208.377,-52.503C184.381,-42.3795 151.216,-28.388 130.187,-19.5164"/>
<polygon fill="midnightblue" stroke="midnightblue" points="207.144,-55.7813 217.718,-56.4435 209.865,-49.3317 207.144,-55.7813"/>
</g>
<!-- Node2&#45;&gt;Node5 -->
<g id="edge4" class="edge"><title>Node2&#45;&gt;Node5</title>
<path fill="none" stroke="midnightblue" d="M224.578,-48.144C217.086,-38.7357 208.063,-27.4046 201.968,-19.7511"/>
<polygon fill="midnightblue" stroke="midnightblue" points="221.932,-50.4404 230.899,-56.083 227.408,-46.0799 221.932,-50.4404"/>
</g>
<!-- Node2&#45;&gt;Node6 -->
<g id="edge5" class="edge"><title>Node2&#45;&gt;Node6</title>
<path fill="none" stroke="midnightblue" d="M251.735,-48.144C259.401,-38.7357 268.633,-27.4046 274.869,-19.7511"/>
<polygon fill="midnightblue" stroke="midnightblue" points="248.869,-46.1198 245.266,-56.083 254.296,-50.5415 248.869,-46.1198"/>
</g>
<!-- Node2&#45;&gt;Node7 -->
<g id="edge6" class="edge"><title>Node2&#45;&gt;Node7</title>
<path fill="none" stroke="midnightblue" d="M267.391,-52.503C291.2,-42.3795 324.106,-28.388 344.971,-19.5164"/>
<polygon fill="midnightblue" stroke="midnightblue" points="265.957,-49.3096 258.124,-56.4435 268.696,-55.7515 265.957,-49.3096"/>
</g>
<!-- Node2&#45;&gt;Node8 -->
<g id="edge7" class="edge"><title>Node2&#45;&gt;Node8</title>
<path fill="none" stroke="midnightblue" d="M278.757,-53.7134C318.284,-42.7674 376.896,-26.5366 409.3,-17.5631"/>
<polygon fill="midnightblue" stroke="midnightblue" points="277.602,-50.4016 268.898,-56.4435 279.47,-57.1477 277.602,-50.4016"/>
</g>
</g>
</svg>
