<?xml version="1.0" encoding="UTF-8" standalone="no"?>
<!DOCTYPE svg PUBLIC "-//W3C//DTD SVG 1.1//EN"
 "http://www.w3.org/Graphics/SVG/1.1/DTD/svg11.dtd">
<!-- Generated by graphviz version 2.36.0 (20140111.2315)
 -->
<!-- Title: stack.h Pages: 1 -->
<svg width="1214pt" height="252pt"
 viewBox="0.00 0.00 1214.00 252.00" xmlns="http://www.w3.org/2000/svg" xmlns:xlink="http://www.w3.org/1999/xlink">
<g id="graph0" class="graph" transform="scale(1 1) rotate(0) translate(4 248)">
<title>stack.h</title>
<polygon fill="white" stroke="none" points="-4,4 -4,-248 1210,-248 1210,4 -4,4"/>
<!-- Node1 -->
<g id="node1" class="node"><title>Node1</title>
<polygon fill="#bfbfbf" stroke="black" points="1066.5,-224.5 1066.5,-243.5 1115.5,-243.5 1115.5,-224.5 1066.5,-224.5"/>
<text text-anchor="middle" x="1091" y="-231.5" font-family="Helvetica,sans-Serif" font-size="10.00">stack.h</text>
</g>
<!-- Node2 -->
<g id="node2" class="node"><title>Node2</title>
<g id="a_node2"><a xlink:href="estado_8h.html" target="_top" xlink:title="Ficheiro header contendo os dados relativos ao módulo ESTADO. ">
<polygon fill="white" stroke="black" points="652,-168.5 652,-187.5 706,-187.5 706,-168.5 652,-168.5"/>
<text text-anchor="middle" x="679" y="-175.5" font-family="Helvetica,sans-Serif" font-size="10.00">estado.h</text>
</a>
</g>
</g>
<!-- Node1&#45;&gt;Node2 -->
<g id="edge1" class="edge"><title>Node1&#45;&gt;Node2</title>
<path fill="none" stroke="midnightblue" d="M1056.37,-228.462C976.047,-217.933 778.375,-192.025 706.062,-182.547"/>
<polygon fill="midnightblue" stroke="midnightblue" points="1056.09,-231.954 1066.46,-229.784 1057,-225.014 1056.09,-231.954"/>
</g>
<!-- Node9 -->
<g id="node9" class="node"><title>Node9</title>
<g id="a_node9"><a xlink:href="state_8c.html" target="_top" xlink:title="Módulo para alterar estado. ">
<polygon fill="white" stroke="black" points="723.5,-0.5 723.5,-19.5 770.5,-19.5 770.5,-0.5 723.5,-0.5"/>
<text text-anchor="middle" x="747" y="-7.5" font-family="Helvetica,sans-Serif" font-size="10.00">state.c</text>
</a>
</g>
</g>
<!-- Node1&#45;&gt;Node9 -->
<g id="edge61" class="edge"><title>Node1&#45;&gt;Node9</title>
<path fill="none" stroke="midnightblue" d="M1100.49,-215.156C1117.79,-179.886 1149.16,-100.794 1109,-56 1059.9,-1.23863 852.257,-33.7182 780,-20 776.966,-19.424 773.803,-18.7107 770.689,-17.9396"/>
<polygon fill="midnightblue" stroke="midnightblue" points="1097.28,-213.746 1095.86,-224.245 1103.52,-216.923 1097.28,-213.746"/>
</g>
<!-- Node21 -->
<g id="node21" class="node"><title>Node21</title>
<g id="a_node21"><a xlink:href="userfiles_8c.html" target="_top" xlink:title="Módulo para conversão entre ficheiros e ESTADO. ">
<polygon fill="white" stroke="black" points="1039,-56.5 1039,-75.5 1101,-75.5 1101,-56.5 1039,-56.5"/>
<text text-anchor="middle" x="1070" y="-63.5" font-family="Helvetica,sans-Serif" font-size="10.00">userfiles.c</text>
</a>
</g>
</g>
<!-- Node1&#45;&gt;Node21 -->
<g id="edge62" class="edge"><title>Node1&#45;&gt;Node21</title>
<path fill="none" stroke="midnightblue" d="M1088.59,-213.93C1084.03,-177.92 1074.33,-101.231 1071.08,-75.5681"/>
<polygon fill="midnightblue" stroke="midnightblue" points="1085.14,-214.593 1089.87,-224.075 1092.09,-213.715 1085.14,-214.593"/>
</g>
<!-- Node23 -->
<g id="node23" class="node"><title>Node23</title>
<g id="a_node23"><a xlink:href="stack_8c.html" target="_top" xlink:title="Módulo para operar sobre STACK. ">
<polygon fill="white" stroke="black" points="1157.5,-168.5 1157.5,-187.5 1206.5,-187.5 1206.5,-168.5 1157.5,-168.5"/>
<text text-anchor="middle" x="1182" y="-175.5" font-family="Helvetica,sans-Serif" font-size="10.00">stack.c</text>
</a>
</g>
</g>
<!-- Node1&#45;&gt;Node23 -->
<g id="edge60" class="edge"><title>Node1&#45;&gt;Node23</title>
<path fill="none" stroke="midnightblue" d="M1114.29,-219.177C1131.04,-209.241 1153.1,-196.149 1167.42,-187.655"/>
<polygon fill="midnightblue" stroke="midnightblue" points="1112.43,-216.211 1105.62,-224.324 1116.01,-222.231 1112.43,-216.211"/>
</g>
<!-- Node3 -->
<g id="node3" class="node"><title>Node3</title>
<g id="a_node3"><a xlink:href="decide_8c.html" target="_top" xlink:title="Módulo encarregue da interatividade com peças. ">
<polygon fill="white" stroke="black" points="-0.5,-0.5 -0.5,-19.5 52.5,-19.5 52.5,-0.5 -0.5,-0.5"/>
<text text-anchor="middle" x="26" y="-7.5" font-family="Helvetica,sans-Serif" font-size="10.00">decide.c</text>
</a>
</g>
</g>
<!-- Node2&#45;&gt;Node3 -->
<g id="edge2" class="edge"><title>Node2&#45;&gt;Node3</title>
<path fill="none" stroke="midnightblue" d="M641.372,-176.746C537.575,-175.572 249.201,-168.978 163,-132 102.632,-106.104 50.3164,-42.974 32.5011,-19.7558"/>
<polygon fill="midnightblue" stroke="midnightblue" points="641.646,-180.249 651.681,-176.852 641.717,-173.249 641.646,-180.249"/>
</g>
<!-- Node4 -->
<g id="node4" class="node"><title>Node4</title>
<g id="a_node4"><a xlink:href="decide_8h.html" target="_top" xlink:title="Módulo encarregue da interatividade com peças. ">
<polygon fill="white" stroke="black" points="252.5,-56.5 252.5,-75.5 305.5,-75.5 305.5,-56.5 252.5,-56.5"/>
<text text-anchor="middle" x="279" y="-63.5" font-family="Helvetica,sans-Serif" font-size="10.00">decide.h</text>
</a>
</g>
</g>
<!-- Node2&#45;&gt;Node4 -->
<g id="edge3" class="edge"><title>Node2&#45;&gt;Node4</title>
<path fill="none" stroke="midnightblue" d="M641.744,-176.298C560.986,-174.152 372.821,-165.587 320,-132 299.059,-118.684 286.904,-90.4048 281.823,-75.9352"/>
<polygon fill="midnightblue" stroke="midnightblue" points="641.867,-179.802 651.95,-176.55 642.039,-172.804 641.867,-179.802"/>
</g>
<!-- Node5 -->
<g id="node5" class="node"><title>Node5</title>
<g id="a_node5"><a xlink:href="frontend_8c.html" target="_top" xlink:title="Módulo de tratamento gráfico. ">
<polygon fill="white" stroke="black" points="249,-0.5 249,-19.5 309,-19.5 309,-0.5 249,-0.5"/>
<text text-anchor="middle" x="279" y="-7.5" font-family="Helvetica,sans-Serif" font-size="10.00">frontend.c</text>
</a>
</g>
</g>
<!-- Node2&#45;&gt;Node5 -->
<g id="edge45" class="edge"><title>Node2&#45;&gt;Node5</title>
<path fill="none" stroke="midnightblue" d="M641.759,-176.55C530.371,-174.257 204.373,-160.335 154,-76 131.047,-37.5712 204.785,-20.8684 248.705,-14.4675"/>
<polygon fill="midnightblue" stroke="midnightblue" points="641.788,-180.051 651.852,-176.737 641.919,-173.052 641.788,-180.051"/>
</g>
<!-- Node6 -->
<g id="node6" class="node"><title>Node6</title>
<g id="a_node6"><a xlink:href="frontendTab_8c.html" target="_top" xlink:title="Módulo de tratamento gráfico, especializado ao tabuleiro. ">
<polygon fill="white" stroke="black" points="583.5,-0.5 583.5,-19.5 660.5,-19.5 660.5,-0.5 583.5,-0.5"/>
<text text-anchor="middle" x="622" y="-7.5" font-family="Helvetica,sans-Serif" font-size="10.00">frontendTab.c</text>
</a>
</g>
</g>
<!-- Node2&#45;&gt;Node6 -->
<g id="edge51" class="edge"><title>Node2&#45;&gt;Node6</title>
<path fill="none" stroke="midnightblue" d="M672.611,-158.395C660.315,-122.585 633.792,-45.3423 624.942,-19.5681"/>
<polygon fill="midnightblue" stroke="midnightblue" points="669.377,-159.754 675.935,-168.075 675.998,-157.48 669.377,-159.754"/>
</g>
<!-- Node7 -->
<g id="node7" class="node"><title>Node7</title>
<g id="a_node7"><a xlink:href="givehelp_8c.html" target="_top" xlink:title="Módulo para fornecimento de ajudas. ">
<polygon fill="white" stroke="black" points="136.5,-0.5 136.5,-19.5 197.5,-19.5 197.5,-0.5 136.5,-0.5"/>
<text text-anchor="middle" x="167" y="-7.5" font-family="Helvetica,sans-Serif" font-size="10.00">givehelp.c</text>
</a>
</g>
</g>
<!-- Node2&#45;&gt;Node7 -->
<g id="edge52" class="edge"><title>Node2&#45;&gt;Node7</title>
<path fill="none" stroke="midnightblue" d="M641.86,-176.778C543.297,-175.678 277.307,-169.243 199,-132 167.496,-117.017 157.205,-108.29 144,-76 135.844,-56.0566 150.528,-32.0236 159.966,-19.5117"/>
<polygon fill="midnightblue" stroke="midnightblue" points="641.916,-180.278 651.95,-176.878 641.985,-173.279 641.916,-180.278"/>
</g>
<!-- Node8 -->
<g id="node8" class="node"><title>Node8</title>
<g id="a_node8"><a xlink:href="parser_8c.html" target="_top" xlink:title="Módulo de User input / Interpertador de comandos. ">
<polygon fill="white" stroke="black" points="465,-0.5 465,-19.5 517,-19.5 517,-0.5 465,-0.5"/>
<text text-anchor="middle" x="491" y="-7.5" font-family="Helvetica,sans-Serif" font-size="10.00">parser.c</text>
</a>
</g>
</g>
<!-- Node2&#45;&gt;Node8 -->
<g id="edge53" class="edge"><title>Node2&#45;&gt;Node8</title>
<path fill="none" stroke="midnightblue" d="M641.639,-171.141C563.605,-158.045 387.743,-123.759 354,-76 324.681,-34.5031 417.437,-18.6314 464.866,-13.3327"/>
<polygon fill="midnightblue" stroke="midnightblue" points="641.539,-174.672 651.975,-172.847 642.679,-167.765 641.539,-174.672"/>
</g>
<!-- Node2&#45;&gt;Node9 -->
<g id="edge57" class="edge"><title>Node2&#45;&gt;Node9</title>
<path fill="none" stroke="midnightblue" d="M716.222,-173.428C770.217,-167.553 866.703,-154.233 893,-132 913.42,-114.735 910.024,-102.274 915,-76 927.087,-12.1771 842.717,-36.9143 780,-20 777.019,-19.1959 773.887,-18.3472 770.789,-17.505"/>
<polygon fill="midnightblue" stroke="midnightblue" points="715.6,-169.974 706.022,-174.504 716.334,-176.935 715.6,-169.974"/>
</g>
<!-- Node10 -->
<g id="node10" class="node"><title>Node10</title>
<g id="a_node10"><a xlink:href="estado_8c.html" target="_top" xlink:title="Ficheiro contendo o código relativo ao módulo ESTADO. ">
<polygon fill="white" stroke="black" points="962,-0.5 962,-19.5 1016,-19.5 1016,-0.5 962,-0.5"/>
<text text-anchor="middle" x="989" y="-7.5" font-family="Helvetica,sans-Serif" font-size="10.00">estado.c</text>
</a>
</g>
</g>
<!-- Node2&#45;&gt;Node10 -->
<g id="edge10" class="edge"><title>Node2&#45;&gt;Node10</title>
<path fill="none" stroke="midnightblue" d="M716.264,-174.78C797.169,-169.583 986.415,-155.271 1046,-132 1085.75,-116.475 1104.52,-113.97 1124,-76 1146.5,-32.142 1061.72,-17.5979 1016.15,-13.0012"/>
<polygon fill="midnightblue" stroke="midnightblue" points="715.803,-171.302 706.043,-175.425 716.244,-178.288 715.803,-171.302"/>
</g>
<!-- Node11 -->
<g id="node11" class="node"><title>Node11</title>
<g id="a_node11"><a xlink:href="frontend_8h.html" target="_top" xlink:title="Módulo de tratamento gráfico. ">
<polygon fill="white" stroke="black" points="847,-56.5 847,-75.5 907,-75.5 907,-56.5 847,-56.5"/>
<text text-anchor="middle" x="877" y="-63.5" font-family="Helvetica,sans-Serif" font-size="10.00">frontend.h</text>
</a>
</g>
</g>
<!-- Node2&#45;&gt;Node11 -->
<g id="edge11" class="edge"><title>Node2&#45;&gt;Node11</title>
<path fill="none" stroke="midnightblue" d="M716.172,-173.69C766.986,-168.324 854.12,-155.841 874,-132 887.312,-116.036 883.038,-89.4412 879.581,-75.7443"/>
<polygon fill="midnightblue" stroke="midnightblue" points="715.816,-170.208 706.22,-174.699 716.522,-177.172 715.816,-170.208"/>
</g>
<!-- Node13 -->
<g id="node13" class="node"><title>Node13</title>
<g id="a_node13"><a xlink:href="filemanager_8c.html" target="_top" xlink:title="Módulo de leitura de ficheiros. ">
<polygon fill="white" stroke="black" points="868.5,-0.5 868.5,-19.5 943.5,-19.5 943.5,-0.5 868.5,-0.5"/>
<text text-anchor="middle" x="906" y="-7.5" font-family="Helvetica,sans-Serif" font-size="10.00">filemanager.c</text>
</a>
</g>
</g>
<!-- Node2&#45;&gt;Node13 -->
<g id="edge44" class="edge"><title>Node2&#45;&gt;Node13</title>
<path fill="none" stroke="midnightblue" d="M716.184,-174.594C812.583,-167.443 1066.05,-142.52 1109,-76 1113.82,-68.5323 1114.56,-62.9323 1109,-56 1106.39,-52.7449 1001.54,-30.694 943.58,-18.713"/>
<polygon fill="midnightblue" stroke="midnightblue" points="715.748,-171.116 706.025,-175.324 716.25,-178.098 715.748,-171.116"/>
</g>
<!-- Node14 -->
<g id="node14" class="node"><title>Node14</title>
<g id="a_node14"><a xlink:href="filemanager_8h.html" target="_top" xlink:title="Módulo de leitura de ficheiros. ">
<polygon fill="white" stroke="black" points="688.5,-56.5 688.5,-75.5 763.5,-75.5 763.5,-56.5 688.5,-56.5"/>
<text text-anchor="middle" x="726" y="-63.5" font-family="Helvetica,sans-Serif" font-size="10.00">filemanager.h</text>
</a>
</g>
</g>
<!-- Node2&#45;&gt;Node14 -->
<g id="edge19" class="edge"><title>Node2&#45;&gt;Node14</title>
<path fill="none" stroke="midnightblue" d="M677.216,-157.768C676.74,-144.386 677.664,-126.427 684,-112 690.618,-96.932 704.473,-83.7082 714.462,-75.5626"/>
<polygon fill="midnightblue" stroke="midnightblue" points="673.75,-158.396 677.894,-168.147 680.735,-157.94 673.75,-158.396"/>
</g>
<!-- Node15 -->
<g id="node15" class="node"><title>Node15</title>
<g id="a_node15"><a xlink:href="solver_8h.html" target="_top" xlink:title="Algoritmo para resolver mapas e estruturas para obter mapas aleatórios. ">
<polygon fill="white" stroke="black" points="520.5,-112.5 520.5,-131.5 571.5,-131.5 571.5,-112.5 520.5,-112.5"/>
<text text-anchor="middle" x="546" y="-119.5" font-family="Helvetica,sans-Serif" font-size="10.00">solver.h</text>
</a>
</g>
</g>
<!-- Node2&#45;&gt;Node15 -->
<g id="edge26" class="edge"><title>Node2&#45;&gt;Node15</title>
<path fill="none" stroke="midnightblue" d="M648.552,-164.638C623.593,-154.504 588.923,-140.427 566.976,-131.516"/>
<polygon fill="midnightblue" stroke="midnightblue" points="647.344,-167.924 657.926,-168.444 649.977,-161.439 647.344,-167.924"/>
</g>
<!-- Node18 -->
<g id="node18" class="node"><title>Node18</title>
<g id="a_node18"><a xlink:href="state_8h.html" target="_top" xlink:title="Módulo para alterar estado. ">
<polygon fill="white" stroke="black" points="781.5,-56.5 781.5,-75.5 828.5,-75.5 828.5,-56.5 781.5,-56.5"/>
<text text-anchor="middle" x="805" y="-63.5" font-family="Helvetica,sans-Serif" font-size="10.00">state.h</text>
</a>
</g>
</g>
<!-- Node2&#45;&gt;Node18 -->
<g id="edge37" class="edge"><title>Node2&#45;&gt;Node18</title>
<path fill="none" stroke="midnightblue" d="M686.068,-159.169C692.428,-144.954 702.934,-125.295 717,-112 735.581,-94.4374 762.343,-82.0745 781.469,-74.8081"/>
<polygon fill="midnightblue" stroke="midnightblue" points="682.841,-157.814 682.179,-168.388 689.291,-160.535 682.841,-157.814"/>
</g>
<!-- Node19 -->
<g id="node19" class="node"><title>Node19</title>
<g id="a_node19"><a xlink:href="givehelp_8h.html" target="_top" xlink:title="Módulo para fornecimento de ajudas. ">
<polygon fill="white" stroke="black" points="173.5,-56.5 173.5,-75.5 234.5,-75.5 234.5,-56.5 173.5,-56.5"/>
<text text-anchor="middle" x="204" y="-63.5" font-family="Helvetica,sans-Serif" font-size="10.00">givehelp.h</text>
</a>
</g>
</g>
<!-- Node2&#45;&gt;Node19 -->
<g id="edge46" class="edge"><title>Node2&#45;&gt;Node19</title>
<path fill="none" stroke="midnightblue" d="M641.953,-174.942C558.783,-169.951 359.62,-155.83 297,-132 262.388,-118.828 228.457,-89.9476 212.873,-75.5341"/>
<polygon fill="midnightblue" stroke="midnightblue" points="641.779,-178.438 651.968,-175.532 642.191,-171.45 641.779,-178.438"/>
</g>
<!-- Node20 -->
<g id="node20" class="node"><title>Node20</title>
<g id="a_node20"><a xlink:href="userfiles_8h.html" target="_top" xlink:title="Módulo para conversão entre ficheiros e ESTADO. ">
<polygon fill="white" stroke="black" points="726,-112.5 726,-131.5 788,-131.5 788,-112.5 726,-112.5"/>
<text text-anchor="middle" x="757" y="-119.5" font-family="Helvetica,sans-Serif" font-size="10.00">userfiles.h</text>
</a>
</g>
</g>
<!-- Node2&#45;&gt;Node20 -->
<g id="edge54" class="edge"><title>Node2&#45;&gt;Node20</title>
<path fill="none" stroke="midnightblue" d="M699.768,-162.622C714.017,-152.757 732.456,-139.992 744.499,-131.655"/>
<polygon fill="midnightblue" stroke="midnightblue" points="697.762,-159.754 691.532,-168.324 701.746,-165.51 697.762,-159.754"/>
</g>
<!-- Node2&#45;&gt;Node21 -->
<g id="edge58" class="edge"><title>Node2&#45;&gt;Node21</title>
<path fill="none" stroke="midnightblue" d="M716.429,-174.641C769.438,-170.44 868.85,-159.368 949,-132 990.974,-117.667 1035.83,-89.8487 1057.22,-75.7071"/>
<polygon fill="midnightblue" stroke="midnightblue" points="715.865,-171.174 706.156,-175.415 716.39,-178.154 715.865,-171.174"/>
</g>
<!-- Node22 -->
<g id="node22" class="node"><title>Node22</title>
<g id="a_node22"><a xlink:href="validate_8c.html" target="_top" xlink:title="Módulo das funções utilizadas para verificação do tabuleiro. ">
<polygon fill="white" stroke="black" points="806.5,-112.5 806.5,-131.5 865.5,-131.5 865.5,-112.5 806.5,-112.5"/>
<text text-anchor="middle" x="836" y="-119.5" font-family="Helvetica,sans-Serif" font-size="10.00">validate.c</text>
</a>
</g>
</g>
<!-- Node2&#45;&gt;Node22 -->
<g id="edge59" class="edge"><title>Node2&#45;&gt;Node22</title>
<path fill="none" stroke="midnightblue" d="M713.389,-165.172C742.952,-155.004 784.873,-140.585 811.239,-131.516"/>
<polygon fill="midnightblue" stroke="midnightblue" points="712.195,-161.881 703.877,-168.444 714.472,-168.501 712.195,-161.881"/>
</g>
<!-- Node4&#45;&gt;Node3 -->
<g id="edge4" class="edge"><title>Node4&#45;&gt;Node3</title>
<path fill="none" stroke="midnightblue" d="M242.28,-55.9104C167.859,-39.0218 92.092,-23.8889 52.8014,-16.1949"/>
<polygon fill="midnightblue" stroke="midnightblue" points="241.764,-59.3827 252.293,-58.1953 243.322,-52.5581 241.764,-59.3827"/>
</g>
<!-- Node4&#45;&gt;Node5 -->
<g id="edge5" class="edge"><title>Node4&#45;&gt;Node5</title>
<path fill="none" stroke="midnightblue" d="M279,-45.8045C279,-36.9102 279,-26.7798 279,-19.7511"/>
<polygon fill="midnightblue" stroke="midnightblue" points="275.5,-46.083 279,-56.083 282.5,-46.083 275.5,-46.083"/>
</g>
<!-- Node4&#45;&gt;Node6 -->
<g id="edge6" class="edge"><title>Node4&#45;&gt;Node6</title>
<path fill="none" stroke="midnightblue" d="M315.867,-59.1959C381.217,-48.9075 516.748,-27.5703 583.351,-17.0847"/>
<polygon fill="midnightblue" stroke="midnightblue" points="314.963,-55.795 305.629,-60.8076 316.052,-62.7098 314.963,-55.795"/>
</g>
<!-- Node4&#45;&gt;Node7 -->
<g id="edge7" class="edge"><title>Node4&#45;&gt;Node7</title>
<path fill="none" stroke="midnightblue" d="M251.751,-51.8622C230.984,-41.8492 202.977,-28.3458 184.95,-19.6545"/>
<polygon fill="midnightblue" stroke="midnightblue" points="250.477,-55.1336 261.005,-56.324 253.518,-48.8282 250.477,-55.1336"/>
</g>
<!-- Node4&#45;&gt;Node8 -->
<g id="edge8" class="edge"><title>Node4&#45;&gt;Node8</title>
<path fill="none" stroke="midnightblue" d="M315.797,-55.6271C358.318,-44.7963 427.23,-27.2433 464.7,-17.6989"/>
<polygon fill="midnightblue" stroke="midnightblue" points="314.677,-52.3007 305.85,-58.1609 316.404,-59.0841 314.677,-52.3007"/>
</g>
<!-- Node4&#45;&gt;Node9 -->
<g id="edge9" class="edge"><title>Node4&#45;&gt;Node9</title>
<path fill="none" stroke="midnightblue" d="M315.947,-60.5244C328.07,-59.0671 341.609,-57.4515 354,-56 493.954,-39.6055 529.009,-36.0759 669,-20 687.282,-17.9005 707.974,-15.5125 723.449,-13.7241"/>
<polygon fill="midnightblue" stroke="midnightblue" points="315.233,-57.085 305.723,-61.7561 316.07,-64.0348 315.233,-57.085"/>
</g>
<!-- Node11&#45;&gt;Node5 -->
<g id="edge15" class="edge"><title>Node11&#45;&gt;Node5</title>
<path fill="none" stroke="midnightblue" d="M837.304,-56.0465C837.202,-56.0309 837.101,-56.0154 837,-56 733.588,-40.2764 409.584,-19.1802 309.054,-12.8624"/>
<polygon fill="midnightblue" stroke="midnightblue" points="836.487,-59.456 846.945,-57.7609 837.712,-52.5641 836.487,-59.456"/>
</g>
<!-- Node11&#45;&gt;Node6 -->
<g id="edge16" class="edge"><title>Node11&#45;&gt;Node6</title>
<path fill="none" stroke="midnightblue" d="M837.3,-56.0653C837.2,-56.0435 837.1,-56.0217 837,-56 775.51,-42.6481 703.969,-27.8137 660.878,-18.9545"/>
<polygon fill="midnightblue" stroke="midnightblue" points="836.351,-59.4401 846.87,-58.1699 837.855,-52.6035 836.351,-59.4401"/>
</g>
<!-- Node11&#45;&gt;Node8 -->
<g id="edge17" class="edge"><title>Node11&#45;&gt;Node8</title>
<path fill="none" stroke="midnightblue" d="M837.303,-56.0538C837.202,-56.0358 837.101,-56.0178 837,-56 775.191,-45.051 586.69,-22.3368 517.139,-14.0829"/>
<polygon fill="midnightblue" stroke="midnightblue" points="836.435,-59.4507 846.919,-57.9203 837.769,-52.5789 836.435,-59.4507"/>
</g>
<!-- Node11&#45;&gt;Node9 -->
<g id="edge18" class="edge"><title>Node11&#45;&gt;Node9</title>
<path fill="none" stroke="midnightblue" d="M846.915,-52.503C822.543,-42.3795 788.86,-28.388 767.503,-19.5164"/>
<polygon fill="midnightblue" stroke="midnightblue" points="845.823,-55.8397 856.401,-56.4435 848.509,-49.3752 845.823,-55.8397"/>
</g>
<!-- Node11&#45;&gt;Node10 -->
<g id="edge12" class="edge"><title>Node11&#45;&gt;Node10</title>
<path fill="none" stroke="midnightblue" d="M904.249,-51.8622C925.016,-41.8492 953.023,-28.3458 971.05,-19.6545"/>
<polygon fill="midnightblue" stroke="midnightblue" points="902.482,-48.8282 894.995,-56.324 905.523,-55.1336 902.482,-48.8282"/>
</g>
<!-- Node12 -->
<g id="node12" class="node"><title>Node12</title>
<g id="a_node12"><a xlink:href="exemplo_8c.html" target="_top" xlink:title="Esqueleto do programa. ">
<polygon fill="white" stroke="black" points="789,-0.5 789,-19.5 851,-19.5 851,-0.5 789,-0.5"/>
<text text-anchor="middle" x="820" y="-7.5" font-family="Helvetica,sans-Serif" font-size="10.00">exemplo.c</text>
</a>
</g>
</g>
<!-- Node11&#45;&gt;Node12 -->
<g id="edge13" class="edge"><title>Node11&#45;&gt;Node12</title>
<path fill="none" stroke="midnightblue" d="M860.379,-49.2533C850.266,-39.6731 837.723,-27.7906 829.325,-19.8339"/>
<polygon fill="midnightblue" stroke="midnightblue" points="858.175,-51.9873 867.842,-56.324 862.99,-46.9056 858.175,-51.9873"/>
</g>
<!-- Node11&#45;&gt;Node13 -->
<g id="edge14" class="edge"><title>Node11&#45;&gt;Node13</title>
<path fill="none" stroke="midnightblue" d="M886.676,-46.9827C891.598,-37.8168 897.358,-27.0922 901.3,-19.7511"/>
<polygon fill="midnightblue" stroke="midnightblue" points="883.437,-45.6171 881.789,-56.083 889.604,-48.929 883.437,-45.6171"/>
</g>
<!-- Node14&#45;&gt;Node5 -->
<g id="edge22" class="edge"><title>Node14&#45;&gt;Node5</title>
<path fill="none" stroke="midnightblue" d="M678.089,-59.2121C585.723,-48.0537 385.419,-23.856 309.238,-14.6529"/>
<polygon fill="midnightblue" stroke="midnightblue" points="677.927,-62.7178 688.274,-60.4425 678.766,-55.7684 677.927,-62.7178"/>
</g>
<!-- Node14&#45;&gt;Node6 -->
<g id="edge23" class="edge"><title>Node14&#45;&gt;Node6</title>
<path fill="none" stroke="midnightblue" d="M700.172,-51.5895C680.943,-41.6052 655.255,-28.2672 638.668,-19.6545"/>
<polygon fill="midnightblue" stroke="midnightblue" points="698.803,-54.822 709.291,-56.324 702.029,-48.6095 698.803,-54.822"/>
</g>
<!-- Node14&#45;&gt;Node8 -->
<g id="edge24" class="edge"><title>Node14&#45;&gt;Node8</title>
<path fill="none" stroke="midnightblue" d="M678.795,-54.1529C630.17,-42.9796 556.149,-25.9705 517.148,-17.0084"/>
<polygon fill="midnightblue" stroke="midnightblue" points="678.234,-57.6151 688.764,-56.4435 679.801,-50.7929 678.234,-57.6151"/>
</g>
<!-- Node14&#45;&gt;Node9 -->
<g id="edge25" class="edge"><title>Node14&#45;&gt;Node9</title>
<path fill="none" stroke="midnightblue" d="M733.121,-46.6897C736.66,-37.589 740.772,-27.0141 743.597,-19.7511"/>
<polygon fill="midnightblue" stroke="midnightblue" points="729.83,-45.4944 729.468,-56.083 736.354,-48.0315 729.83,-45.4944"/>
</g>
<!-- Node14&#45;&gt;Node10 -->
<g id="edge20" class="edge"><title>Node14&#45;&gt;Node10</title>
<path fill="none" stroke="midnightblue" d="M773.676,-55.6183C834.759,-43.5808 934.84,-23.7937 952,-20 955.228,-19.2865 958.606,-18.5083 961.953,-17.7181"/>
<polygon fill="midnightblue" stroke="midnightblue" points="772.992,-52.1855 763.858,-57.5525 774.346,-59.0535 772.992,-52.1855"/>
</g>
<!-- Node14&#45;&gt;Node13 -->
<g id="edge21" class="edge"><title>Node14&#45;&gt;Node13</title>
<path fill="none" stroke="midnightblue" d="M764.108,-53.5677C798.063,-43.381 846.989,-28.7034 877.612,-19.5164"/>
<polygon fill="midnightblue" stroke="midnightblue" points="763.094,-50.2176 754.522,-56.4435 765.106,-56.9224 763.094,-50.2176"/>
</g>
<!-- Node15&#45;&gt;Node5 -->
<g id="edge30" class="edge"><title>Node15&#45;&gt;Node5</title>
<path fill="none" stroke="midnightblue" d="M510.393,-119.453C419.939,-115.158 186.834,-101.682 164,-76 136.266,-44.807 206.091,-25.1135 248.776,-16.3345"/>
<polygon fill="midnightblue" stroke="midnightblue" points="510.293,-122.952 520.444,-119.92 510.618,-115.959 510.293,-122.952"/>
</g>
<!-- Node15&#45;&gt;Node6 -->
<g id="edge31" class="edge"><title>Node15&#45;&gt;Node6</title>
<path fill="none" stroke="midnightblue" d="M550.13,-102.628C553.813,-88.9263 560.166,-70.2034 570,-56 580.466,-40.8836 597.158,-27.6696 608.797,-19.5395"/>
<polygon fill="midnightblue" stroke="midnightblue" points="546.726,-101.812 547.733,-112.358 553.523,-103.486 546.726,-101.812"/>
</g>
<!-- Node15&#45;&gt;Node7 -->
<g id="edge33" class="edge"><title>Node15&#45;&gt;Node7</title>
<path fill="none" stroke="midnightblue" d="M510.112,-119.554C417.77,-115.466 177.518,-102.372 154,-76 139.907,-60.1962 152.788,-33.5312 161.149,-19.7823"/>
<polygon fill="midnightblue" stroke="midnightblue" points="510.221,-123.062 520.363,-119.997 510.524,-116.068 510.221,-123.062"/>
</g>
<!-- Node15&#45;&gt;Node8 -->
<g id="edge34" class="edge"><title>Node15&#45;&gt;Node8</title>
<path fill="none" stroke="midnightblue" d="M510.661,-111.829C492.433,-105.11 471.805,-93.9457 461,-76 449.461,-56.8341 468.98,-32.4853 481.587,-19.7173"/>
<polygon fill="midnightblue" stroke="midnightblue" points="509.592,-115.162 520.186,-115.034 511.825,-108.527 509.592,-115.162"/>
</g>
<!-- Node15&#45;&gt;Node9 -->
<g id="edge36" class="edge"><title>Node15&#45;&gt;Node9</title>
<path fill="none" stroke="midnightblue" d="M570.766,-107.446C612.7,-84.4973 696.511,-38.6307 731.301,-19.5914"/>
<polygon fill="midnightblue" stroke="midnightblue" points="568.864,-104.497 561.772,-112.368 572.225,-110.638 568.864,-104.497"/>
</g>
<!-- Node15&#45;&gt;Node10 -->
<g id="edge28" class="edge"><title>Node15&#45;&gt;Node10</title>
<path fill="none" stroke="midnightblue" d="M581.511,-118.35C671.267,-111.442 902.285,-92.2924 933,-76 957.738,-62.8779 976.343,-33.974 984.482,-19.5446"/>
<polygon fill="midnightblue" stroke="midnightblue" points="581.239,-114.86 571.535,-119.111 581.772,-121.84 581.239,-114.86"/>
</g>
<!-- Node15&#45;&gt;Node13 -->
<g id="edge29" class="edge"><title>Node15&#45;&gt;Node13</title>
<path fill="none" stroke="midnightblue" d="M581.592,-119.297C669.817,-114.712 893.082,-100.753 915,-76 928.896,-60.3061 918.167,-33.5931 911.033,-19.8084"/>
<polygon fill="midnightblue" stroke="midnightblue" points="581.334,-115.805 571.525,-119.809 581.69,-122.796 581.334,-115.805"/>
</g>
<!-- Node15&#45;&gt;Node14 -->
<g id="edge27" class="edge"><title>Node15&#45;&gt;Node14</title>
<path fill="none" stroke="midnightblue" d="M581.775,-110.268C615.78,-100.066 666.252,-84.9245 697.586,-75.5243"/>
<polygon fill="midnightblue" stroke="midnightblue" points="580.362,-107.037 571.79,-113.263 582.374,-113.742 580.362,-107.037"/>
</g>
<!-- Node16 -->
<g id="node16" class="node"><title>Node16</title>
<g id="a_node16"><a xlink:href="gerar_8c.html" target="_top" xlink:title="Ficheiro de geração de tabuleiro aleatório. ">
<polygon fill="white" stroke="black" points="470.5,-56.5 470.5,-75.5 517.5,-75.5 517.5,-56.5 470.5,-56.5"/>
<text text-anchor="middle" x="494" y="-63.5" font-family="Helvetica,sans-Serif" font-size="10.00">gerar.c</text>
</a>
</g>
</g>
<!-- Node15&#45;&gt;Node16 -->
<g id="edge32" class="edge"><title>Node15&#45;&gt;Node16</title>
<path fill="none" stroke="midnightblue" d="M530.321,-104.718C521.155,-95.1997 509.947,-83.5608 502.427,-75.7511"/>
<polygon fill="midnightblue" stroke="midnightblue" points="527.956,-107.308 537.413,-112.083 532.998,-102.452 527.956,-107.308"/>
</g>
<!-- Node17 -->
<g id="node17" class="node"><title>Node17</title>
<g id="a_node17"><a xlink:href="solver_8c.html" target="_top" xlink:title="Ficheiro dedicado à análise do espaço de soluções. ">
<polygon fill="white" stroke="black" points="362.5,-56.5 362.5,-75.5 413.5,-75.5 413.5,-56.5 362.5,-56.5"/>
<text text-anchor="middle" x="388" y="-63.5" font-family="Helvetica,sans-Serif" font-size="10.00">solver.c</text>
</a>
</g>
</g>
<!-- Node15&#45;&gt;Node17 -->
<g id="edge35" class="edge"><title>Node15&#45;&gt;Node17</title>
<path fill="none" stroke="midnightblue" d="M511.392,-109.172C481.641,-99.0039 439.453,-84.5852 412.918,-75.5164"/>
<polygon fill="midnightblue" stroke="midnightblue" points="510.37,-112.521 520.964,-112.444 512.634,-105.898 510.37,-112.521"/>
</g>
<!-- Node18&#45;&gt;Node5 -->
<g id="edge40" class="edge"><title>Node18&#45;&gt;Node5</title>
<path fill="none" stroke="midnightblue" d="M771.179,-56.2396C664.26,-38.4801 398.782,-19.2721 309.082,-13.0508"/>
<polygon fill="midnightblue" stroke="midnightblue" points="770.868,-59.7381 781.321,-58.0085 772.071,-52.8422 770.868,-59.7381"/>
</g>
<!-- Node18&#45;&gt;Node6 -->
<g id="edge41" class="edge"><title>Node18&#45;&gt;Node6</title>
<path fill="none" stroke="midnightblue" d="M771.816,-55.208C737.277,-45.0162 683.732,-29.2159 650.882,-19.5225"/>
<polygon fill="midnightblue" stroke="midnightblue" points="770.869,-58.5777 781.451,-58.051 772.85,-51.8638 770.869,-58.5777"/>
</g>
<!-- Node18&#45;&gt;Node8 -->
<g id="edge42" class="edge"><title>Node18&#45;&gt;Node8</title>
<path fill="none" stroke="midnightblue" d="M771.368,-56.0731C671.876,-34.9602 565.386,-20.3981 517.13,-14.2298"/>
<polygon fill="midnightblue" stroke="midnightblue" points="770.77,-59.5243 781.282,-58.204 772.241,-52.6806 770.77,-59.5243"/>
</g>
<!-- Node18&#45;&gt;Node9 -->
<g id="edge43" class="edge"><title>Node18&#45;&gt;Node9</title>
<path fill="none" stroke="midnightblue" d="M788.087,-49.2533C777.797,-39.6731 765.034,-27.7906 756.488,-19.8339"/>
<polygon fill="midnightblue" stroke="midnightblue" points="785.977,-52.0714 795.681,-56.324 790.747,-46.9481 785.977,-52.0714"/>
</g>
<!-- Node18&#45;&gt;Node10 -->
<g id="edge38" class="edge"><title>Node18&#45;&gt;Node10</title>
<path fill="none" stroke="midnightblue" d="M838.544,-55.1556C873.94,-44.7675 929.045,-28.5956 961.825,-18.9751"/>
<polygon fill="midnightblue" stroke="midnightblue" points="837.288,-51.8765 828.678,-58.051 839.259,-58.5933 837.288,-51.8765"/>
</g>
<!-- Node18&#45;&gt;Node13 -->
<g id="edge39" class="edge"><title>Node18&#45;&gt;Node13</title>
<path fill="none" stroke="midnightblue" d="M830.083,-51.5895C848.757,-41.6052 873.704,-28.2672 889.813,-19.6545"/>
<polygon fill="midnightblue" stroke="midnightblue" points="828.396,-48.5224 821.227,-56.324 831.696,-54.6955 828.396,-48.5224"/>
</g>
<!-- Node19&#45;&gt;Node5 -->
<g id="edge47" class="edge"><title>Node19&#45;&gt;Node5</title>
<path fill="none" stroke="midnightblue" d="M224.305,-50.3804C237.861,-40.6204 255.242,-28.1057 266.731,-19.8339"/>
<polygon fill="midnightblue" stroke="midnightblue" points="222.12,-47.6405 216.05,-56.324 226.21,-53.3213 222.12,-47.6405"/>
</g>
<!-- Node19&#45;&gt;Node6 -->
<g id="edge48" class="edge"><title>Node19&#45;&gt;Node6</title>
<path fill="none" stroke="midnightblue" d="M244.712,-56.0896C325.033,-43.1142 504.341,-23.5302 583.454,-15.0789"/>
<polygon fill="midnightblue" stroke="midnightblue" points="243.796,-52.6941 234.51,-57.7957 244.951,-59.5983 243.796,-52.6941"/>
</g>
<!-- Node19&#45;&gt;Node7 -->
<g id="edge49" class="edge"><title>Node19&#45;&gt;Node7</title>
<path fill="none" stroke="midnightblue" d="M192.054,-47.5656C185.688,-38.2747 178.133,-27.2484 172.996,-19.7511"/>
<polygon fill="midnightblue" stroke="midnightblue" points="189.351,-49.812 197.89,-56.083 195.125,-45.8553 189.351,-49.812"/>
</g>
<!-- Node19&#45;&gt;Node8 -->
<g id="edge50" class="edge"><title>Node19&#45;&gt;Node8</title>
<path fill="none" stroke="midnightblue" d="M244.56,-55.9578C331.323,-38.4384 421.542,-22.7653 464.973,-15.3795"/>
<polygon fill="midnightblue" stroke="midnightblue" points="243.651,-52.571 234.547,-57.9912 245.044,-59.4309 243.651,-52.571"/>
</g>
<!-- Node20&#45;&gt;Node8 -->
<g id="edge55" class="edge"><title>Node20&#45;&gt;Node8</title>
<path fill="none" stroke="midnightblue" d="M726.642,-108.446C672.013,-85.855 558.494,-38.9113 511.776,-19.5914"/>
<polygon fill="midnightblue" stroke="midnightblue" points="725.549,-111.781 736.127,-112.368 728.224,-105.313 725.549,-111.781"/>
</g>
<!-- Node20&#45;&gt;Node21 -->
<g id="edge56" class="edge"><title>Node20&#45;&gt;Node21</title>
<path fill="none" stroke="midnightblue" d="M798.417,-111.828C899.476,-92.7946 927.17,-93.4989 1025,-76 1029.39,-75.2144 1034.02,-74.3419 1038.56,-73.458"/>
<polygon fill="midnightblue" stroke="midnightblue" points="797.573,-108.426 788.403,-113.733 798.881,-115.302 797.573,-108.426"/>
</g>
</g>
</svg>
