<?xml version="1.0" encoding="UTF-8" standalone="no"?>
<!DOCTYPE svg PUBLIC "-//W3C//DTD SVG 1.1//EN"
 "http://www.w3.org/Graphics/SVG/1.1/DTD/svg11.dtd">
<!-- Generated by graphviz version 2.36.0 (20140111.2315)
 -->
<!-- Title: stack.c Pages: 1 -->
<svg width="254pt" height="84pt"
 viewBox="0.00 0.00 254.00 84.00" xmlns="http://www.w3.org/2000/svg" xmlns:xlink="http://www.w3.org/1999/xlink">
<g id="graph0" class="graph" transform="scale(1 1) rotate(0) translate(4 80)">
<title>stack.c</title>
<polygon fill="white" stroke="none" points="-4,4 -4,-80 250,-80 250,4 -4,4"/>
<!-- Node1 -->
<g id="node1" class="node"><title>Node1</title>
<polygon fill="#bfbfbf" stroke="black" points="99.5,-56.5 99.5,-75.5 148.5,-75.5 148.5,-56.5 99.5,-56.5"/>
<text text-anchor="middle" x="124" y="-63.5" font-family="Helvetica,sans-Serif" font-size="10.00">stack.c</text>
</g>
<!-- Node2 -->
<g id="node2" class="node"><title>Node2</title>
<g id="a_node2"><a xlink:href="stack_8h.html" target="_top" xlink:title="Módulo para operar sobre STACK. ">
<polygon fill="white" stroke="black" points="-0.5,-0.5 -0.5,-19.5 48.5,-19.5 48.5,-0.5 -0.5,-0.5"/>
<text text-anchor="middle" x="24" y="-7.5" font-family="Helvetica,sans-Serif" font-size="10.00">stack.h</text>
</a>
</g>
</g>
<!-- Node1&#45;&gt;Node2 -->
<g id="edge1" class="edge"><title>Node1&#45;&gt;Node2</title>
<path fill="none" stroke="midnightblue" d="M107.933,-56.324C92.0422,-47.7428 67.4926,-34.486 49.0415,-24.5224"/>
<polygon fill="midnightblue" stroke="midnightblue" points="50.489,-21.3264 40.0269,-19.6545 47.1629,-27.4857 50.489,-21.3264"/>
</g>
<!-- Node3 -->
<g id="node3" class="node"><title>Node3</title>
<polygon fill="white" stroke="#bfbfbf" points="66.5,-0.5 66.5,-19.5 115.5,-19.5 115.5,-0.5 66.5,-0.5"/>
<text text-anchor="middle" x="91" y="-7.5" font-family="Helvetica,sans-Serif" font-size="10.00">string.h</text>
</g>
<!-- Node1&#45;&gt;Node3 -->
<g id="edge2" class="edge"><title>Node1&#45;&gt;Node3</title>
<path fill="none" stroke="midnightblue" d="M118.551,-56.083C113.986,-48.6127 107.332,-37.7244 101.707,-28.5199"/>
<polygon fill="midnightblue" stroke="midnightblue" points="104.549,-26.4588 96.3479,-19.7511 98.5759,-30.109 104.549,-26.4588"/>
</g>
<!-- Node4 -->
<g id="node4" class="node"><title>Node4</title>
<polygon fill="white" stroke="#bfbfbf" points="134,-0.5 134,-19.5 180,-19.5 180,-0.5 134,-0.5"/>
<text text-anchor="middle" x="157" y="-7.5" font-family="Helvetica,sans-Serif" font-size="10.00">stdio.h</text>
</g>
<!-- Node1&#45;&gt;Node4 -->
<g id="edge3" class="edge"><title>Node1&#45;&gt;Node4</title>
<path fill="none" stroke="midnightblue" d="M129.449,-56.083C134.014,-48.6127 140.668,-37.7244 146.293,-28.5199"/>
<polygon fill="midnightblue" stroke="midnightblue" points="149.424,-30.109 151.652,-19.7511 143.451,-26.4588 149.424,-30.109"/>
</g>
<!-- Node5 -->
<g id="node5" class="node"><title>Node5</title>
<polygon fill="white" stroke="#bfbfbf" points="198,-0.5 198,-19.5 246,-19.5 246,-0.5 198,-0.5"/>
<text text-anchor="middle" x="222" y="-7.5" font-family="Helvetica,sans-Serif" font-size="10.00">stdlib.h</text>
</g>
<!-- Node1&#45;&gt;Node5 -->
<g id="edge4" class="edge"><title>Node1&#45;&gt;Node5</title>
<path fill="none" stroke="midnightblue" d="M139.745,-56.324C155.319,-47.7428 179.377,-34.486 197.459,-24.5224"/>
<polygon fill="midnightblue" stroke="midnightblue" points="199.224,-27.546 206.294,-19.6545 195.846,-21.4152 199.224,-27.546"/>
</g>
</g>
</svg>
