<?xml version="1.0" encoding="UTF-8" standalone="no"?>
<!DOCTYPE svg PUBLIC "-//W3C//DTD SVG 1.1//EN"
 "http://www.w3.org/Graphics/SVG/1.1/DTD/svg11.dtd">
<!-- Generated by graphviz version 2.36.0 (20140111.2315)
 -->
<!-- Title: state.h Pages: 1 -->
<svg width="464pt" height="84pt"
 viewBox="0.00 0.00 464.00 84.00" xmlns="http://www.w3.org/2000/svg" xmlns:xlink="http://www.w3.org/1999/xlink">
<g id="graph0" class="graph" transform="scale(1 1) rotate(0) translate(4 80)">
<title>state.h</title>
<polygon fill="white" stroke="none" points="-4,4 -4,-80 460,-80 460,4 -4,4"/>
<!-- Node1 -->
<g id="node1" class="node"><title>Node1</title>
<polygon fill="#bfbfbf" stroke="black" points="214.5,-56.5 214.5,-75.5 261.5,-75.5 261.5,-56.5 214.5,-56.5"/>
<text text-anchor="middle" x="238" y="-63.5" font-family="Helvetica,sans-Serif" font-size="10.00">state.h</text>
</g>
<!-- Node2 -->
<g id="node2" class="node"><title>Node2</title>
<g id="a_node2"><a xlink:href="estado_8c.html" target="_top" xlink:title="Ficheiro contendo o código relativo ao módulo ESTADO. ">
<polygon fill="white" stroke="black" points="0,-0.5 0,-19.5 54,-19.5 54,-0.5 0,-0.5"/>
<text text-anchor="middle" x="27" y="-7.5" font-family="Helvetica,sans-Serif" font-size="10.00">estado.c</text>
</a>
</g>
</g>
<!-- Node1&#45;&gt;Node2 -->
<g id="edge1" class="edge"><title>Node1&#45;&gt;Node2</title>
<path fill="none" stroke="midnightblue" d="M204.514,-56.4301C162.828,-45.7617 92.4479,-27.7497 54.0224,-17.9157"/>
<polygon fill="midnightblue" stroke="midnightblue" points="203.65,-59.8218 214.206,-58.9105 205.386,-53.0404 203.65,-59.8218"/>
</g>
<!-- Node3 -->
<g id="node3" class="node"><title>Node3</title>
<g id="a_node3"><a xlink:href="filemanager_8c.html" target="_top" xlink:title="Módulo de leitura de ficheiros. ">
<polygon fill="white" stroke="black" points="72.5,-0.5 72.5,-19.5 147.5,-19.5 147.5,-0.5 72.5,-0.5"/>
<text text-anchor="middle" x="110" y="-7.5" font-family="Helvetica,sans-Serif" font-size="10.00">filemanager.c</text>
</a>
</g>
</g>
<!-- Node1&#45;&gt;Node3 -->
<g id="edge2" class="edge"><title>Node1&#45;&gt;Node3</title>
<path fill="none" stroke="midnightblue" d="M208.377,-52.503C184.381,-42.3795 151.216,-28.388 130.187,-19.5164"/>
<polygon fill="midnightblue" stroke="midnightblue" points="207.144,-55.7813 217.718,-56.4435 209.865,-49.3317 207.144,-55.7813"/>
</g>
<!-- Node4 -->
<g id="node4" class="node"><title>Node4</title>
<g id="a_node4"><a xlink:href="frontend_8c.html" target="_top" xlink:title="Módulo de tratamento gráfico. ">
<polygon fill="white" stroke="black" points="165,-0.5 165,-19.5 225,-19.5 225,-0.5 165,-0.5"/>
<text text-anchor="middle" x="195" y="-7.5" font-family="Helvetica,sans-Serif" font-size="10.00">frontend.c</text>
</a>
</g>
</g>
<!-- Node1&#45;&gt;Node4 -->
<g id="edge3" class="edge"><title>Node1&#45;&gt;Node4</title>
<path fill="none" stroke="midnightblue" d="M224.578,-48.144C217.086,-38.7357 208.063,-27.4046 201.968,-19.7511"/>
<polygon fill="midnightblue" stroke="midnightblue" points="221.932,-50.4404 230.899,-56.083 227.408,-46.0799 221.932,-50.4404"/>
</g>
<!-- Node5 -->
<g id="node5" class="node"><title>Node5</title>
<g id="a_node5"><a xlink:href="frontendTab_8c.html" target="_top" xlink:title="Módulo de tratamento gráfico, especializado ao tabuleiro. ">
<polygon fill="white" stroke="black" points="243.5,-0.5 243.5,-19.5 320.5,-19.5 320.5,-0.5 243.5,-0.5"/>
<text text-anchor="middle" x="282" y="-7.5" font-family="Helvetica,sans-Serif" font-size="10.00">frontendTab.c</text>
</a>
</g>
</g>
<!-- Node1&#45;&gt;Node5 -->
<g id="edge4" class="edge"><title>Node1&#45;&gt;Node5</title>
<path fill="none" stroke="midnightblue" d="M251.735,-48.144C259.401,-38.7357 268.633,-27.4046 274.869,-19.7511"/>
<polygon fill="midnightblue" stroke="midnightblue" points="248.869,-46.1198 245.266,-56.083 254.296,-50.5415 248.869,-46.1198"/>
</g>
<!-- Node6 -->
<g id="node6" class="node"><title>Node6</title>
<g id="a_node6"><a xlink:href="parser_8c.html" target="_top" xlink:title="Módulo de User input / Interpertador de comandos. ">
<polygon fill="white" stroke="black" points="339,-0.5 339,-19.5 391,-19.5 391,-0.5 339,-0.5"/>
<text text-anchor="middle" x="365" y="-7.5" font-family="Helvetica,sans-Serif" font-size="10.00">parser.c</text>
</a>
</g>
</g>
<!-- Node1&#45;&gt;Node6 -->
<g id="edge5" class="edge"><title>Node1&#45;&gt;Node6</title>
<path fill="none" stroke="midnightblue" d="M267.391,-52.503C291.2,-42.3795 324.106,-28.388 344.971,-19.5164"/>
<polygon fill="midnightblue" stroke="midnightblue" points="265.957,-49.3096 258.124,-56.4435 268.696,-55.7515 265.957,-49.3096"/>
</g>
<!-- Node7 -->
<g id="node7" class="node"><title>Node7</title>
<g id="a_node7"><a xlink:href="state_8c.html" target="_top" xlink:title="Módulo para alterar estado. ">
<polygon fill="white" stroke="black" points="409.5,-0.5 409.5,-19.5 456.5,-19.5 456.5,-0.5 409.5,-0.5"/>
<text text-anchor="middle" x="433" y="-7.5" font-family="Helvetica,sans-Serif" font-size="10.00">state.c</text>
</a>
</g>
</g>
<!-- Node1&#45;&gt;Node7 -->
<g id="edge6" class="edge"><title>Node1&#45;&gt;Node7</title>
<path fill="none" stroke="midnightblue" d="M271.17,-55.8145C310.444,-44.9386 374.868,-27.098 409.395,-17.5368"/>
<polygon fill="midnightblue" stroke="midnightblue" points="270.225,-52.4444 261.522,-58.4863 272.093,-59.1905 270.225,-52.4444"/>
</g>
</g>
</svg>
