<?xml version="1.0" encoding="UTF-8" standalone="no"?>
<!DOCTYPE svg PUBLIC "-//W3C//DTD SVG 1.1//EN"
 "http://www.w3.org/Graphics/SVG/1.1/DTD/svg11.dtd">
<!-- Generated by graphviz version 2.36.0 (20140111.2315)
 -->
<!-- Title: state.c Pages: 1 -->
<svg width="523pt" height="252pt"
 viewBox="0.00 0.00 523.27 252.00" xmlns="http://www.w3.org/2000/svg" xmlns:xlink="http://www.w3.org/1999/xlink">
<g id="graph0" class="graph" transform="scale(1 1) rotate(0) translate(4 248)">
<title>state.c</title>
<polygon fill="white" stroke="none" points="-4,4 -4,-248 519.268,-248 519.268,4 -4,4"/>
<!-- Node1 -->
<g id="node1" class="node"><title>Node1</title>
<polygon fill="#bfbfbf" stroke="black" points="236.768,-224.5 236.768,-243.5 283.768,-243.5 283.768,-224.5 236.768,-224.5"/>
<text text-anchor="middle" x="260.268" y="-231.5" font-family="Helvetica,sans-Serif" font-size="10.00">state.c</text>
</g>
<!-- Node2 -->
<g id="node2" class="node"><title>Node2</title>
<g id="a_node2"><a xlink:href="estado_8h.html" target="_top" xlink:title="Ficheiro header contendo os dados relativos ao módulo ESTADO. ">
<polygon fill="white" stroke="black" points="159.268,-56.5 159.268,-75.5 213.268,-75.5 213.268,-56.5 159.268,-56.5"/>
<text text-anchor="middle" x="186.268" y="-63.5" font-family="Helvetica,sans-Serif" font-size="10.00">estado.h</text>
</a>
</g>
</g>
<!-- Node1&#45;&gt;Node2 -->
<g id="edge1" class="edge"><title>Node1&#45;&gt;Node2</title>
<path fill="none" stroke="midnightblue" d="M236.556,-230.922C184.941,-225.993 64.4547,-212.161 32.2678,-188 9.8522,-171.174 9.90066,-159.232 3.26781,-132 1.16426,-123.364 -2.21604,-118.996 3.26781,-112 21.0381,-89.3305 100.938,-76.5569 149.093,-70.7907"/>
<polygon fill="midnightblue" stroke="midnightblue" points="149.61,-74.2545 159.144,-69.6335 148.809,-67.3004 149.61,-74.2545"/>
</g>
<!-- Node3 -->
<g id="node3" class="node"><title>Node3</title>
<g id="a_node3"><a xlink:href="stack_8h.html" target="_top" xlink:title="Módulo para operar sobre STACK. ">
<polygon fill="white" stroke="black" points="248.768,-0.5 248.768,-19.5 297.768,-19.5 297.768,-0.5 248.768,-0.5"/>
<text text-anchor="middle" x="273.268" y="-7.5" font-family="Helvetica,sans-Serif" font-size="10.00">stack.h</text>
</a>
</g>
</g>
<!-- Node1&#45;&gt;Node3 -->
<g id="edge7" class="edge"><title>Node1&#45;&gt;Node3</title>
<path fill="none" stroke="midnightblue" d="M270.86,-224.37C289.452,-208.446 327.309,-172.361 341.268,-132 355.35,-91.2838 316.595,-48.4212 291.937,-26.2698"/>
<polygon fill="midnightblue" stroke="midnightblue" points="294.063,-23.4816 284.211,-19.5846 289.483,-28.7749 294.063,-23.4816"/>
</g>
<!-- Node4 -->
<g id="node4" class="node"><title>Node4</title>
<g id="a_node4"><a xlink:href="state_8h.html" target="_top" xlink:title="Módulo para alterar estado. ">
<polygon fill="white" stroke="black" points="214.768,-112.5 214.768,-131.5 261.768,-131.5 261.768,-112.5 214.768,-112.5"/>
<text text-anchor="middle" x="238.268" y="-119.5" font-family="Helvetica,sans-Serif" font-size="10.00">state.h</text>
</a>
</g>
</g>
<!-- Node1&#45;&gt;Node4 -->
<g id="edge3" class="edge"><title>Node1&#45;&gt;Node4</title>
<path fill="none" stroke="midnightblue" d="M258.542,-224.368C254.991,-206.617 246.801,-165.666 241.987,-141.597"/>
<polygon fill="midnightblue" stroke="midnightblue" points="245.379,-140.711 239.986,-131.591 238.515,-142.084 245.379,-140.711"/>
</g>
<!-- Node5 -->
<g id="node5" class="node"><title>Node5</title>
<g id="a_node5"><a xlink:href="decide_8h.html" target="_top" xlink:title="Módulo encarregue da interatividade com peças. ">
<polygon fill="white" stroke="black" points="279.768,-112.5 279.768,-131.5 332.768,-131.5 332.768,-112.5 279.768,-112.5"/>
<text text-anchor="middle" x="306.268" y="-119.5" font-family="Helvetica,sans-Serif" font-size="10.00">decide.h</text>
</a>
</g>
</g>
<!-- Node1&#45;&gt;Node5 -->
<g id="edge5" class="edge"><title>Node1&#45;&gt;Node5</title>
<path fill="none" stroke="midnightblue" d="M263.877,-224.368C271.368,-206.456 288.736,-164.923 298.762,-140.948"/>
<polygon fill="midnightblue" stroke="midnightblue" points="302.046,-142.168 302.675,-131.591 295.588,-139.467 302.046,-142.168"/>
</g>
<!-- Node6 -->
<g id="node6" class="node"><title>Node6</title>
<g id="a_node6"><a xlink:href="filemanager_8h.html" target="_top" xlink:title="Módulo de leitura de ficheiros. ">
<polygon fill="white" stroke="black" points="40.7678,-168.5 40.7678,-187.5 115.768,-187.5 115.768,-168.5 40.7678,-168.5"/>
<text text-anchor="middle" x="78.2678" y="-175.5" font-family="Helvetica,sans-Serif" font-size="10.00">filemanager.h</text>
</a>
</g>
</g>
<!-- Node1&#45;&gt;Node6 -->
<g id="edge8" class="edge"><title>Node1&#45;&gt;Node6</title>
<path fill="none" stroke="midnightblue" d="M236.474,-225.94C206.089,-216.925 153.117,-201.208 116.908,-190.465"/>
<polygon fill="midnightblue" stroke="midnightblue" points="117.755,-187.065 107.172,-187.576 115.764,-193.776 117.755,-187.065"/>
</g>
<!-- Node7 -->
<g id="node7" class="node"><title>Node7</title>
<g id="a_node7"><a xlink:href="solver_8h.html" target="_top" xlink:title="Algoritmo para resolver mapas e estruturas para obter mapas aleatórios. ">
<polygon fill="white" stroke="black" points="106.768,-112.5 106.768,-131.5 157.768,-131.5 157.768,-112.5 106.768,-112.5"/>
<text text-anchor="middle" x="132.268" y="-119.5" font-family="Helvetica,sans-Serif" font-size="10.00">solver.h</text>
</a>
</g>
</g>
<!-- Node1&#45;&gt;Node7 -->
<g id="edge14" class="edge"><title>Node1&#45;&gt;Node7</title>
<path fill="none" stroke="midnightblue" d="M236.438,-226.964C214.967,-220.466 183.723,-208.238 163.268,-188 150.237,-175.107 141.963,-155.66 137.272,-141.396"/>
<polygon fill="midnightblue" stroke="midnightblue" points="140.588,-140.267 134.364,-131.693 133.883,-142.277 140.588,-140.267"/>
</g>
<!-- Node10 -->
<g id="node10" class="node"><title>Node10</title>
<g id="a_node10"><a xlink:href="frontend_8h.html" target="_top" xlink:title="Módulo de tratamento gráfico. ">
<polygon fill="white" stroke="black" points="172.268,-168.5 172.268,-187.5 232.268,-187.5 232.268,-168.5 172.268,-168.5"/>
<text text-anchor="middle" x="202.268" y="-175.5" font-family="Helvetica,sans-Serif" font-size="10.00">frontend.h</text>
</a>
</g>
</g>
<!-- Node1&#45;&gt;Node10 -->
<g id="edge15" class="edge"><title>Node1&#45;&gt;Node10</title>
<path fill="none" stroke="midnightblue" d="M250.949,-224.324C242.375,-216.341 229.456,-204.313 219.08,-194.653"/>
<polygon fill="midnightblue" stroke="midnightblue" points="221.46,-192.086 211.756,-187.834 216.69,-197.21 221.46,-192.086"/>
</g>
<!-- Node11 -->
<g id="node11" class="node"><title>Node11</title>
<g id="a_node11"><a xlink:href="validate_8h.html" target="_top" xlink:title="Módulo de funções utilizadas para verificação do tabuleiro. ">
<polygon fill="white" stroke="black" points="389.768,-168.5 389.768,-187.5 448.768,-187.5 448.768,-168.5 389.768,-168.5"/>
<text text-anchor="middle" x="419.268" y="-175.5" font-family="Helvetica,sans-Serif" font-size="10.00">validate.h</text>
</a>
</g>
</g>
<!-- Node1&#45;&gt;Node11 -->
<g id="edge17" class="edge"><title>Node1&#45;&gt;Node11</title>
<path fill="none" stroke="midnightblue" d="M284.072,-224.916C310.613,-215.902 353.798,-201.235 384.206,-190.908"/>
<polygon fill="midnightblue" stroke="midnightblue" points="385.642,-194.117 393.985,-187.587 383.391,-187.488 385.642,-194.117"/>
</g>
<!-- Node12 -->
<g id="node12" class="node"><title>Node12</title>
<polygon fill="white" stroke="#bfbfbf" points="466.768,-168.5 466.768,-187.5 515.768,-187.5 515.768,-168.5 466.768,-168.5"/>
<text text-anchor="middle" x="491.268" y="-175.5" font-family="Helvetica,sans-Serif" font-size="10.00">string.h</text>
</g>
<!-- Node1&#45;&gt;Node12 -->
<g id="edge18" class="edge"><title>Node1&#45;&gt;Node12</title>
<path fill="none" stroke="midnightblue" d="M283.983,-227.858C319.313,-220.138 388.087,-204.884 456.347,-188.162"/>
<polygon fill="midnightblue" stroke="midnightblue" points="457.537,-191.474 466.411,-185.685 455.864,-184.676 457.537,-191.474"/>
</g>
<!-- Node2&#45;&gt;Node3 -->
<g id="edge2" class="edge"><title>Node2&#45;&gt;Node3</title>
<path fill="none" stroke="midnightblue" d="M200.246,-56.324C213.817,-47.9002 234.648,-34.9709 250.593,-25.0741"/>
<polygon fill="midnightblue" stroke="midnightblue" points="252.674,-27.9019 259.324,-19.6545 248.982,-21.9544 252.674,-27.9019"/>
</g>
<!-- Node4&#45;&gt;Node2 -->
<g id="edge4" class="edge"><title>Node4&#45;&gt;Node2</title>
<path fill="none" stroke="midnightblue" d="M229.681,-112.083C222.109,-104.22 210.89,-92.5688 201.753,-83.0813"/>
<polygon fill="midnightblue" stroke="midnightblue" points="204.152,-80.5266 194.695,-75.7511 199.11,-85.3821 204.152,-80.5266"/>
</g>
<!-- Node5&#45;&gt;Node2 -->
<g id="edge6" class="edge"><title>Node5&#45;&gt;Node2</title>
<path fill="none" stroke="midnightblue" d="M287.253,-112.444C267.68,-103.636 236.96,-89.8116 214.539,-79.722"/>
<polygon fill="midnightblue" stroke="midnightblue" points="215.749,-76.4284 205.193,-75.5164 212.876,-82.8119 215.749,-76.4284"/>
</g>
<!-- Node6&#45;&gt;Node2 -->
<g id="edge9" class="edge"><title>Node6&#45;&gt;Node2</title>
<path fill="none" stroke="midnightblue" d="M78.8096,-168.416C80.0793,-154.939 84.3007,-128.64 98.2678,-112 111.579,-96.1421 131.89,-85.2362 149.647,-78.1369"/>
<polygon fill="midnightblue" stroke="midnightblue" points="151.042,-81.352 159.188,-74.5773 148.595,-74.7936 151.042,-81.352"/>
</g>
<!-- Node6&#45;&gt;Node7 -->
<g id="edge10" class="edge"><title>Node6&#45;&gt;Node7</title>
<path fill="none" stroke="midnightblue" d="M87.1848,-168.083C95.0483,-160.22 106.699,-148.569 116.187,-139.081"/>
<polygon fill="midnightblue" stroke="midnightblue" points="118.921,-141.297 123.517,-131.751 113.971,-136.347 118.921,-141.297"/>
</g>
<!-- Node8 -->
<g id="node8" class="node"><title>Node8</title>
<g id="a_node8"><a xlink:href="cgi_8h.html" target="_top" xlink:title="Macros úteis para gerar CGIs. ">
<polygon fill="white" stroke="black" points="12.2678,-112.5 12.2678,-131.5 50.2678,-131.5 50.2678,-112.5 12.2678,-112.5"/>
<text text-anchor="middle" x="31.2678" y="-119.5" font-family="Helvetica,sans-Serif" font-size="10.00">cgi.h</text>
</a>
</g>
</g>
<!-- Node6&#45;&gt;Node8 -->
<g id="edge12" class="edge"><title>Node6&#45;&gt;Node8</title>
<path fill="none" stroke="midnightblue" d="M70.5067,-168.083C63.731,-160.298 53.7246,-148.801 45.5127,-139.367"/>
<polygon fill="midnightblue" stroke="midnightblue" points="48.0898,-136.996 38.8845,-131.751 42.8097,-141.592 48.0898,-136.996"/>
</g>
<!-- Node7&#45;&gt;Node2 -->
<g id="edge11" class="edge"><title>Node7&#45;&gt;Node2</title>
<path fill="none" stroke="midnightblue" d="M141.185,-112.083C149.048,-104.22 160.699,-92.5688 170.187,-83.0813"/>
<polygon fill="midnightblue" stroke="midnightblue" points="172.921,-85.2971 177.517,-75.7511 167.971,-80.3473 172.921,-85.2971"/>
</g>
<!-- Node9 -->
<g id="node9" class="node"><title>Node9</title>
<polygon fill="white" stroke="#bfbfbf" points="8.26781,-56.5 8.26781,-75.5 54.2678,-75.5 54.2678,-56.5 8.26781,-56.5"/>
<text text-anchor="middle" x="31.2678" y="-63.5" font-family="Helvetica,sans-Serif" font-size="10.00">stdio.h</text>
</g>
<!-- Node8&#45;&gt;Node9 -->
<g id="edge13" class="edge"><title>Node8&#45;&gt;Node9</title>
<path fill="none" stroke="midnightblue" d="M31.2678,-112.083C31.2678,-105.006 31.2678,-94.8611 31.2678,-85.9865"/>
<polygon fill="midnightblue" stroke="midnightblue" points="34.7679,-85.751 31.2678,-75.7511 27.7679,-85.7511 34.7679,-85.751"/>
</g>
<!-- Node10&#45;&gt;Node2 -->
<g id="edge16" class="edge"><title>Node10&#45;&gt;Node2</title>
<path fill="none" stroke="midnightblue" d="M201.012,-168.368C198.43,-150.617 192.474,-109.666 188.973,-85.5974"/>
<polygon fill="midnightblue" stroke="midnightblue" points="192.421,-84.9835 187.517,-75.5914 185.493,-85.9911 192.421,-84.9835"/>
</g>
</g>
</svg>
