<?xml version="1.0" encoding="UTF-8" standalone="no"?>
<!DOCTYPE svg PUBLIC "-//W3C//DTD SVG 1.1//EN"
 "http://www.w3.org/Graphics/SVG/1.1/DTD/svg11.dtd">
<!-- Generated by graphviz version 2.36.0 (20140111.2315)
 -->
<!-- Title: lista Pages: 1 -->
<svg width="86pt" height="96pt"
 viewBox="0.00 0.00 86.00 96.00" xmlns="http://www.w3.org/2000/svg" xmlns:xlink="http://www.w3.org/1999/xlink">
<g id="graph0" class="graph" transform="scale(1 1) rotate(0) translate(4 92)">
<title>lista</title>
<polygon fill="white" stroke="none" points="-4,4 -4,-92 82,-92 82,4 -4,4"/>
<!-- Node1 -->
<g id="node1" class="node"><title>Node1</title>
<polygon fill="#bfbfbf" stroke="black" points="3.5,-0.5 3.5,-19.5 38.5,-19.5 38.5,-0.5 3.5,-0.5"/>
<text text-anchor="middle" x="21" y="-7.5" font-family="Helvetica,sans-Serif" font-size="10.00">lista</text>
</g>
<!-- Node1&#45;&gt;Node1 -->
<g id="edge2" class="edge"><title>Node1&#45;&gt;Node1</title>
<path fill="none" stroke="#9a32cd" stroke-dasharray="5,2" d="M48.8337,-15.8205C53.1,-14.9368 56,-12.9966 56,-10 56,-4.95312 47.7741,-2.90283 38.6485,-3.84912"/>
<polygon fill="#9a32cd" stroke="#9a32cd" points="48.5297,-12.3284 38.6485,-16.1509 48.7567,-19.3248 48.5297,-12.3284"/>
<text text-anchor="middle" x="67" y="-7.5" font-family="Helvetica,sans-Serif" font-size="10.00"> prox</text>
</g>
<!-- Node2 -->
<g id="node2" class="node"><title>Node2</title>
<g id="a_node2"><a xlink:href="structrecord.html" target="_top" xlink:title="Estrutura para o valor a armazenar. ">
<polygon fill="white" stroke="black" points="-1,-68.5 -1,-87.5 43,-87.5 43,-68.5 -1,-68.5"/>
<text text-anchor="middle" x="21" y="-75.5" font-family="Helvetica,sans-Serif" font-size="10.00">record</text>
</a>
</g>
</g>
<!-- Node2&#45;&gt;Node1 -->
<g id="edge1" class="edge"><title>Node2&#45;&gt;Node1</title>
<path fill="none" stroke="#9a32cd" stroke-dasharray="5,2" d="M21,-58.0413C21,-45.4724 21,-29.5631 21,-19.8411"/>
<polygon fill="#9a32cd" stroke="#9a32cd" points="17.5001,-58.3716 21,-68.3717 24.5001,-58.3717 17.5001,-58.3716"/>
<text text-anchor="middle" x="33.5" y="-41.5" font-family="Helvetica,sans-Serif" font-size="10.00"> valor</text>
</g>
</g>
</svg>
