<?xml version="1.0" encoding="UTF-8" standalone="no"?>
<!DOCTYPE svg PUBLIC "-//W3C//DTD SVG 1.1//EN"
 "http://www.w3.org/Graphics/SVG/1.1/DTD/svg11.dtd">
<!-- Generated by graphviz version 2.36.0 (20140111.2315)
 -->
<!-- Title: stack Pages: 1 -->
<svg width="86pt" height="174pt"
 viewBox="0.00 0.00 86.00 174.00" xmlns="http://www.w3.org/2000/svg" xmlns:xlink="http://www.w3.org/1999/xlink">
<g id="graph0" class="graph" transform="scale(1 1) rotate(0) translate(4 170)">
<title>stack</title>
<polygon fill="white" stroke="none" points="-4,4 -4,-170 82,-170 82,4 -4,4"/>
<!-- Node1 -->
<g id="node1" class="node"><title>Node1</title>
<polygon fill="#bfbfbf" stroke="black" points="0.5,-0.5 0.5,-19.5 41.5,-19.5 41.5,-0.5 0.5,-0.5"/>
<text text-anchor="middle" x="21" y="-7.5" font-family="Helvetica,sans-Serif" font-size="10.00">stack</text>
</g>
<!-- Node2 -->
<g id="node2" class="node"><title>Node2</title>
<g id="a_node2"><a xlink:href="structlista.html" target="_top" xlink:title="Estrutura para a lista ligada. ">
<polygon fill="white" stroke="black" points="3.5,-78.5 3.5,-97.5 38.5,-97.5 38.5,-78.5 3.5,-78.5"/>
<text text-anchor="middle" x="21" y="-85.5" font-family="Helvetica,sans-Serif" font-size="10.00">lista</text>
</a>
</g>
</g>
<!-- Node2&#45;&gt;Node1 -->
<g id="edge1" class="edge"><title>Node2&#45;&gt;Node1</title>
<path fill="none" stroke="#9a32cd" stroke-dasharray="5,2" d="M21,-68.2239C21,-52.6974 21,-31.3582 21,-19.6165"/>
<polygon fill="#9a32cd" stroke="#9a32cd" points="17.5001,-68.2818 21,-78.2818 24.5001,-68.2819 17.5001,-68.2818"/>
<text text-anchor="middle" x="32.5" y="-52" font-family="Helvetica,sans-Serif" font-size="10.00"> fim</text>
<text text-anchor="middle" x="32.5" y="-41" font-family="Helvetica,sans-Serif" font-size="10.00">inicio</text>
</g>
<!-- Node2&#45;&gt;Node2 -->
<g id="edge3" class="edge"><title>Node2&#45;&gt;Node2</title>
<path fill="none" stroke="#9a32cd" stroke-dasharray="5,2" d="M48.8337,-93.8205C53.1,-92.9368 56,-90.9966 56,-88 56,-82.9531 47.7741,-80.9028 38.6485,-81.8491"/>
<polygon fill="#9a32cd" stroke="#9a32cd" points="48.5297,-90.3284 38.6485,-94.1509 48.7567,-97.3248 48.5297,-90.3284"/>
<text text-anchor="middle" x="67" y="-85.5" font-family="Helvetica,sans-Serif" font-size="10.00"> prox</text>
</g>
<!-- Node3 -->
<g id="node3" class="node"><title>Node3</title>
<g id="a_node3"><a xlink:href="structrecord.html" target="_top" xlink:title="Estrutura para o valor a armazenar. ">
<polygon fill="white" stroke="black" points="-1,-146.5 -1,-165.5 43,-165.5 43,-146.5 -1,-146.5"/>
<text text-anchor="middle" x="21" y="-153.5" font-family="Helvetica,sans-Serif" font-size="10.00">record</text>
</a>
</g>
</g>
<!-- Node3&#45;&gt;Node2 -->
<g id="edge2" class="edge"><title>Node3&#45;&gt;Node2</title>
<path fill="none" stroke="#9a32cd" stroke-dasharray="5,2" d="M21,-136.041C21,-123.472 21,-107.563 21,-97.8411"/>
<polygon fill="#9a32cd" stroke="#9a32cd" points="17.5001,-136.372 21,-146.372 24.5001,-136.372 17.5001,-136.372"/>
<text text-anchor="middle" x="33.5" y="-119.5" font-family="Helvetica,sans-Serif" font-size="10.00"> valor</text>
</g>
</g>
</svg>
