<?xml version="1.0" encoding="UTF-8" standalone="no"?>
<!DOCTYPE svg PUBLIC "-//W3C//DTD SVG 1.1//EN"
 "http://www.w3.org/Graphics/SVG/1.1/DTD/svg11.dtd">
<!-- Generated by graphviz version 2.36.0 (20140111.2315)
 -->
<!-- Title: estado Pages: 1 -->
<svg width="88pt" height="252pt"
 viewBox="0.00 0.00 88.00 252.00" xmlns="http://www.w3.org/2000/svg" xmlns:xlink="http://www.w3.org/1999/xlink">
<g id="graph0" class="graph" transform="scale(1 1) rotate(0) translate(4 248)">
<title>estado</title>
<polygon fill="white" stroke="none" points="-4,4 -4,-248 84,-248 84,4 -4,4"/>
<!-- Node1 -->
<g id="node1" class="node"><title>Node1</title>
<polygon fill="#bfbfbf" stroke="black" points="0,-0.5 0,-19.5 46,-19.5 46,-0.5 0,-0.5"/>
<text text-anchor="middle" x="23" y="-7.5" font-family="Helvetica,sans-Serif" font-size="10.00">estado</text>
</g>
<!-- Node2 -->
<g id="node2" class="node"><title>Node2</title>
<g id="a_node2"><a xlink:href="structstack.html" target="_top" xlink:title="Declaração da Estrutura principal. ">
<polygon fill="white" stroke="black" points="2.5,-78.5 2.5,-97.5 43.5,-97.5 43.5,-78.5 2.5,-78.5"/>
<text text-anchor="middle" x="23" y="-85.5" font-family="Helvetica,sans-Serif" font-size="10.00">stack</text>
</a>
</g>
</g>
<!-- Node2&#45;&gt;Node1 -->
<g id="edge1" class="edge"><title>Node2&#45;&gt;Node1</title>
<path fill="none" stroke="#9a32cd" stroke-dasharray="5,2" d="M23,-68.2239C23,-52.6974 23,-31.3582 23,-19.6165"/>
<polygon fill="#9a32cd" stroke="#9a32cd" points="19.5001,-68.2818 23,-78.2818 26.5001,-68.2819 19.5001,-68.2818"/>
<text text-anchor="middle" x="43" y="-52" font-family="Helvetica,sans-Serif" font-size="10.00"> passado</text>
<text text-anchor="middle" x="43" y="-41" font-family="Helvetica,sans-Serif" font-size="10.00">futuro</text>
</g>
<!-- Node3 -->
<g id="node3" class="node"><title>Node3</title>
<g id="a_node3"><a xlink:href="structlista.html" target="_top" xlink:title="Estrutura para a lista ligada. ">
<polygon fill="white" stroke="black" points="5.5,-156.5 5.5,-175.5 40.5,-175.5 40.5,-156.5 5.5,-156.5"/>
<text text-anchor="middle" x="23" y="-163.5" font-family="Helvetica,sans-Serif" font-size="10.00">lista</text>
</a>
</g>
</g>
<!-- Node3&#45;&gt;Node2 -->
<g id="edge2" class="edge"><title>Node3&#45;&gt;Node2</title>
<path fill="none" stroke="#9a32cd" stroke-dasharray="5,2" d="M23,-146.224C23,-130.697 23,-109.358 23,-97.6165"/>
<polygon fill="#9a32cd" stroke="#9a32cd" points="19.5001,-146.282 23,-156.282 26.5001,-146.282 19.5001,-146.282"/>
<text text-anchor="middle" x="34.5" y="-130" font-family="Helvetica,sans-Serif" font-size="10.00"> fim</text>
<text text-anchor="middle" x="34.5" y="-119" font-family="Helvetica,sans-Serif" font-size="10.00">inicio</text>
</g>
<!-- Node3&#45;&gt;Node3 -->
<g id="edge4" class="edge"><title>Node3&#45;&gt;Node3</title>
<path fill="none" stroke="#9a32cd" stroke-dasharray="5,2" d="M50.8337,-171.821C55.1,-170.937 58,-168.997 58,-166 58,-160.953 49.7741,-158.903 40.6485,-159.849"/>
<polygon fill="#9a32cd" stroke="#9a32cd" points="50.5297,-168.328 40.6485,-172.151 50.7567,-175.325 50.5297,-168.328"/>
<text text-anchor="middle" x="69" y="-163.5" font-family="Helvetica,sans-Serif" font-size="10.00"> prox</text>
</g>
<!-- Node4 -->
<g id="node4" class="node"><title>Node4</title>
<g id="a_node4"><a xlink:href="structrecord.html" target="_top" xlink:title="Estrutura para o valor a armazenar. ">
<polygon fill="white" stroke="black" points="1,-224.5 1,-243.5 45,-243.5 45,-224.5 1,-224.5"/>
<text text-anchor="middle" x="23" y="-231.5" font-family="Helvetica,sans-Serif" font-size="10.00">record</text>
</a>
</g>
</g>
<!-- Node4&#45;&gt;Node3 -->
<g id="edge3" class="edge"><title>Node4&#45;&gt;Node3</title>
<path fill="none" stroke="#9a32cd" stroke-dasharray="5,2" d="M23,-214.041C23,-201.472 23,-185.563 23,-175.841"/>
<polygon fill="#9a32cd" stroke="#9a32cd" points="19.5001,-214.372 23,-224.372 26.5001,-214.372 19.5001,-214.372"/>
<text text-anchor="middle" x="35.5" y="-197.5" font-family="Helvetica,sans-Serif" font-size="10.00"> valor</text>
</g>
</g>
</svg>
