<?xml version="1.0" encoding="UTF-8" standalone="no"?>
<!DOCTYPE svg PUBLIC "-//W3C//DTD SVG 1.1//EN"
 "http://www.w3.org/Graphics/SVG/1.1/DTD/svg11.dtd">
<!-- Generated by graphviz version 2.36.0 (20140111.2315)
 -->
<!-- Title: gtree Pages: 1 -->
<svg width="111pt" height="106pt"
 viewBox="0.00 0.00 111.00 106.00" xmlns="http://www.w3.org/2000/svg" xmlns:xlink="http://www.w3.org/1999/xlink">
<g id="graph0" class="graph" transform="scale(1 1) rotate(0) translate(4 102)">
<title>gtree</title>
<polygon fill="white" stroke="none" points="-4,4 -4,-102 107,-102 107,4 -4,4"/>
<!-- Node1 -->
<g id="node1" class="node"><title>Node1</title>
<polygon fill="#bfbfbf" stroke="black" points="16,-78.5 16,-97.5 54,-97.5 54,-78.5 16,-78.5"/>
<text text-anchor="middle" x="35" y="-85.5" font-family="Helvetica,sans-Serif" font-size="10.00">gtree</text>
</g>
<!-- Node1&#45;&gt;Node1 -->
<g id="edge3" class="edge"><title>Node1&#45;&gt;Node1</title>
<path fill="none" stroke="#9a32cd" stroke-dasharray="5,2" d="M64.2501,-94.5427C68.8553,-93.5729 72,-91.392 72,-88 72,-82.4336 63.5314,-80.1288 54.0372,-81.0855"/>
<polygon fill="#9a32cd" stroke="#9a32cd" points="63.9032,-91.0529 54.0372,-94.9145 64.158,-98.0482 63.9032,-91.0529"/>
<text text-anchor="middle" x="87.5" y="-85.5" font-family="Helvetica,sans-Serif" font-size="10.00"> parent</text>
</g>
<!-- Node2 -->
<g id="node2" class="node"><title>Node2</title>
<g id="a_node2"><a xlink:href="structgtree_1_1pecas.html" target="_top" xlink:title="Estrutura que contem apontadores para os filhos do nodo. ">
<polygon fill="white" stroke="black" points="-0.5,-0.5 -0.5,-19.5 70.5,-19.5 70.5,-0.5 -0.5,-0.5"/>
<text text-anchor="middle" x="35" y="-7.5" font-family="Helvetica,sans-Serif" font-size="10.00">gtree::pecas</text>
</a>
</g>
</g>
<!-- Node1&#45;&gt;Node2 -->
<g id="edge2" class="edge"><title>Node1&#45;&gt;Node2</title>
<path fill="none" stroke="#9a32cd" stroke-dasharray="5,2" d="M24.4019,-69.4635C22.9966,-66.4042 21.7755,-63.1805 21,-60 18.6836,-50.5006 18.6836,-47.4994 21,-38 22.6011,-31.4338 26.1011,-24.6838 29.2009,-19.5753"/>
<polygon fill="#9a32cd" stroke="#9a32cd" points="21.3945,-71.2615 29.2009,-78.4247 27.5653,-67.9568 21.3945,-71.2615"/>
<text text-anchor="middle" x="26" y="-52" font-family="Helvetica,sans-Serif" font-size="10.00"> X</text>
<text text-anchor="middle" x="26" y="-41" font-family="Helvetica,sans-Serif" font-size="10.00">O</text>
</g>
<!-- Node2&#45;&gt;Node1 -->
<g id="edge1" class="edge"><title>Node2&#45;&gt;Node1</title>
<path fill="none" stroke="#9a32cd" stroke-dasharray="5,2" d="M35,-29.6421C35,-45.135 35,-66.485 35,-78.2818"/>
<polygon fill="#9a32cd" stroke="#9a32cd" points="38.5001,-29.6165 35,-19.6165 31.5001,-29.6165 38.5001,-29.6165"/>
<text text-anchor="middle" x="42" y="-46.5" font-family="Helvetica,sans-Serif" font-size="10.00"> no</text>
</g>
</g>
</svg>
