<?xml version="1.0" encoding="UTF-8" standalone="no"?>
<!DOCTYPE svg PUBLIC "-//W3C//DTD SVG 1.1//EN"
 "http://www.w3.org/Graphics/SVG/1.1/DTD/svg11.dtd">
<!-- Generated by graphviz version 2.36.0 (20140111.2315)
 -->
<!-- Title: userfiles.c Pages: 1 -->
<svg width="595pt" height="196pt"
 viewBox="0.00 0.00 595.00 196.00" xmlns="http://www.w3.org/2000/svg" xmlns:xlink="http://www.w3.org/1999/xlink">
<g id="graph0" class="graph" transform="scale(1 1) rotate(0) translate(4 192)">
<title>userfiles.c</title>
<polygon fill="white" stroke="none" points="-4,4 -4,-192 591,-192 591,4 -4,4"/>
<!-- Node1 -->
<g id="node1" class="node"><title>Node1</title>
<polygon fill="#bfbfbf" stroke="black" points="208,-168.5 208,-187.5 270,-187.5 270,-168.5 208,-168.5"/>
<text text-anchor="middle" x="239" y="-175.5" font-family="Helvetica,sans-Serif" font-size="10.00">userfiles.c</text>
</g>
<!-- Node2 -->
<g id="node2" class="node"><title>Node2</title>
<g id="a_node2"><a xlink:href="userfiles_8h.html" target="_top" xlink:title="Módulo para conversão entre ficheiros e ESTADO. ">
<polygon fill="white" stroke="black" points="26,-112.5 26,-131.5 88,-131.5 88,-112.5 26,-112.5"/>
<text text-anchor="middle" x="57" y="-119.5" font-family="Helvetica,sans-Serif" font-size="10.00">userfiles.h</text>
</a>
</g>
</g>
<!-- Node1&#45;&gt;Node2 -->
<g id="edge1" class="edge"><title>Node1&#45;&gt;Node2</title>
<path fill="none" stroke="midnightblue" d="M210.162,-168.444C179.144,-159.241 129.671,-144.562 95.3816,-134.388"/>
<polygon fill="midnightblue" stroke="midnightblue" points="96.286,-131.006 85.7035,-131.516 94.2949,-137.716 96.286,-131.006"/>
</g>
<!-- Node4 -->
<g id="node4" class="node"><title>Node4</title>
<polygon fill="white" stroke="#bfbfbf" points="0,-0.5 0,-19.5 46,-19.5 46,-0.5 0,-0.5"/>
<text text-anchor="middle" x="23" y="-7.5" font-family="Helvetica,sans-Serif" font-size="10.00">stdio.h</text>
</g>
<!-- Node1&#45;&gt;Node4 -->
<g id="edge9" class="edge"><title>Node1&#45;&gt;Node4</title>
<path fill="none" stroke="midnightblue" d="M207.979,-174.932C153.326,-170.629 43.1763,-158.793 17,-132 -9.6004,-104.773 4.40754,-55.5702 14.9024,-29.0699"/>
<polygon fill="midnightblue" stroke="midnightblue" points="18.1416,-30.3961 18.7929,-19.8213 11.6892,-27.6818 18.1416,-30.3961"/>
</g>
<!-- Node5 -->
<g id="node5" class="node"><title>Node5</title>
<g id="a_node5"><a xlink:href="estado_8h.html" target="_top" xlink:title="Ficheiro header contendo os dados relativos ao módulo ESTADO. ">
<polygon fill="white" stroke="black" points="72,-56.5 72,-75.5 126,-75.5 126,-56.5 72,-56.5"/>
<text text-anchor="middle" x="99" y="-63.5" font-family="Helvetica,sans-Serif" font-size="10.00">estado.h</text>
</a>
</g>
</g>
<!-- Node1&#45;&gt;Node5 -->
<g id="edge7" class="edge"><title>Node1&#45;&gt;Node5</title>
<path fill="none" stroke="midnightblue" d="M208.709,-168.358C187.659,-161.205 159.918,-149.376 140,-132 125.114,-119.014 113.732,-99.3059 106.781,-84.9957"/>
<polygon fill="midnightblue" stroke="midnightblue" points="109.868,-83.3312 102.515,-75.7029 103.506,-86.2513 109.868,-83.3312"/>
</g>
<!-- Node6 -->
<g id="node6" class="node"><title>Node6</title>
<g id="a_node6"><a xlink:href="stack_8h.html" target="_top" xlink:title="Módulo para operar sobre STACK. ">
<polygon fill="white" stroke="black" points="86.5,-0.5 86.5,-19.5 135.5,-19.5 135.5,-0.5 86.5,-0.5"/>
<text text-anchor="middle" x="111" y="-7.5" font-family="Helvetica,sans-Serif" font-size="10.00">stack.h</text>
</a>
</g>
</g>
<!-- Node1&#45;&gt;Node6 -->
<g id="edge6" class="edge"><title>Node1&#45;&gt;Node6</title>
<path fill="none" stroke="midnightblue" d="M221.752,-168.459C207.264,-160.593 186.777,-147.771 173,-132 148.155,-103.559 152.332,-89.5527 135,-56 130.32,-46.9398 124.993,-36.9238 120.549,-28.6457"/>
<polygon fill="midnightblue" stroke="midnightblue" points="123.494,-26.7333 115.669,-19.5913 117.332,-30.0547 123.494,-26.7333"/>
</g>
<!-- Node7 -->
<g id="node7" class="node"><title>Node7</title>
<polygon fill="white" stroke="#bfbfbf" points="182,-112.5 182,-131.5 230,-131.5 230,-112.5 182,-112.5"/>
<text text-anchor="middle" x="206" y="-119.5" font-family="Helvetica,sans-Serif" font-size="10.00">stdlib.h</text>
</g>
<!-- Node1&#45;&gt;Node7 -->
<g id="edge8" class="edge"><title>Node1&#45;&gt;Node7</title>
<path fill="none" stroke="midnightblue" d="M233.551,-168.083C228.986,-160.613 222.332,-149.724 216.707,-140.52"/>
<polygon fill="midnightblue" stroke="midnightblue" points="219.549,-138.459 211.348,-131.751 213.576,-142.109 219.549,-138.459"/>
</g>
<!-- Node8 -->
<g id="node8" class="node"><title>Node8</title>
<polygon fill="white" stroke="#bfbfbf" points="248.5,-112.5 248.5,-131.5 297.5,-131.5 297.5,-112.5 248.5,-112.5"/>
<text text-anchor="middle" x="273" y="-119.5" font-family="Helvetica,sans-Serif" font-size="10.00">string.h</text>
</g>
<!-- Node1&#45;&gt;Node8 -->
<g id="edge10" class="edge"><title>Node1&#45;&gt;Node8</title>
<path fill="none" stroke="midnightblue" d="M244.614,-168.083C249.367,-160.534 256.318,-149.495 262.152,-140.23"/>
<polygon fill="midnightblue" stroke="midnightblue" points="265.124,-142.078 267.49,-131.751 259.2,-138.349 265.124,-142.078"/>
</g>
<!-- Node9 -->
<g id="node9" class="node"><title>Node9</title>
<polygon fill="white" stroke="#bfbfbf" points="316,-112.5 316,-131.5 376,-131.5 376,-112.5 316,-112.5"/>
<text text-anchor="middle" x="346" y="-119.5" font-family="Helvetica,sans-Serif" font-size="10.00">sys/stat.h</text>
</g>
<!-- Node1&#45;&gt;Node9 -->
<g id="edge11" class="edge"><title>Node1&#45;&gt;Node9</title>
<path fill="none" stroke="midnightblue" d="M256.191,-168.324C273.351,-159.664 299.946,-146.242 319.747,-136.249"/>
<polygon fill="midnightblue" stroke="midnightblue" points="321.501,-139.285 328.851,-131.655 318.347,-133.035 321.501,-139.285"/>
</g>
<!-- Node10 -->
<g id="node10" class="node"><title>Node10</title>
<polygon fill="white" stroke="#bfbfbf" points="394.5,-112.5 394.5,-131.5 445.5,-131.5 445.5,-112.5 394.5,-112.5"/>
<text text-anchor="middle" x="420" y="-119.5" font-family="Helvetica,sans-Serif" font-size="10.00">unistd.h</text>
</g>
<!-- Node1&#45;&gt;Node10 -->
<g id="edge12" class="edge"><title>Node1&#45;&gt;Node10</title>
<path fill="none" stroke="midnightblue" d="M267.68,-168.444C299.298,-159.011 350.199,-143.824 384.357,-133.634"/>
<polygon fill="midnightblue" stroke="midnightblue" points="385.799,-136.856 394.381,-130.643 383.797,-130.148 385.799,-136.856"/>
</g>
<!-- Node11 -->
<g id="node11" class="node"><title>Node11</title>
<polygon fill="white" stroke="#bfbfbf" points="464,-112.5 464,-131.5 508,-131.5 508,-112.5 464,-112.5"/>
<text text-anchor="middle" x="486" y="-119.5" font-family="Helvetica,sans-Serif" font-size="10.00">fcntl.h</text>
</g>
<!-- Node1&#45;&gt;Node11 -->
<g id="edge13" class="edge"><title>Node1&#45;&gt;Node11</title>
<path fill="none" stroke="midnightblue" d="M270.125,-171.173C310.189,-163.524 382.155,-149.279 453.597,-131.953"/>
<polygon fill="midnightblue" stroke="midnightblue" points="454.79,-135.265 463.672,-129.488 453.126,-128.465 454.79,-135.265"/>
</g>
<!-- Node12 -->
<g id="node12" class="node"><title>Node12</title>
<polygon fill="white" stroke="#bfbfbf" points="526,-112.5 526,-131.5 588,-131.5 588,-112.5 526,-112.5"/>
<text text-anchor="middle" x="557" y="-119.5" font-family="Helvetica,sans-Serif" font-size="10.00">sys/wait.h</text>
</g>
<!-- Node1&#45;&gt;Node12 -->
<g id="edge14" class="edge"><title>Node1&#45;&gt;Node12</title>
<path fill="none" stroke="midnightblue" d="M270.254,-172.496C319.956,-165.209 420.275,-149.996 515.867,-131.929"/>
<polygon fill="midnightblue" stroke="midnightblue" points="516.528,-135.366 525.697,-130.057 515.219,-128.489 516.528,-135.366"/>
</g>
<!-- Node3 -->
<g id="node3" class="node"><title>Node3</title>
<g id="a_node3"><a xlink:href="cgi_8h.html" target="_top" xlink:title="Macros úteis para gerar CGIs. ">
<polygon fill="white" stroke="black" points="16,-56.5 16,-75.5 54,-75.5 54,-56.5 16,-56.5"/>
<text text-anchor="middle" x="35" y="-63.5" font-family="Helvetica,sans-Serif" font-size="10.00">cgi.h</text>
</a>
</g>
</g>
<!-- Node2&#45;&gt;Node3 -->
<g id="edge2" class="edge"><title>Node2&#45;&gt;Node3</title>
<path fill="none" stroke="midnightblue" d="M53.3671,-112.083C50.3878,-104.77 46.0739,-94.1814 42.3755,-85.1034"/>
<polygon fill="midnightblue" stroke="midnightblue" points="45.5796,-83.6914 38.5653,-75.7511 39.097,-86.3326 45.5796,-83.6914"/>
</g>
<!-- Node2&#45;&gt;Node5 -->
<g id="edge4" class="edge"><title>Node2&#45;&gt;Node5</title>
<path fill="none" stroke="midnightblue" d="M63.9354,-112.083C69.9292,-104.377 78.7518,-93.0333 86.0476,-83.6531"/>
<polygon fill="midnightblue" stroke="midnightblue" points="88.8169,-85.7934 92.1936,-75.7511 83.2914,-81.4958 88.8169,-85.7934"/>
</g>
<!-- Node3&#45;&gt;Node4 -->
<g id="edge3" class="edge"><title>Node3&#45;&gt;Node4</title>
<path fill="none" stroke="midnightblue" d="M33.0184,-56.083C31.4283,-48.9272 29.1412,-38.6353 27.1536,-29.6911"/>
<polygon fill="midnightblue" stroke="midnightblue" points="30.5307,-28.7537 24.9447,-19.7511 23.6974,-30.2722 30.5307,-28.7537"/>
</g>
<!-- Node5&#45;&gt;Node6 -->
<g id="edge5" class="edge"><title>Node5&#45;&gt;Node6</title>
<path fill="none" stroke="midnightblue" d="M100.982,-56.083C102.572,-48.9272 104.859,-38.6353 106.846,-29.6911"/>
<polygon fill="midnightblue" stroke="midnightblue" points="110.303,-30.2722 109.055,-19.7511 103.469,-28.7537 110.303,-30.2722"/>
</g>
</g>
</svg>
